<svg width="90" height="90" viewBox="0 0 90 90" fill="none" xmlns="http://www.w3.org/2000/svg">
<path d="M0 4C0 1.79086 1.79086 0 4 0H86C88.2091 0 90 1.79086 90 4V86C90 88.2091 88.2091 90 86 90H4C1.79086 90 0 88.2091 0 86V4Z" fill="#252641" fill-opacity="0.3"/>
<path d="M58.5938 33.5C59.3555 33.5 60 34.1445 60 34.9062V54.5938C60 55.4141 59.3555 56 58.5938 56H58.125V54.8281C58.125 54.4766 57.7734 54.125 57.4219 54.125H55.0781C54.668 54.125 54.375 54.4766 54.375 54.8281V56H35.625V54.8281C35.625 54.4766 35.2734 54.125 34.9219 54.125H32.5781C32.168 54.125 31.875 54.4766 31.875 54.8281V56H31.4062C30.5859 56 30 55.4141 30 54.5938V34.9062C30 34.1445 30.5859 33.5 31.4062 33.5H31.875V34.6719C31.875 35.082 32.168 35.375 32.5781 35.375H34.9219C35.2734 35.375 35.625 35.082 35.625 34.6719V33.5H54.375V34.6719C54.375 35.082 54.668 35.375 55.0781 35.375H57.4219C57.7734 35.375 58.125 35.082 58.125 34.6719V33.5H58.5938ZM35.625 51.5469V49.2031C35.625 48.8516 35.2734 48.5 34.9219 48.5H32.5781C32.168 48.5 31.875 48.8516 31.875 49.2031V51.5469C31.875 51.957 32.168 52.25 32.5781 52.25H34.9219C35.2734 52.25 35.625 51.957 35.625 51.5469ZM35.625 45.9219V43.5781C35.625 43.2266 35.2734 42.875 34.9219 42.875H32.5781C32.168 42.875 31.875 43.2266 31.875 43.5781V45.9219C31.875 46.332 32.168 46.625 32.5781 46.625H34.9219C35.2734 46.625 35.625 46.332 35.625 45.9219ZM35.625 40.2969V37.9531C35.625 37.6016 35.2734 37.25 34.9219 37.25H32.5781C32.168 37.25 31.875 37.6016 31.875 37.9531V40.2969C31.875 40.707 32.168 41 32.5781 41H34.9219C35.2734 41 35.625 40.707 35.625 40.2969ZM51.5625 52.4844V46.8594C51.5625 46.5078 51.2109 46.1562 50.8594 46.1562H39.1406C38.7305 46.1562 38.4375 46.5078 38.4375 46.8594V52.4844C38.4375 52.8945 38.7305 53.1875 39.1406 53.1875H50.8594C51.2109 53.1875 51.5625 52.8945 51.5625 52.4844ZM51.5625 42.6406V37.0156C51.5625 36.6641 51.2109 36.3125 50.8594 36.3125H39.1406C38.7305 36.3125 38.4375 36.6641 38.4375 37.0156V42.6406C38.4375 43.0508 38.7305 43.3438 39.1406 43.3438H50.8594C51.2109 43.3438 51.5625 43.0508 51.5625 42.6406ZM58.125 51.5469V49.2031C58.125 48.8516 57.7734 48.5 57.4219 48.5H55.0781C54.668 48.5 54.375 48.8516 54.375 49.2031V51.5469C54.375 51.957 54.668 52.25 55.0781 52.25H57.4219C57.7734 52.25 58.125 51.957 58.125 51.5469ZM58.125 45.9219V43.5781C58.125 43.2266 57.7734 42.875 57.4219 42.875H55.0781C54.668 42.875 54.375 43.2266 54.375 43.5781V45.9219C54.375 46.332 54.668 46.625 55.0781 46.625H57.4219C57.7734 46.625 58.125 46.332 58.125 45.9219ZM58.125 40.2969V37.9531C58.125 37.6016 57.7734 37.25 57.4219 37.25H55.0781C54.668 37.25 54.375 37.6016 54.375 37.9531V40.2969C54.375 40.707 54.668 41 55.0781 41H57.4219C57.7734 41 58.125 40.707 58.125 40.2969Z" fill="#252641"/>
</svg>
