<svg xmlns="http://www.w3.org/2000/svg" width="32" height="33" fill="none" viewBox="0 0 32 33">
  <g clip-path="url(#a)">
    <path fill="#FF782D" d="m26.743 22.9.133.133a2.549 2.549 0 0 0 2.359.695 2.517 2.517 0 0 0 1.836-1.57 15.9 15.9 0 0 0 1.036-6.058A16.207 16.207 0 0 0 16.667.51 16 16 0 0 0 .11 16.5a16.019 16.019 0 0 0 16 16c.45 0 .893-.03 1.333-.067a1.333 1.333 0 0 0 1.221-1.333l-.042-4.784a4.756 4.756 0 0 1 8.12-3.416ZM22.82 11.233a2 2 0 1 1 1.026 3.868 2 2 0 0 1-1.026-3.868ZM10.513 23.1a2 2 0 1 1-1.026-3.868 2 2 0 0 1 1.026 3.868Zm0-8a2 2 0 1 1-1.026-3.868 2 2 0 0 1 1.026 3.868Zm6.667-4a2 2 0 1 1-1.026-3.867A2 2 0 0 1 17.18 11.1Z"/>
  </g>
  <defs>
    <clipPath id="a">
      <path fill="#fff" d="M0 .5h32v32H0z"/>
    </clipPath>
  </defs>
</svg>
