<svg width="440" height="355" viewBox="0 0 440 355" fill="none" xmlns="http://www.w3.org/2000/svg">
<g opacity="0.5">
<path d="M18.2045 163.27C20.2045 172.17 22.8445 180.94 25.5145 189.67C28.4345 199.24 31.2645 208.84 34.1845 218.42C38.9045 233.953 43.5712 249.503 48.1845 265.07C49.1178 268.143 50.0578 271.21 51.0045 274.27C51.0531 274.445 51.1356 274.608 51.2473 274.751C51.359 274.894 51.4978 275.013 51.6557 275.102C51.8135 275.191 51.9874 275.248 52.1674 275.27C52.3473 275.292 52.5298 275.279 52.7045 275.23C52.8791 275.181 53.0425 275.099 53.1853 274.987C53.3281 274.875 53.4474 274.737 53.5366 274.579C53.6257 274.421 53.6829 274.247 53.7048 274.067C53.7268 273.887 53.7131 273.705 53.6645 273.53C51.0578 264.71 48.4212 255.897 45.7545 247.09C40.2078 228.79 34.5578 210.517 28.8045 192.27C25.6845 182.46 22.5345 172.61 18.4545 163.14C18.3945 163 18.1745 163.14 18.2045 163.25V163.27Z" fill="white"/>
<path d="M54.0745 275.27C55.4363 275.362 56.8042 275.278 58.1445 275.02C59.7545 274.8 61.3545 274.56 62.9545 274.32C65.9545 273.87 68.8645 273.39 71.8045 272.84C77.6845 271.74 83.5378 270.51 89.3645 269.15C95.1345 267.81 100.914 266.39 106.604 264.72C111.654 263.23 116.724 261.34 120.974 258.17C125.074 255.11 128.974 250.56 129.774 245.34C130.014 243.75 127.774 243.02 127.304 244.65C126.096 249.143 123.435 253.109 119.734 255.93C115.644 259.11 110.664 260.93 105.734 262.44C94.8845 265.71 83.7345 268.28 72.6545 270.49C69.4878 271.117 66.3178 271.73 63.1445 272.33C61.5645 272.63 59.9745 272.92 58.3845 273.2C56.8216 273.382 55.2869 273.755 53.8145 274.31C53.2845 274.54 53.6345 275.21 54.0645 275.31L54.0745 275.27Z" fill="white"/>
<path d="M18.4745 163.72C21.0945 163.24 23.6245 161.72 26.0545 160.72C28.7045 159.6 31.3645 158.53 34.0545 157.43C39.3878 155.243 44.7545 153.153 50.1545 151.16C55.3545 149.24 60.5912 147.413 65.8645 145.68C71.2545 143.92 76.7745 142.15 82.4945 141.97C88.0979 141.645 93.6097 143.501 97.8745 147.15C98.1157 147.384 98.4394 147.514 98.7756 147.512C99.1118 147.509 99.4336 147.375 99.6714 147.137C99.9091 146.899 100.044 146.577 100.046 146.241C100.049 145.905 99.9187 145.581 99.6845 145.34C96.3045 141.63 90.9745 139.94 86.1045 139.51C80.2945 139 74.4745 140.41 68.9645 142.14C57.6745 145.7 46.5645 149.94 35.6345 154.47C32.5612 155.75 29.5112 157.083 26.4845 158.47C23.6945 159.75 20.3745 160.86 18.0045 162.85C17.5745 163.21 18.0545 163.79 18.5045 163.71L18.4745 163.72Z" fill="white"/>
<path d="M175.004 115.96C176.634 124.96 179.004 133.8 181.544 142.59C184.284 152.21 187.014 161.85 189.874 171.44C194.501 187 199.188 202.547 203.934 218.08C204.868 221.147 205.804 224.22 206.744 227.3C207.264 228.99 209.944 228.3 209.414 226.56C206.714 217.773 204.028 208.977 201.354 200.17C195.834 181.97 190.341 163.767 184.874 145.56C181.874 135.56 178.964 125.56 175.264 115.89C175.26 115.873 175.252 115.857 175.241 115.843C175.23 115.829 175.217 115.817 175.202 115.808C175.186 115.8 175.169 115.794 175.152 115.792C175.134 115.789 175.117 115.79 175.099 115.795C175.082 115.8 175.066 115.808 175.052 115.818C175.038 115.829 175.027 115.843 175.018 115.858C175.009 115.873 175.003 115.89 175.001 115.908C174.999 115.925 175 115.943 175.004 115.96Z" fill="white"/>
<path d="M206.904 228.12C204.224 228.59 201.624 230.12 199.134 231.2C196.645 232.28 193.984 233.36 191.414 234.43C186.248 236.59 181.038 238.64 175.784 240.58C170.531 242.52 165.248 244.35 159.934 246.07C154.764 247.73 149.444 249.28 143.934 249.3C138.614 249.427 133.436 247.574 129.404 244.1C129.163 243.866 128.84 243.736 128.503 243.738C128.167 243.741 127.845 243.875 127.608 244.113C127.37 244.351 127.235 244.673 127.233 245.009C127.23 245.345 127.36 245.669 127.594 245.91C130.794 249.43 135.784 251.12 140.394 251.66C145.834 252.3 151.324 251.19 156.524 249.66C167.807 246.2 178.891 242.12 189.724 237.44C192.764 236.167 195.764 234.833 198.724 233.44C200.178 232.773 201.624 232.107 203.064 231.44C204.584 230.819 206.016 230.002 207.324 229.01C207.754 228.65 207.324 228.07 206.834 228.15L206.904 228.12Z" fill="white"/>
<path d="M175.124 115.41C172.314 115.09 169.214 115.92 166.444 116.35C163.674 116.78 160.664 117.27 157.784 117.82C151.744 118.973 145.728 120.25 139.734 121.65C134.004 122.98 128.274 124.41 122.604 125.99C117.154 127.51 111.604 129.33 106.934 132.63C102.554 135.72 98.3645 140.44 97.5145 145.92C97.2745 147.51 99.5145 148.23 99.9845 146.6C101.272 141.835 104.187 137.67 108.224 134.83C112.644 131.65 117.854 129.88 123.034 128.38C134.144 125.17 145.424 122.5 156.754 120.2C159.924 119.56 163.104 118.93 166.274 118.32C169.274 117.75 172.594 117.56 175.384 116.32C175.914 116.1 175.564 115.42 175.124 115.32V115.41Z" fill="white"/>
<path d="M98.1745 145.83C98.6363 149.016 99.3655 152.157 100.354 155.22C101.224 158.46 102.194 161.68 103.124 164.9C104.984 171.41 106.834 177.9 108.734 184.41C112.584 197.53 116.384 210.65 120.304 223.74C122.478 230.98 124.658 238.223 126.844 245.47C127.494 247.63 130.904 246.71 130.234 244.54C122.324 218.6 114.544 192.61 106.384 166.74C105.254 163.16 104.134 159.57 102.994 155.98C101.854 152.39 100.864 148.79 99.1345 145.57C98.9045 145.14 98.1345 145.31 98.1345 145.83H98.1745Z" fill="white"/>
<path d="M124.134 253.84C124.999 254.99 126.197 255.845 127.564 256.29C129.084 256.635 130.671 256.534 132.134 256C133.492 255.521 134.704 254.701 135.654 253.62C136.119 253.086 136.518 252.498 136.844 251.87C137.285 251.259 137.494 250.511 137.434 249.76C137.403 249.648 137.346 249.544 137.268 249.457C137.19 249.37 137.094 249.302 136.986 249.258C136.878 249.214 136.762 249.194 136.646 249.202C136.529 249.209 136.416 249.243 136.314 249.3C135.887 249.715 135.547 250.212 135.314 250.76C135.025 251.201 134.69 251.609 134.314 251.98C133.532 252.761 132.6 253.377 131.574 253.79C130.433 254.207 129.215 254.371 128.004 254.27L126.254 254.16C125.922 254.184 125.587 254.184 125.254 254.16C124.881 254.074 124.519 253.947 124.174 253.78L124.134 253.84Z" fill="white"/>
<path d="M28.4245 159.15C28.9261 161.88 29.6793 164.558 30.6745 167.15C31.6412 170.157 32.6245 173.157 33.6245 176.15C35.7845 182.59 37.9378 189.03 40.0845 195.47L51.0045 228.13C51.5345 229.73 52.0745 231.33 52.6045 232.92C52.7564 233.421 52.9401 233.912 53.1545 234.39C53.2045 234.49 53.2445 234.61 53.3045 234.71C53.6245 235.38 53.1645 234.33 53.2445 234.57C53.6845 235.88 55.7645 235.31 55.3245 234C55.2245 233.72 55.3245 234.89 55.3245 234.33C55.316 234.105 55.2926 233.882 55.2545 233.66C55.1811 233.321 55.0876 232.987 54.9745 232.66C54.5445 231.39 54.1145 230.11 53.6945 228.84C52.2011 224.4 50.7145 219.96 49.2345 215.52L36.6145 177.9C35.4678 174.467 34.3012 171.04 33.1145 167.62C32.1145 164.69 31.3045 161.49 29.7645 158.79C29.4345 158.22 28.3245 158.42 28.4245 159.15Z" fill="white"/>
<path d="M55.3345 234.58C55.5177 234.125 55.655 233.652 55.7445 233.17C55.8845 232.05 55.9745 230.91 56.0445 229.78C56.1945 227.32 56.3245 224.78 56.6645 222.34L55.2545 222.71L58.2545 226.18C59.1145 227.18 59.9645 228.18 60.8245 229.18C61.5432 230.05 62.3076 230.881 63.1145 231.67L64.0045 232.47L64.2645 232.7C64.3745 232.79 64.5645 233 64.3645 232.78C64.9845 233.47 65.9945 232.46 65.3645 231.78C65.5745 232.02 65.3645 231.7 65.2445 231.6L64.6645 230.78C63.9899 229.874 63.2619 229.009 62.4845 228.19C60.8645 226.37 59.2045 224.6 57.5545 222.8L56.4245 221.57C55.8845 220.98 55.0645 221.5 54.9845 222.17C54.7045 224.68 54.6445 227.23 54.5545 229.76C54.5545 230.89 54.5545 232.04 54.5545 233.18C54.6111 233.673 54.7183 234.159 54.8745 234.63C54.8911 234.674 54.9205 234.711 54.9589 234.738C54.9973 234.764 55.0428 234.778 55.0895 234.778C55.1361 234.778 55.1817 234.764 55.2201 234.738C55.2585 234.711 55.2879 234.674 55.3045 234.63L55.3345 234.58Z" fill="white"/>
<path d="M42.0045 152.27C42.9012 157.52 44.1201 162.71 45.6545 167.81C47.1412 173.01 48.6278 178.217 50.1145 183.43C53.1145 193.96 56.3045 204.43 59.4245 214.94C61.1445 220.72 62.7345 226.54 64.4245 232.34C64.4803 232.449 64.5719 232.535 64.6839 232.583C64.7958 232.632 64.9211 232.641 65.0387 232.608C65.1563 232.575 65.2589 232.503 65.3292 232.403C65.3995 232.303 65.4332 232.182 65.4245 232.06C59.4745 211.12 53.8445 190.06 47.9045 169.16C46.3891 163.384 44.5189 157.706 42.3045 152.16C42.2245 151.99 41.9945 152.16 42.0245 152.28L42.0045 152.27Z" fill="white"/>
<path d="M116.004 147.34C118.824 143.97 123.794 143.42 127.834 142.53C131.704 141.67 135.554 140.67 139.374 139.62C143.194 138.57 147.234 137.73 150.824 136.08C151.554 135.75 150.994 134.79 150.324 134.89C148.23 135.299 146.166 135.847 144.144 136.53C142.144 137.13 140.044 137.72 137.984 138.28C134.224 139.28 130.434 140.34 126.614 141.15C124.264 141.558 121.961 142.208 119.744 143.09C118.044 143.85 115.684 145.09 115.744 147.26C115.744 147.35 115.884 147.43 115.954 147.34H116.004Z" fill="white"/>
<path d="M119.694 162.56C121.694 170.14 123.944 177.62 126.344 185.08C127.531 188.767 128.718 192.457 129.904 196.15L131.724 201.8C132.224 203.35 132.524 205.39 133.534 206.69C133.824 207.06 134.394 206.69 134.414 206.33C134.357 205.454 134.147 204.594 133.794 203.79L132.874 200.97L131.124 195.56C129.924 191.873 128.728 188.187 127.534 184.5C125.134 177.1 122.624 169.77 119.824 162.5C119.824 162.41 119.664 162.44 119.694 162.5V162.56Z" fill="white"/>
<path d="M119.774 161.87C124.484 160.95 129.074 159.01 133.634 157.54C137.844 156.2 142.074 154.93 146.344 153.8C154.015 151.714 161.845 150.266 169.754 149.47C170.964 149.36 170.974 147.47 169.754 147.56C161.729 148.347 153.784 149.809 146.004 151.93C141.674 153.09 137.384 154.39 133.124 155.77C128.524 157.26 123.604 158.59 119.324 160.87C118.754 161.17 119.164 161.98 119.744 161.87H119.774Z" fill="white"/>
<path d="M134.004 206.5C138.374 206.8 142.824 205.76 147.064 204.85C151.304 203.94 155.534 202.85 159.714 201.68C163.895 200.51 168.024 199.16 172.124 197.68C174.124 196.95 176.194 196.18 178.214 195.39C180.361 194.669 182.448 193.78 184.454 192.73C184.628 192.595 184.752 192.406 184.808 192.193C184.864 191.98 184.847 191.755 184.762 191.552C184.677 191.35 184.527 191.181 184.335 191.072C184.144 190.963 183.922 190.92 183.704 190.95C181.664 191.668 179.662 192.489 177.704 193.41C175.704 194.223 173.674 195.003 171.614 195.75C167.534 197.243 163.408 198.597 159.234 199.81C155.061 201.023 150.851 202.103 146.604 203.05C142.404 203.99 138.014 204.58 133.994 206.14C133.949 206.14 133.906 206.158 133.874 206.19C133.842 206.222 133.824 206.265 133.824 206.31C133.824 206.355 133.842 206.398 133.874 206.43C133.906 206.462 133.949 206.48 133.994 206.48L134.004 206.5Z" fill="white"/>
<path d="M169.474 148.27C170.253 151.941 171.231 155.566 172.404 159.13L175.714 170.27C177.908 177.603 180.084 184.937 182.244 192.27C182.594 193.45 184.444 192.95 184.084 191.77C181.864 184.39 179.641 177.013 177.414 169.64L174.054 158.51C173.073 154.913 171.898 151.371 170.534 147.9C170.264 147.26 169.364 147.75 169.474 148.35V148.27Z" fill="white"/>
<path d="M139.004 217.27C142.664 217.74 146.664 217.01 150.274 216.41C154.077 215.788 157.837 214.933 161.534 213.85C165.165 212.767 168.731 211.478 172.214 209.99C174.001 209.266 175.747 208.445 177.444 207.53C179.086 206.744 180.61 205.734 181.974 204.53C182.034 204.466 182.072 204.384 182.082 204.297C182.093 204.21 182.074 204.122 182.031 204.046C181.987 203.97 181.92 203.91 181.84 203.874C181.76 203.839 181.67 203.831 181.584 203.85C179.84 204.411 178.147 205.12 176.524 205.97C174.894 206.69 173.294 207.47 171.664 208.18C168.133 209.704 164.513 211.017 160.824 212.11C157.267 213.162 153.655 214.02 150.004 214.68C148.184 215.01 146.354 215.26 144.524 215.54C142.694 215.82 140.704 215.95 138.874 216.42C138.384 216.55 138.554 217.17 138.974 217.23L139.004 217.27Z" fill="white"/>
<path d="M140.294 224.12C146.624 225.02 153.174 223.95 159.294 222.41C162.504 221.595 165.662 220.593 168.754 219.41C171.752 218.422 174.583 216.99 177.154 215.16C177.684 214.74 177.104 213.9 176.524 214.07C173.524 214.95 170.704 216.43 167.774 217.56C164.831 218.689 161.826 219.65 158.774 220.44C152.674 222.02 146.434 222.66 140.274 223.84C140.24 223.84 140.207 223.854 140.183 223.878C140.158 223.902 140.144 223.936 140.144 223.97C140.144 224.004 140.158 224.038 140.183 224.062C140.207 224.086 140.24 224.1 140.274 224.1L140.294 224.12Z" fill="white"/>
<path d="M164.614 230.7C166.784 231.11 169.164 230.47 171.294 230C173.739 229.421 176.139 228.666 178.474 227.74C180.734 226.87 182.942 225.868 185.084 224.74C187.014 223.74 189.424 222.39 190.484 220.39C190.521 220.325 190.54 220.252 190.539 220.177C190.539 220.102 190.519 220.029 190.482 219.965C190.444 219.9 190.391 219.846 190.326 219.809C190.262 219.771 190.189 219.751 190.114 219.75C188.004 219.84 185.864 221.09 184.014 222.04C181.894 223.13 179.724 224.16 177.524 225.04C175.324 225.92 173.094 226.73 170.864 227.53C168.634 228.33 166.384 228.74 164.524 229.95C164.274 230.11 164.274 230.57 164.614 230.63V230.7Z" fill="white"/>
<path d="M46.3045 167.38C46.9456 167.376 47.5802 167.25 48.1745 167.01C48.8345 166.83 49.4845 166.6 50.1245 166.38L54.0145 165.08C55.3045 164.65 56.5845 164.17 57.8645 163.69C59.1027 163.349 60.273 162.798 61.3245 162.06C61.6745 161.76 61.3245 161.21 60.9545 161.19C59.6376 161.281 58.3458 161.595 57.1345 162.12C55.8345 162.54 54.5345 162.97 53.2545 163.43L49.3945 164.83C48.7745 165.06 48.1645 165.28 47.5545 165.54C46.9533 165.72 46.3929 166.016 45.9045 166.41C45.8205 166.49 45.7625 166.593 45.7378 166.706C45.7131 166.82 45.7229 166.938 45.766 167.045C45.809 167.153 45.8833 167.245 45.9793 167.31C46.0753 167.375 46.1886 167.41 46.3045 167.41V167.38Z" fill="white"/>
<path d="M50.1245 180.65C51.6714 180.65 53.2059 180.373 54.6545 179.83C56.2645 179.38 57.8545 178.9 59.4545 178.43C62.5745 177.53 65.6845 176.58 68.7945 175.63L78.1145 172.78L82.8945 171.27C84.2145 170.87 85.8945 170.66 86.8945 169.63C86.9626 169.553 87.0105 169.461 87.034 169.361C87.0575 169.261 87.0558 169.156 87.029 169.057C87.0022 168.958 86.9512 168.867 86.8806 168.793C86.81 168.718 86.722 168.662 86.6245 168.63C85.2145 168.33 83.7245 169.08 82.3845 169.48L68.0045 173.84C64.8845 174.78 61.7845 175.73 58.6845 176.72C57.0945 177.23 55.4945 177.72 53.9245 178.25C52.4603 178.599 51.0736 179.216 49.8345 180.07C49.5845 180.28 49.8345 180.62 50.0845 180.65H50.1245Z" fill="white"/>
<path d="M52.1345 188.27C54.0545 188.56 56.3145 187.76 58.1345 187.27C60.3045 186.74 62.4445 186.11 64.5945 185.54C68.8145 184.41 73.3245 183.54 77.2445 181.54C77.3333 181.486 77.4021 181.405 77.4407 181.308C77.4793 181.212 77.4855 181.105 77.4585 181.005C77.4314 180.905 77.3725 180.816 77.2907 180.752C77.2088 180.688 77.1084 180.652 77.0045 180.65C72.6145 180.95 68.3045 182.52 64.0945 183.71C61.9545 184.32 59.7945 184.89 57.6645 185.55C55.8445 186.11 53.4945 186.55 52.0045 187.82C51.975 187.849 51.9537 187.886 51.9425 187.926C51.9313 187.966 51.9308 188.008 51.9409 188.048C51.9509 188.089 51.9713 188.126 52 188.156C52.0287 188.186 52.0647 188.208 52.1045 188.22L52.1345 188.27Z" fill="white"/>
<path d="M58.3945 199.98C61.2445 199.5 64.0745 198.98 66.8845 198.33C69.6945 197.68 72.4245 196.81 75.1645 195.97C77.9045 195.13 80.4945 194.29 83.1645 193.46C84.5745 193.01 85.9645 192.46 87.3545 192C88.4345 191.61 89.8245 191.31 90.3545 190.22C90.4387 190.077 90.4629 189.906 90.4217 189.745C90.3805 189.584 90.2772 189.445 90.1345 189.36C89.0245 188.78 87.7945 189.28 86.6645 189.58C85.3145 189.94 83.9645 190.29 82.6645 190.71C79.8445 191.6 77.0145 192.46 74.2045 193.38C71.3945 194.3 68.7245 195.16 66.0545 196.21C63.3845 197.26 60.8545 198.45 58.2745 199.67C58.0945 199.76 58.2745 200.01 58.4045 199.98H58.3945Z" fill="white"/>
<path d="M91.5745 189.84C91.5043 190.541 91.4842 191.246 91.5145 191.95C91.6278 192.77 91.7678 193.59 91.9345 194.41C92.2945 196.11 92.7045 197.8 93.0745 199.5C93.8145 202.81 94.7645 206.09 95.6145 209.37C96.4645 212.65 97.2745 215.78 98.1145 218.99C98.9545 222.2 99.6545 225.81 100.764 229.08C100.856 229.413 101.076 229.696 101.376 229.866C101.676 230.037 102.032 230.082 102.364 229.99C102.697 229.898 102.98 229.679 103.151 229.378C103.322 229.078 103.366 228.723 103.274 228.39C102.624 225.08 101.514 221.8 100.634 218.55C99.7545 215.3 98.8545 212 97.9545 208.72C97.0545 205.44 96.2945 202.31 95.3345 199.14C94.8245 197.47 94.3345 195.81 93.7945 194.14C93.5478 193.347 93.2678 192.567 92.9545 191.8C92.6099 191.104 92.2121 190.435 91.7645 189.8C91.7579 189.78 91.7452 189.763 91.7281 189.75C91.7111 189.738 91.6905 189.731 91.6695 189.731C91.6484 189.731 91.6279 189.738 91.6108 189.75C91.5938 189.763 91.5811 189.78 91.5745 189.8V189.84Z" fill="white"/>
<path d="M54.8245 237.96C54.8176 238.478 54.841 238.995 54.8945 239.51C54.9745 240.04 55.0745 240.57 55.1745 241.09C55.296 242.149 55.5307 243.191 55.8745 244.2C55.9376 244.394 56.0586 244.564 56.2213 244.688C56.384 244.811 56.5805 244.882 56.7845 244.89C56.9542 244.898 57.1221 244.853 57.2645 244.76C57.436 244.648 57.5691 244.487 57.646 244.298C57.7229 244.108 57.7398 243.899 57.6945 243.7C57.4211 242.641 57.0321 241.614 56.5345 240.64C56.3345 240.17 56.1345 239.64 55.9145 239.21C55.6767 238.753 55.4095 238.312 55.1145 237.89C55.0961 237.863 55.0701 237.843 55.04 237.832C55.0098 237.82 54.9769 237.818 54.9455 237.826C54.9142 237.833 54.8858 237.85 54.8642 237.874C54.8426 237.898 54.8288 237.928 54.8245 237.96Z" fill="white"/>
<path d="M57.0645 244.17C58.986 244.518 60.9321 244.712 62.8845 244.75C64.9571 244.72 67.0267 244.58 69.0845 244.33C73.1055 243.835 77.0881 243.067 81.0045 242.03C84.9243 241.04 88.757 239.732 92.4645 238.12C94.3545 237.26 96.1945 236.32 98.0345 235.37C99.8281 234.541 101.508 233.485 103.034 232.23C103.109 232.149 103.155 232.046 103.168 231.937C103.18 231.828 103.157 231.717 103.103 231.622C103.048 231.526 102.965 231.45 102.865 231.405C102.764 231.36 102.652 231.348 102.544 231.37C100.671 232.04 98.8442 232.832 97.0745 233.74C95.2645 234.57 93.4045 235.27 91.5345 235.94C87.8245 237.27 84.1545 238.62 80.3345 239.64C76.5357 240.658 72.6831 241.462 68.7945 242.05C66.7945 242.35 64.8645 242.65 62.9045 242.89C60.9445 243.13 59.0245 243.6 57.0845 243.89C57.0597 243.897 57.038 243.913 57.0226 243.933C57.0071 243.954 56.9988 243.979 56.9988 244.005C56.9988 244.031 57.0071 244.056 57.0226 244.077C57.038 244.097 57.0597 244.113 57.0845 244.12L57.0645 244.17Z" fill="white"/>
<path d="M60.3345 255.96C65.8045 256.68 71.6245 255.12 76.9245 253.87C79.6145 253.24 82.2845 252.54 84.9245 251.68C86.2845 251.24 87.5545 250.56 88.9245 250.04C90.2337 249.578 91.5044 249.013 92.7245 248.35C93.1145 248.13 92.8345 247.6 92.4345 247.66C91.1145 247.89 89.8345 248.3 88.5445 248.66C87.2545 249.02 85.7545 249.22 84.3845 249.59C81.7245 250.32 79.0645 251.07 76.3845 251.74C71.0945 253.05 65.3845 253.58 60.3845 255.64C60.3476 255.649 60.3149 255.67 60.2915 255.7C60.2681 255.73 60.2554 255.767 60.2554 255.805C60.2554 255.843 60.2681 255.88 60.2915 255.91C60.3149 255.94 60.3476 255.961 60.3845 255.97L60.3345 255.96Z" fill="white"/>
<path d="M65.3045 229.08C70.1745 228.2 72.9945 222.56 77.8045 221.37C79.2319 221.042 80.7234 221.128 82.1034 221.619C83.4834 222.11 84.6946 222.984 85.5945 224.14C86.1087 222.63 86.9682 221.26 88.1045 220.14C88.6774 219.585 89.3705 219.169 90.13 218.924C90.8896 218.68 91.6952 218.613 92.4845 218.73C93.267 218.875 93.9779 219.28 94.5022 219.878C95.0266 220.477 95.3339 221.235 95.3745 222.03" fill="white"/>
<path d="M75.8945 212.21C76.1484 213.235 76.7405 214.145 77.5751 214.793C78.4096 215.441 79.4381 215.788 80.4945 215.78C81.5535 215.709 82.5544 215.27 83.3247 214.54C84.0951 213.81 84.5865 212.834 84.7145 211.78C84.7618 210.74 84.4393 209.716 83.8042 208.89C83.1691 208.065 82.2623 207.491 81.2445 207.27C80.1995 207.121 79.1363 207.366 78.2619 207.957C77.3876 208.549 76.7647 209.444 76.5145 210.47" fill="white"/>
<path d="M74.7345 205.63L72.8345 202.81L74.7345 205.63Z" fill="white"/>
<path d="M72.3445 211.57L70.8645 210.98L72.3445 211.57Z" fill="white"/>
<path d="M82.0545 203.94L83.2545 200.94L82.0545 203.94Z" fill="white"/>
<path d="M87.9145 209.49L90.7845 208.62L87.9145 209.49Z" fill="white"/>
<path d="M132.724 195.37C136.214 192.37 138.024 187.91 140.664 184.14C143.304 180.37 147.664 177.01 152.154 178.14C154.944 178.82 157.414 181.14 160.264 180.75C162.264 180.47 163.754 178.91 164.894 177.29C166.034 175.67 166.984 173.86 168.514 172.6C170.044 171.34 172.424 170.79 173.984 172.01" fill="white"/>
<path d="M123.004 166.27C124.514 166.223 126.019 166.479 127.428 167.021C128.838 167.564 130.125 168.383 131.214 169.43C132.584 170.74 133.844 172.52 135.734 172.65C137.834 172.79 139.374 170.83 141.024 169.52C142.371 168.456 143.976 167.768 145.675 167.525C147.374 167.282 149.107 167.493 150.698 168.137C152.289 168.781 153.68 169.835 154.732 171.192C155.784 172.548 156.457 174.159 156.684 175.86" fill="white"/>
<path d="M176.754 183.1C174.828 182.901 172.884 183.223 171.125 184.032C169.366 184.841 167.857 186.108 166.754 187.7C166.113 188.859 165.378 189.963 164.554 191C162.904 192.74 160.364 193.25 157.974 193.45C155.584 193.65 153.094 193.65 150.974 194.7C148.854 195.75 147.124 198.26 147.974 200.51" fill="white"/>
<path d="M84.1445 120.93C81.7231 110.456 78.1026 100.295 73.3545 90.65C68.7357 80.886 63.3172 71.5207 57.1545 62.65C53.7434 57.7042 49.9909 53.0028 45.9245 48.58C45.1745 47.77 43.6845 48.86 44.3745 49.78C50.7445 58.27 57.0645 66.85 62.5945 75.95C68.0018 84.9564 72.7669 94.333 76.8545 104.01C79.2545 109.64 81.4645 115.36 83.6845 121.01C83.7067 121.063 83.7475 121.107 83.7994 121.133C83.8512 121.159 83.9107 121.165 83.9667 121.15C84.0227 121.136 84.0716 121.101 84.1043 121.053C84.1369 121.006 84.1512 120.948 84.1445 120.89V120.93Z" fill="white"/>
<path d="M100.494 119.45C96.5645 110.51 92.6345 101.6 89.3545 92.45C86.0745 83.3 83.3545 74.08 80.8545 64.78C80.7987 64.6269 80.6874 64.5004 80.5427 64.4254C80.398 64.3505 80.2304 64.3326 80.0732 64.3754C79.916 64.4182 79.7805 64.5184 79.6937 64.6563C79.6069 64.7943 79.5751 64.9597 79.6045 65.12C81.6175 74.7049 84.3794 84.1171 87.8645 93.27C91.1528 102.42 95.1898 111.283 99.9345 119.77C99.9555 119.807 99.9835 119.839 100.017 119.865C100.051 119.891 100.089 119.91 100.13 119.921C100.17 119.932 100.213 119.935 100.255 119.93C100.297 119.925 100.338 119.911 100.374 119.89C100.411 119.869 100.444 119.841 100.469 119.807C100.495 119.774 100.514 119.736 100.526 119.695C100.537 119.654 100.54 119.611 100.534 119.569C100.529 119.527 100.515 119.487 100.494 119.45Z" fill="white"/>
<path d="M107.124 113.94C104.509 104.653 103.061 95.0755 102.814 85.43C102.596 75.8019 103.854 66.197 106.544 56.95C107.284 54.43 108.124 51.95 109.044 49.48C109.964 47.01 111.254 44.41 112.124 41.8C112.514 40.65 110.874 40.1 110.254 41.01C108.952 43.0879 107.863 45.2925 107.004 47.59C106.004 49.89 105.194 52.22 104.464 54.59C102.999 59.3454 101.919 64.2111 101.234 69.14C99.7597 78.8566 99.9695 88.7546 101.854 98.4C102.907 103.795 104.553 109.057 106.764 114.09C106.854 114.3 107.194 114.15 107.134 113.93L107.124 113.94Z" fill="white"/>
<path d="M114.664 106.96C114.511 102.266 115.088 97.5767 116.374 93.06C117.756 88.5958 119.745 84.3427 122.284 80.42C122.794 79.6 121.524 78.57 120.914 79.37C114.974 87.05 112.804 97.51 114.364 107C114.364 107.18 114.664 107.14 114.664 107V106.96Z" fill="white"/>
<path d="M71.7445 120.4C69.5633 114.608 66.2755 109.296 62.0645 104.76C60.0093 102.516 57.7569 100.461 55.3345 98.62C52.886 96.6136 50.1528 94.9824 47.2245 93.78C46.5945 93.54 46.2945 94.47 46.7945 94.78C49.2645 96.44 51.8645 97.88 54.2545 99.68C56.6893 101.507 58.9642 103.537 61.0545 105.75C65.1805 110.151 68.607 115.16 71.2145 120.6C71.3545 120.89 71.8645 120.68 71.7445 120.37V120.4Z" fill="white"/>
<path d="M40.1245 89.02L36.1245 87.47C34.8379 86.8793 33.4987 86.4106 32.1245 86.07C32.0342 86.0474 31.9388 86.0577 31.8555 86.0993C31.7722 86.1408 31.7065 86.2107 31.6703 86.2965C31.6341 86.3822 31.6297 86.4781 31.658 86.5667C31.6863 86.6554 31.7453 86.7311 31.8245 86.78C33.1016 87.4469 34.4415 87.9862 35.8245 88.39L39.9145 89.88C40.4545 90.07 40.6745 89.23 40.1445 89.02H40.1245Z" fill="white"/>
<path d="M79.2445 55.4C78.1556 50.7678 77.5887 46.0283 77.5545 41.27C77.4345 36.48 78.2845 31.92 78.9545 27.21C78.9509 26.994 78.8775 26.7849 78.7451 26.6141C78.6128 26.4433 78.4287 26.3199 78.2204 26.2625C78.0121 26.2051 77.7908 26.2167 77.5896 26.2956C77.3885 26.3744 77.2183 26.5163 77.1045 26.7C75.4145 31.27 75.1645 36.48 75.3645 41.27C75.6642 46.179 76.797 51.0011 78.7145 55.53C78.8445 55.84 79.3345 55.73 79.2445 55.38V55.4Z" fill="white"/>
<path d="M88.7245 0L89.1445 5.99L94.7845 8.03L89.2145 10.28L89.0145 16.28L85.1545 11.68L79.3845 13.34L82.5645 8.25L79.2045 3.28L85.0345 4.73L88.7245 0Z" fill="white"/>
<path d="M23.1645 28.01L26.8745 32.72L32.6945 31.24L29.3545 36.23L32.5645 41.3L26.7945 39.67L22.9545 44.29L22.7245 38.3L17.1445 36.08L22.7745 34L23.1645 28.01Z" fill="white"/>
<path d="M26.0645 107.97L29.0445 111.74L33.6945 110.55L31.0245 114.55L33.5945 118.61L28.9745 117.3L25.9045 121L25.7145 116.2L21.2545 114.43L25.7545 112.77L26.0645 107.97Z" fill="white"/>
<path d="M142.624 55.32L142.204 60.1L146.404 62.43L141.724 63.51L140.804 68.22L138.334 64.1L133.574 64.69L136.724 61.07L134.694 56.72L139.114 58.6L142.624 55.32Z" fill="white"/>
<path d="M119.524 32.96H118.854C118.459 33.0029 118.096 33.2003 117.845 33.5093C117.594 33.8183 117.475 34.2139 117.514 34.61C117.56 35.0036 117.756 35.3642 118.062 35.616C118.368 35.8678 118.76 35.9911 119.154 35.96H119.824C120.218 35.9171 120.58 35.7211 120.83 35.4143C121.081 35.1075 121.201 34.7145 121.164 34.32C121.119 33.9256 120.923 33.564 120.618 33.3106C120.312 33.0572 119.92 32.9316 119.524 32.96Z" fill="white"/>
<path d="M126.234 28.27C124.954 28.27 125.164 30.27 126.434 30.27C127.704 30.27 127.514 28.27 126.234 28.27Z" fill="white"/>
<path d="M119.904 61.64C119.641 61.6653 119.398 61.7943 119.229 61.9987C119.06 62.2031 118.979 62.4661 119.004 62.73V63.4C119.018 63.5307 119.058 63.6574 119.12 63.7729C119.183 63.8884 119.268 63.9903 119.37 64.073C119.472 64.1556 119.59 64.2173 119.716 64.2546C119.842 64.2918 119.974 64.3039 120.104 64.29C120.368 64.2647 120.611 64.1357 120.78 63.9313C120.949 63.7269 121.03 63.4639 121.004 63.2V62.53C120.991 62.3993 120.951 62.2726 120.889 62.1571C120.826 62.0417 120.741 61.9397 120.639 61.857C120.537 61.7744 120.419 61.7126 120.293 61.6754C120.167 61.6382 120.035 61.6261 119.904 61.64Z" fill="white"/>
<path d="M141.574 82.27C140.285 82.27 140.494 84.27 141.774 84.27C143.054 84.27 142.844 82.27 141.574 82.27Z" fill="white"/>
<path d="M18.3545 77.14C17.9619 77.1878 17.6028 77.3847 17.3515 77.69C17.1002 77.9953 16.9759 78.3856 17.0045 78.78V79.45C17.0474 79.8457 17.2448 80.2085 17.5538 80.4595C17.8628 80.7104 18.2584 80.8292 18.6545 80.79C19.047 80.7422 19.4062 80.5453 19.6575 80.24C19.9088 79.9347 20.0331 79.5444 20.0045 79.15V78.48C19.9616 78.0843 19.7642 77.7214 19.4552 77.4705C19.1462 77.2196 18.7506 77.1008 18.3545 77.14Z" fill="white"/>
<path d="M9.52449 100.47C7.58449 100.47 7.90448 103.47 9.82448 103.47C11.7445 103.47 11.4345 100.47 9.52449 100.47Z" fill="white"/>
<path d="M0.904485 94.97C0.640645 94.9953 0.397648 95.1244 0.22889 95.3287C0.060132 95.5331 -0.0205816 95.7961 0.00448494 96.06V96.73C0.016978 96.8616 0.055428 96.9894 0.117612 97.106C0.179796 97.2226 0.264481 97.3257 0.366769 97.4094C0.469058 97.4931 0.586922 97.5557 0.713547 97.5936C0.840171 97.6314 0.973045 97.6438 1.10448 97.63C1.23606 97.6175 1.36385 97.5791 1.48047 97.5169C1.59709 97.4547 1.70022 97.37 1.78391 97.2677C1.86761 97.1654 1.93019 97.0476 1.96805 96.9209C2.00591 96.7943 2.01829 96.6614 2.00448 96.53V95.87C1.99199 95.7384 1.95354 95.6106 1.89136 95.494C1.82917 95.3774 1.74449 95.2743 1.6422 95.1906C1.53991 95.1069 1.42205 95.0443 1.29542 95.0064C1.1688 94.9686 1.03593 94.9562 0.904485 94.97Z" fill="white"/>
<path d="M11.5745 59.64C10.2845 59.64 10.4945 61.64 11.7745 61.64C13.0545 61.64 12.8445 59.64 11.5745 59.64Z" fill="white"/>
<path d="M37.5745 70.27C36.2845 70.27 36.4945 72.27 37.7745 72.27C39.0545 72.27 38.8445 70.27 37.5745 70.27Z" fill="white"/>
<path d="M56.2345 30.96H55.5745C55.4432 30.9731 55.3157 31.012 55.1994 31.0744C55.0831 31.1368 54.9802 31.2215 54.8967 31.3236C54.8131 31.4257 54.7505 31.5434 54.7123 31.6697C54.6742 31.7961 54.6614 31.9287 54.6745 32.06C54.6876 32.1913 54.7265 32.3188 54.7889 32.4351C54.8513 32.5514 54.9359 32.6542 55.0381 32.7378C55.1402 32.8214 55.2578 32.884 55.3842 32.9221C55.5105 32.9603 55.6432 32.9731 55.7745 32.96H56.4345C56.6983 32.9347 56.9413 32.8057 57.1101 32.6013C57.2788 32.3969 57.3596 32.1339 57.3345 31.87C57.3232 31.7375 57.2857 31.6087 57.2241 31.4909C57.1624 31.3731 57.0779 31.2688 56.9755 31.1841C56.8731 31.0994 56.7548 31.0359 56.6276 30.9974C56.5003 30.959 56.3667 30.9462 56.2345 30.96Z" fill="white"/>
<path d="M57.5745 12.97C56.2845 12.97 56.4945 14.97 57.7745 14.97C59.0545 14.97 58.8445 12.97 57.5745 12.97Z" fill="white"/>
<path d="M69.9045 24.97C69.6406 24.9953 69.3976 25.1243 69.2289 25.3287C69.0601 25.5331 68.9794 25.7961 69.0045 26.06V26.73C69.017 26.8616 69.0554 26.9894 69.1176 27.106C69.1798 27.2226 69.2645 27.3257 69.3668 27.4094C69.4691 27.4931 69.5869 27.5557 69.7135 27.5936C69.8402 27.6314 69.973 27.6438 70.1045 27.63C70.2361 27.6175 70.3638 27.5791 70.4805 27.5169C70.5971 27.4547 70.7002 27.37 70.7839 27.2677C70.8676 27.1654 70.9302 27.0476 70.968 26.9209C71.0059 26.7943 71.0183 26.6614 71.0045 26.53V25.87C70.992 25.7384 70.9535 25.6106 70.8914 25.494C70.8292 25.3774 70.7445 25.2743 70.6422 25.1906C70.5399 25.1069 70.4221 25.0443 70.2954 25.0064C70.1688 24.9686 70.0359 24.9562 69.9045 24.97Z" fill="white"/>
<path d="M93.5745 43.96H92.9045C92.7732 43.9731 92.6457 44.012 92.5294 44.0744C92.4131 44.1368 92.3102 44.2215 92.2267 44.3236C92.1431 44.4257 92.0805 44.5434 92.0423 44.6697C92.0042 44.7961 91.9914 44.9287 92.0045 45.06C92.0176 45.1913 92.0565 45.3188 92.1189 45.4351C92.1813 45.5514 92.2659 45.6542 92.3681 45.7378C92.4702 45.8214 92.5878 45.884 92.7142 45.9221C92.8405 45.9603 92.9732 45.9731 93.1045 45.96H93.7745C94.0365 45.9322 94.277 45.8021 94.4437 45.598C94.6103 45.3939 94.6897 45.1323 94.6645 44.87C94.6532 44.7385 94.616 44.6105 94.555 44.4934C94.4939 44.3764 94.4104 44.2726 94.309 44.188C94.2077 44.1034 94.0906 44.0397 93.9646 44.0005C93.8385 43.9614 93.7059 43.9476 93.5745 43.96Z" fill="white"/>
<path d="M102.294 25.85C102.192 25.7675 102.073 25.7062 101.947 25.6695C101.82 25.6329 101.687 25.6217 101.556 25.6366C101.425 25.6514 101.298 25.6921 101.183 25.7562C101.068 25.8203 100.966 25.9065 100.884 26.01L100.224 26.67C100.138 26.7719 100.072 26.8902 100.031 27.0179C99.9911 27.1456 99.9768 27.2801 99.9894 27.4135C100.002 27.5468 100.041 27.6763 100.105 27.7942C100.168 27.9121 100.255 28.016 100.36 28.0997C100.464 28.1835 100.584 28.2454 100.713 28.2818C100.842 28.3182 100.977 28.3283 101.11 28.3115C101.243 28.2947 101.371 28.2514 101.487 28.1842C101.603 28.1169 101.704 28.0271 101.784 27.92L102.454 27.26C102.537 27.1571 102.598 27.0389 102.635 26.9122C102.672 26.7855 102.683 26.6528 102.668 26.5217C102.653 26.3906 102.612 26.2638 102.548 26.1485C102.484 26.0333 102.398 25.9318 102.294 25.85Z" fill="white"/>
<path d="M52.9045 121.96H52.2345C52.1038 121.974 51.9771 122.013 51.8616 122.076C51.7461 122.139 51.6442 122.223 51.5615 122.326C51.4788 122.428 51.4171 122.545 51.3799 122.671C51.3427 122.797 51.3306 122.929 51.3445 123.06C51.3698 123.324 51.4988 123.567 51.7032 123.736C51.9076 123.904 52.1706 123.985 52.4345 123.96H53.1045C53.3683 123.935 53.6113 123.806 53.7801 123.601C53.9488 123.397 54.0296 123.134 54.0045 122.87C53.9932 122.738 53.9557 122.609 53.8941 122.491C53.8324 122.373 53.7479 122.269 53.6455 122.184C53.5431 122.099 53.4248 122.036 53.2976 121.997C53.1703 121.959 53.0367 121.946 52.9045 121.96Z" fill="white"/>
<path d="M0.904485 124.27C-0.385515 124.27 -0.175515 126.27 1.10449 126.27C2.38448 126.27 2.18448 124.27 0.904485 124.27Z" fill="white"/>
<path d="M156.234 80.97C154.954 80.97 155.164 82.97 156.434 82.97C157.704 82.97 157.514 80.97 156.234 80.97Z" fill="white"/>
<path d="M246.724 173.59C239.724 186.21 233.064 198.98 229.004 212.89C228.354 215.1 227.754 217.32 227.174 219.54C226.844 220.81 226.534 222.08 226.234 223.35C225.934 224.62 225.304 226.35 225.804 227.71C225.873 227.94 226 228.148 226.172 228.315C226.344 228.482 226.557 228.602 226.788 228.663C227.02 228.724 227.264 228.725 227.496 228.665C227.728 228.605 227.941 228.486 228.114 228.32C228.856 227.412 229.315 226.306 229.434 225.14C229.714 223.9 230.004 222.67 230.284 221.43C230.744 219.36 231.224 217.29 231.734 215.24C232.574 211.91 233.494 208.6 234.564 205.33C236.564 199.25 239.074 193.33 241.624 187.48C243.624 182.96 245.374 178.36 247.064 173.73C247.144 173.53 246.824 173.4 246.724 173.59Z" fill="white"/>
<path d="M362.194 203.32C360.994 211.15 360.345 219.02 359.424 226.88C358.691 233.245 357.528 239.552 355.944 245.76C355.395 247.92 354.794 250.08 354.174 252.22C353.824 253.44 353.464 254.66 353.124 255.88C352.724 257.29 352.044 258.8 352.464 260.27C352.533 260.5 352.66 260.708 352.832 260.875C353.004 261.042 353.217 261.161 353.448 261.223C353.68 261.284 353.924 261.285 354.156 261.225C354.388 261.165 354.601 261.046 354.774 260.88C355.575 259.982 356.097 258.87 356.274 257.68C356.624 256.43 356.974 255.19 357.274 253.93C357.781 251.93 358.268 249.947 358.734 247.98C359.525 244.6 360.215 241.2 360.734 237.77C361.648 231.36 362.192 224.903 362.364 218.43C362.564 213.43 362.544 208.43 362.524 203.37C362.524 203.16 362.184 203.1 362.154 203.37L362.194 203.32Z" fill="white"/>
<path d="M246.334 174.16C250.184 174.44 254.044 174.98 257.864 175.53C262.314 176.17 266.744 176.87 271.164 177.69C280.874 179.49 290.495 181.69 300.074 184.06C316.645 188.21 333.024 193.06 349.254 198.38C351.674 199.17 354.304 200.38 356.864 200.56H357.145C356.544 200.5 357.284 200.56 357.404 200.56C357.59 200.594 357.777 200.617 357.964 200.63H358.174C359.275 200.73 357.854 200.47 358.084 200.63C358.218 200.665 358.356 200.686 358.494 200.69L359.014 200.77H359.084C359.724 200.83 359.804 200.5 359.154 200.77C359.154 200.77 359.154 200.77 359.204 200.77C360.555 201.24 361.134 199.1 359.794 198.63C359.514 198.53 360.714 199.15 359.914 198.63L359.494 198.39L359.254 198.26L359.094 198.17C358.224 197.73 359.154 198.33 359.194 198.28C359.234 198.23 358.194 197.64 358.104 197.58C356.884 196.93 359.104 198.29 357.944 197.49L357.704 197.33L357.274 197.06C356.711 196.781 356.13 196.54 355.534 196.34C354.434 195.93 353.334 195.57 352.224 195.21C345.431 192.97 338.614 190.827 331.774 188.78C313.104 183.18 294.214 178.07 274.974 174.78C265.514 173.18 255.884 172.1 246.334 173.37C246.252 173.37 246.173 173.403 246.115 173.461C246.057 173.519 246.024 173.598 246.024 173.68C246.024 173.762 246.057 173.841 246.115 173.899C246.173 173.957 246.252 173.99 246.334 173.99V174.16Z" fill="white"/>
<path d="M230.474 230.74C237.424 235.13 245.314 238.08 253.004 240.93C260.694 243.78 268.174 246.32 275.874 248.67C290.955 253.238 306.291 256.911 321.804 259.67C326.084 260.45 330.378 261.16 334.684 261.8C339.044 262.46 343.504 263.35 347.914 263.33C348.271 263.318 348.611 263.18 348.876 262.941C349.14 262.702 349.311 262.377 349.359 262.024C349.407 261.671 349.328 261.312 349.137 261.011C348.946 260.71 348.655 260.487 348.314 260.38C344.498 259.575 340.643 258.964 336.764 258.55C332.995 257.99 329.215 257.38 325.454 256.73C317.775 255.397 310.138 253.847 302.544 252.08C287.221 248.524 272.111 244.107 257.284 238.85C248.534 235.76 239.924 231.94 230.934 229.61C230.793 229.569 230.641 229.581 230.508 229.645C230.375 229.708 230.27 229.819 230.214 229.955C230.157 230.091 230.152 230.243 230.2 230.382C230.248 230.521 230.346 230.638 230.474 230.71V230.74Z" fill="white"/>
<path d="M230.574 230.02C229.485 231.39 228.59 232.905 227.914 234.52C227.044 236.23 226.254 237.99 225.464 239.74C224.024 242.96 222.684 246.21 221.404 249.49C218.924 255.79 216.674 262.17 214.754 268.66C211.207 280.175 209.045 292.073 208.314 304.1C208.154 307.33 208.124 310.57 208.224 313.8C208.274 315.41 208.364 317.02 208.484 318.63C208.488 320.257 208.717 321.876 209.164 323.44C209.25 323.743 209.442 324.004 209.705 324.177C209.968 324.35 210.285 324.422 210.596 324.381C210.908 324.339 211.195 324.187 211.404 323.952C211.613 323.717 211.73 323.415 211.734 323.1C211.816 321.735 211.763 320.365 211.574 319.01C211.454 317.517 211.364 316.027 211.304 314.54C211.194 311.69 211.194 308.83 211.304 305.97C211.503 300.272 212.074 294.593 213.014 288.97C215.223 276.529 218.57 264.318 223.014 252.49C224.324 248.87 225.734 245.29 227.104 241.69C227.844 239.75 228.634 237.83 229.334 235.88C230.147 234.066 230.732 232.158 231.074 230.2C231.071 230.146 231.053 230.094 231.021 230.05C230.99 230.006 230.947 229.972 230.897 229.951C230.847 229.93 230.792 229.924 230.739 229.932C230.685 229.941 230.635 229.964 230.594 230L230.574 230.02Z" fill="white"/>
<path d="M347.645 261.79C347.085 263.87 347.275 266.26 347.204 268.42C347.134 270.58 347.104 272.88 346.954 275.12C346.674 279.58 346.324 284.03 345.694 288.46C344.521 296.622 342.777 304.692 340.474 312.61C337.132 324.176 332.741 335.413 327.354 346.18C326.615 347.66 325.848 349.12 325.054 350.56C324.782 351.028 324.561 351.524 324.395 352.04C324.395 352.16 324.324 352.27 324.294 352.39C324.085 353.25 324.474 352.06 324.384 352.21C324.228 352.509 324.193 352.856 324.286 353.18C324.379 353.504 324.593 353.779 324.884 353.949C325.175 354.119 325.52 354.171 325.848 354.093C326.176 354.014 326.461 353.813 326.645 353.53C326.745 353.36 325.764 354.41 326.524 353.71C326.594 353.65 326.654 353.57 326.714 353.51C327.042 353.177 327.321 352.8 327.544 352.39C328.224 351.22 328.835 350.01 329.444 348.8C331.634 344.51 333.634 340.13 335.494 335.69C341.491 321.665 345.662 306.928 347.904 291.84C348.594 286.93 349.074 282 349.274 277.05C349.384 274.46 349.334 271.87 349.274 269.29C349.184 266.89 349.154 264 348.224 261.79C348.208 261.731 348.173 261.679 348.124 261.641C348.075 261.604 348.016 261.584 347.954 261.584C347.893 261.584 347.833 261.604 347.785 261.641C347.736 261.679 347.701 261.731 347.684 261.79H347.645Z" fill="white"/>
<path d="M209.404 323.53C212.598 325.465 215.9 327.215 219.294 328.77C222.824 330.32 226.374 331.82 229.974 333.2C237.468 336.073 245.058 338.667 252.744 340.98C268.098 345.642 283.755 349.237 299.604 351.74C308.134 353.06 316.884 354.3 325.514 353.53C326.214 353.47 326.514 352.4 325.694 352.23C318.294 350.61 310.764 349.95 303.284 348.77C295.504 347.53 287.764 346.15 280.074 344.45C264.48 340.985 249.116 336.55 234.074 331.17C229.961 329.71 225.864 328.197 221.784 326.63C219.854 325.89 217.934 325.16 215.994 324.44C214.054 323.72 211.914 323.12 209.884 322.44C209.224 322.22 208.834 323.21 209.414 323.55L209.404 323.53Z" fill="white"/>
<path d="M252.394 174.32C252.905 173.965 253.327 173.496 253.624 172.95C253.954 172.44 254.254 171.95 254.564 171.4C255.244 170.29 255.854 169.15 256.474 168.01L258.344 164.61C259.094 163.533 259.656 162.336 260.004 161.07C260.032 160.873 260 160.673 259.913 160.495C259.826 160.316 259.688 160.168 259.516 160.068C259.345 159.969 259.148 159.922 258.95 159.935C258.752 159.948 258.562 160.019 258.404 160.14C257.556 161.119 256.88 162.235 256.404 163.44L254.644 166.91C254.054 168.07 253.444 169.22 252.914 170.4C252.664 170.95 252.394 171.5 252.164 172.06C251.853 172.617 251.684 173.242 251.674 173.88C251.677 173.969 251.703 174.056 251.749 174.132C251.794 174.208 251.859 174.272 251.936 174.316C252.014 174.36 252.101 174.383 252.19 174.384C252.279 174.385 252.366 174.363 252.444 174.32H252.394Z" fill="white"/>
<path d="M259.004 160.95C260.885 160.963 262.765 160.866 264.634 160.66C266.354 160.605 268.075 160.675 269.784 160.87C271.539 161.079 273.273 161.44 274.964 161.95C275.804 162.19 276.625 162.48 277.454 162.77C278.349 163.174 279.306 163.421 280.284 163.5C280.425 163.498 280.562 163.456 280.679 163.377C280.795 163.299 280.887 163.188 280.941 163.058C280.995 162.928 281.01 162.785 280.984 162.647C280.958 162.509 280.892 162.381 280.794 162.28C279.525 160.99 277.185 160.52 275.484 160.06C273.676 159.573 271.829 159.238 269.964 159.06C268.069 158.888 266.16 158.932 264.274 159.19C262.408 159.317 260.588 159.835 258.934 160.71C258.912 160.727 258.896 160.75 258.887 160.777C258.878 160.803 258.878 160.832 258.885 160.859C258.893 160.885 258.908 160.909 258.929 160.928C258.951 160.946 258.977 160.957 259.004 160.96V160.95Z" fill="white"/>
<path d="M279.254 163.78C278.578 164.635 278.045 165.594 277.674 166.62C277.194 167.79 276.674 168.94 276.284 170.12L275.004 173.65L274.444 175.18C274.194 175.86 273.824 176.59 274.294 177.28C274.447 177.522 274.673 177.71 274.938 177.818C275.203 177.926 275.496 177.947 275.774 177.88C277.004 177.48 277.224 175.64 277.584 174.54L278.714 170.99C279.094 169.79 279.424 168.59 279.714 167.38C280.049 166.35 280.215 165.273 280.204 164.19C280.202 164.075 280.166 163.964 280.101 163.87C280.036 163.775 279.945 163.702 279.838 163.658C279.732 163.615 279.616 163.603 279.503 163.625C279.391 163.646 279.287 163.7 279.204 163.78H279.254Z" fill="white"/>
<path d="M280.764 163.91C282.384 165.931 283.495 168.311 284.004 170.85C284.282 172.164 284.379 173.51 284.294 174.85C284.257 175.45 284.153 176.043 283.984 176.62C283.824 177.18 283.524 177.62 283.334 178.17C283.271 178.405 283.287 178.655 283.38 178.88C283.472 179.106 283.636 179.294 283.847 179.417C284.057 179.54 284.302 179.59 284.544 179.56C284.786 179.53 285.011 179.421 285.184 179.25C286.184 178.25 286.334 176.37 286.364 175.02C286.387 173.436 286.181 171.856 285.754 170.33C285.094 167.86 283.754 164.22 280.964 163.53C280.922 163.522 280.878 163.528 280.839 163.546C280.8 163.563 280.767 163.593 280.746 163.63C280.724 163.667 280.714 163.71 280.717 163.753C280.721 163.796 280.737 163.837 280.764 163.87V163.91Z" fill="white"/>
<path d="M356.624 199.06C356.963 198.595 357.145 198.035 357.145 197.46C357.224 196.86 357.254 196.24 357.314 195.63C357.404 194.63 357.424 193.53 357.454 192.48L357.574 189.36C357.755 188.11 357.697 186.838 357.404 185.61C357.329 185.427 357.201 185.27 357.036 185.159C356.872 185.049 356.678 184.99 356.479 184.99C356.281 184.99 356.087 185.049 355.923 185.159C355.758 185.27 355.63 185.427 355.554 185.61C355.225 186.831 355.13 188.104 355.274 189.36V192.48C355.274 193.48 355.274 194.59 355.274 195.63C355.274 196.24 355.274 196.86 355.374 197.46C355.366 198.03 355.534 198.589 355.854 199.06C355.951 199.153 356.08 199.205 356.214 199.205C356.349 199.205 356.478 199.153 356.574 199.06H356.624Z" fill="white"/>
<path d="M356.594 185.8C355.554 184.219 354.191 182.876 352.594 181.86C351.087 180.749 349.46 179.81 347.744 179.06C346.081 178.338 344.362 177.753 342.604 177.31C341.617 177.051 340.615 176.847 339.604 176.7C338.622 176.453 337.597 176.429 336.604 176.63C336.472 176.671 336.354 176.749 336.264 176.855C336.174 176.961 336.117 177.09 336.098 177.228C336.079 177.365 336.1 177.505 336.158 177.631C336.215 177.758 336.308 177.865 336.424 177.94C337.249 178.325 338.137 178.559 339.044 178.63C339.944 178.79 340.844 178.93 341.734 179.13C343.478 179.505 345.187 180.024 346.844 180.68C348.462 181.335 350.027 182.114 351.524 183.01C353.061 184.103 354.661 185.104 356.314 186.01C356.434 186.07 356.574 185.95 356.494 185.83L356.594 185.8Z" fill="white"/>
<path d="M336.284 178.58C335.772 179.46 335.41 180.42 335.214 181.42C334.934 182.57 334.655 183.73 334.424 184.89L333.754 188.29L333.434 189.87C333.304 190.54 333.024 191.32 333.434 191.93C333.615 192.226 333.903 192.441 334.238 192.53C334.574 192.62 334.93 192.577 335.234 192.41C336.234 191.74 336.164 190.2 336.334 189.11L336.895 185.48C337.085 184.26 337.224 183.03 337.364 181.8C337.523 180.778 337.506 179.736 337.314 178.72C337.281 178.613 337.217 178.518 337.131 178.446C337.045 178.373 336.94 178.327 336.829 178.313C336.718 178.298 336.605 178.315 336.503 178.363C336.401 178.41 336.315 178.485 336.254 178.58H336.284Z" fill="white"/>
<path d="M336.004 177.71C334.719 177.438 333.379 177.675 332.264 178.37C330.937 179.118 329.731 180.062 328.684 181.17C327.61 182.26 326.704 183.504 325.994 184.86C325.658 185.496 325.39 186.167 325.194 186.86C324.959 187.562 324.901 188.31 325.024 189.04C325.294 190.04 326.964 190.15 327.164 189.04C327.207 188.708 327.23 188.374 327.234 188.04C327.234 188.04 327.234 187.64 327.234 187.82C327.234 187.66 327.284 187.5 327.314 187.35C327.436 186.809 327.607 186.28 327.824 185.77C328.366 184.56 329.08 183.435 329.944 182.43C331.572 180.526 333.629 179.035 335.944 178.08C335.989 178.07 336.028 178.045 336.056 178.01C336.085 177.974 336.1 177.93 336.1 177.885C336.1 177.84 336.085 177.796 336.056 177.76C336.028 177.725 335.989 177.7 335.944 177.69L336.004 177.71Z" fill="white"/>
<path d="M313.844 221.64C313 224.954 311.191 227.943 308.647 230.228C306.103 232.513 302.938 233.992 299.553 234.478C296.168 234.963 292.715 234.433 289.631 232.955C286.547 231.477 283.971 229.117 282.229 226.174C280.487 223.232 279.658 219.838 279.846 216.423C280.034 213.009 281.23 209.727 283.285 206.993C285.339 204.259 288.158 202.196 291.385 201.065C294.613 199.934 298.103 199.786 301.414 200.64C305.845 201.78 309.643 204.631 311.974 208.569C314.304 212.506 314.977 217.207 313.844 221.64Z" fill="white"/>
<path d="M288.514 221.88C289.613 220.939 290.658 219.937 291.645 218.88C293.645 216.88 295.514 214.73 297.395 212.62L298.764 211.09C299.254 210.54 300.025 209.88 299.764 209.09C299.465 208 298.234 208.26 297.624 208.88C297.174 209.34 296.774 209.88 296.344 210.36C294.484 212.52 292.604 214.68 290.824 216.91C289.653 218.284 288.565 219.727 287.564 221.23C287.194 221.82 288.004 222.34 288.484 221.94L288.514 221.88Z" fill="white"/>
<path d="M298.064 208.74C298.394 212.1 299.064 215.44 299.734 218.74L300.534 222.74C300.602 223.139 300.695 223.533 300.814 223.92C300.876 224.104 300.957 224.282 301.054 224.45V224.53C301.514 225.23 300.974 224.34 300.964 224.3C301.274 225.73 303.464 225.12 303.154 223.7V224.3C303.28 223.532 303.197 222.745 302.914 222.02L301.974 218.09C301.269 214.862 300.401 211.671 299.374 208.53C299.134 207.84 297.944 207.89 298.024 208.71L298.064 208.74Z" fill="white"/>
<path d="M240.304 268.05C245.374 269.61 250.724 270.45 255.894 271.61C261.064 272.77 266.294 274.02 271.474 275.3C281.834 277.873 292.124 280.697 302.344 283.77C305.134 284.61 307.914 285.46 310.694 286.34L314.854 287.67C316.362 288.249 317.914 288.707 319.494 289.04C320.644 289.21 321.564 287.65 320.354 287.04C318.024 285.8 315.244 285.2 312.744 284.41C310.244 283.62 307.644 282.82 305.094 282.04C299.901 280.467 294.698 278.963 289.484 277.53C279.164 274.69 268.808 272.107 258.414 269.78C255.414 269.12 252.414 268.47 249.414 267.88C246.49 267.219 243.532 266.712 240.554 266.36C239.554 266.27 239.434 267.77 240.324 268.05H240.304Z" fill="white"/>
<path d="M235.884 290.96C245.344 295.59 255.615 298.7 265.734 301.51C276.161 304.426 286.74 306.763 297.424 308.51C303.234 309.51 309.074 310.21 314.944 310.7C316.474 310.83 316.464 308.44 314.944 308.31C293.814 306.54 272.944 301.6 252.784 295.26C247.274 293.53 241.784 291.62 236.284 289.98C235.724 289.81 235.344 290.67 235.884 290.93V290.96Z" fill="white"/>
<path d="M240.004 267.01C235.714 273.6 234.054 281.62 233.924 289.4C233.924 289.766 234.07 290.117 234.329 290.376C234.587 290.635 234.938 290.78 235.304 290.78C235.67 290.78 236.021 290.635 236.28 290.376C236.539 290.117 236.684 289.766 236.684 289.4C236.864 281.85 238.794 274.62 241.044 267.45C241.06 267.328 241.035 267.205 240.975 267.098C240.914 266.991 240.821 266.907 240.708 266.857C240.596 266.808 240.471 266.796 240.351 266.824C240.232 266.851 240.124 266.916 240.044 267.01H240.004Z" fill="white"/>
<path d="M319.324 287.74C318.976 291.434 318.425 295.106 317.674 298.74C317.264 300.48 316.784 302.19 316.204 303.88C315.914 304.72 315.594 305.55 315.254 306.37C314.914 307.19 314.254 308.18 314.614 309.19C314.667 309.368 314.76 309.531 314.884 309.669C315.009 309.806 315.163 309.914 315.335 309.984C315.506 310.054 315.692 310.085 315.877 310.074C316.062 310.062 316.242 310.01 316.404 309.92C317.404 309.52 317.625 308.41 317.984 307.52C318.344 306.63 318.715 305.62 318.984 304.65C319.586 302.84 320.054 300.988 320.384 299.11C321.162 295.308 321.217 291.393 320.544 287.57C320.384 286.8 319.364 287.09 319.284 287.74H319.324Z" fill="white"/>
<path d="M234.274 290.08C233.508 291.361 232.92 292.741 232.524 294.18C231.994 295.74 231.524 297.32 231.064 298.9C230.174 301.99 229.434 305.11 228.804 308.26C227.549 314.528 226.74 320.877 226.384 327.26C226.284 328.93 228.894 328.93 228.994 327.26C229.338 320.957 230.12 314.685 231.334 308.49C231.924 305.49 232.614 302.49 233.334 299.55C233.714 298.03 234.144 296.55 234.574 295.01C235.09 293.538 235.448 292.017 235.644 290.47C235.644 289.67 234.644 289.52 234.234 290.09L234.274 290.08Z" fill="white"/>
<path d="M314.145 309.03C313.234 312.24 313.094 315.72 312.534 319.03C311.974 322.34 311.264 325.69 310.434 328.97C309.604 332.25 308.645 335.51 307.544 338.72C307.025 340.247 306.471 341.767 305.884 343.28C305.254 344.91 304.395 346.53 303.884 348.21C303.807 348.49 303.834 348.79 303.96 349.052C304.087 349.314 304.304 349.521 304.572 349.635C304.84 349.748 305.14 349.761 305.416 349.67C305.693 349.579 305.927 349.391 306.074 349.14C306.877 347.614 307.547 346.021 308.074 344.38C308.674 342.8 309.254 341.2 309.794 339.6C310.895 336.307 311.858 332.973 312.684 329.6C313.494 326.31 314.144 322.97 314.684 319.6C315.224 316.23 315.914 312.6 315.494 309.21C315.485 309.046 315.419 308.89 315.307 308.77C315.195 308.649 315.045 308.571 314.883 308.548C314.72 308.526 314.554 308.56 314.414 308.647C314.274 308.733 314.168 308.865 314.114 309.02L314.145 309.03Z" fill="white"/>
<path d="M247.354 272.52C245.439 277.987 244.426 283.728 244.354 289.52L247.354 272.52Z" fill="white"/>
<path d="M252.004 275.68C250.342 281.064 249.186 286.591 248.554 292.19L252.004 275.68Z" fill="white"/>
<path d="M259.064 276.27C256.686 281.755 255.145 287.567 254.494 293.51L259.064 276.27Z" fill="white"/>
<path d="M265.145 276.27C263.604 282.503 262.058 288.727 260.504 294.94L265.145 276.27Z" fill="white"/>
<path d="M276.004 280.57L271.294 297.73L276.004 280.57Z" fill="white"/>
<path d="M287.404 283.2C286.91 289.241 285.771 295.212 284.004 301.01L287.404 283.2Z" fill="white"/>
<path d="M293.344 285.03C292.084 291.03 290.828 297.03 289.574 303.03L293.344 285.03Z" fill="white"/>
<path d="M313.614 289.03C312.938 294.449 311.807 299.801 310.234 305.03L313.614 289.03Z" fill="white"/>
<path d="M249.184 180.61L247.484 184.91L249.184 180.61Z" fill="white"/>
<path d="M244.524 192.74L242.674 197.6L244.524 192.74Z" fill="white"/>
<path d="M238.604 212.56L237.164 219.27L238.604 212.56Z" fill="white"/>
<path d="M236.534 223.89C236.414 224.75 236.284 225.61 236.164 226.47L236.534 223.89Z" fill="white"/>
<path d="M357.824 206.17C357.504 208.557 357.188 210.947 356.874 213.34L357.824 206.17Z" fill="white"/>
<path d="M355.284 223.27L354.414 228.98L355.284 223.27Z" fill="white"/>
<path d="M234.004 324.95L239.004 327.4L234.004 324.95Z" fill="white"/>
<path d="M242.824 228.45L248.164 230.72L242.824 228.45Z" fill="white"/>
<path d="M269.534 238.66L275.584 240.5L269.534 238.66Z" fill="white"/>
<path d="M284.145 244.09L288.145 244.8L284.145 244.09Z" fill="white"/>
<path d="M308.184 249.72L315.274 252.13L308.184 249.72Z" fill="white"/>
<path d="M323.484 253.57L327.244 253.94L323.484 253.57Z" fill="white"/>
<path d="M337.104 255.97L341.904 256.9L337.104 255.97Z" fill="white"/>
<path d="M277.794 171.96L282.374 173.73L277.794 171.96Z" fill="white"/>
<path d="M280.404 168.72L284.514 170.05L280.404 168.72Z" fill="white"/>
<path d="M328.734 184.76C330.776 185.054 332.712 185.855 334.364 187.09L328.734 184.76Z" fill="white"/>
<path d="M331.624 181.62C333.475 182.104 335.167 183.062 336.534 184.4L331.624 181.62Z" fill="white"/>
<path d="M280.645 339.6L284.594 340.35L280.645 339.6Z" fill="white"/>
<path d="M293.304 342.27L296.984 342.92L293.304 342.27Z" fill="white"/>
<path d="M242.554 294.27C243.304 298.55 239.094 301.54 238.204 305.43C237.947 306.769 238.065 308.153 238.544 309.43C238.944 310.56 239.644 311.99 240.874 312.38C240.979 312.41 241.091 312.405 241.192 312.365C241.294 312.324 241.379 312.251 241.434 312.157C241.489 312.063 241.511 311.953 241.497 311.845C241.482 311.737 241.432 311.636 241.354 311.56C240.371 310.666 239.675 309.5 239.354 308.21C239.017 306.64 239.285 305.001 240.104 303.62C241.664 300.62 244.324 297.62 243.314 294.02C243.174 293.49 242.424 293.72 242.514 294.24L242.554 294.27Z" fill="white"/>
<path d="M247.764 295.27C245.284 297.77 245.924 301.41 245.954 304.6C246.119 306.306 245.614 308.01 244.544 309.35C243.57 310.436 242.291 311.203 240.874 311.55C240.434 311.68 240.374 312.41 240.874 312.5C242.234 312.77 243.654 311.77 244.624 310.91C245.768 309.954 246.568 308.652 246.904 307.2C247.594 303.56 245.784 299.01 248.354 295.85C248.684 295.45 248.154 294.85 247.764 295.27Z" fill="white"/>
<path d="M243.714 304.74C243.725 304.641 243.71 304.541 243.672 304.45C243.634 304.358 243.573 304.277 243.495 304.216C243.417 304.154 243.325 304.112 243.227 304.096C243.129 304.079 243.028 304.087 242.934 304.12L242.844 304.18C242.723 304.148 242.593 304.163 242.482 304.222C242.37 304.282 242.286 304.381 242.244 304.5L242.154 304.75C241.915 305.04 241.758 305.388 241.7 305.76C241.642 306.131 241.685 306.511 241.824 306.86C241.824 306.91 241.824 306.96 241.824 307C241.824 307.63 242.664 307.62 242.914 307.17C243.344 306.423 243.616 305.596 243.714 304.74Z" fill="white"/>
<path d="M252.694 240.52C252.446 240.598 252.215 240.724 252.014 240.89C251.86 241.068 251.717 241.255 251.584 241.45L251.004 242.27C250.574 242.85 250.224 243.48 249.854 244.09L248.784 245.87C248.284 246.71 247.524 247.62 247.844 248.66C247.966 249.072 248.242 249.42 248.615 249.633C248.988 249.846 249.428 249.905 249.844 249.8C250.157 249.7 250.443 249.529 250.68 249.302C250.917 249.076 251.1 248.798 251.214 248.49L251.614 247.6L252.504 245.6C252.851 244.91 253.162 244.202 253.434 243.48L253.754 242.48C253.822 242.31 253.878 242.137 253.924 241.96C253.989 241.697 253.989 241.423 253.924 241.16C253.85 240.916 253.685 240.71 253.464 240.584C253.243 240.458 252.982 240.42 252.734 240.48L252.694 240.52Z" fill="white"/>
<path d="M260.494 243.98C261.064 242.19 259.124 241.21 257.764 241.8C257.332 241.466 256.801 241.286 256.254 241.29C256.084 241.006 255.851 240.765 255.573 240.584C255.296 240.404 254.981 240.289 254.652 240.248C254.323 240.208 253.99 240.243 253.676 240.351C253.363 240.458 253.079 240.636 252.844 240.87C252.588 241.189 252.351 241.523 252.134 241.87C252.132 241.398 252.044 240.93 251.874 240.49C251.82 240.315 251.706 240.165 251.553 240.064C251.4 239.964 251.217 239.92 251.034 239.94C250.925 239.793 250.78 239.676 250.614 239.6C250.448 239.523 250.265 239.489 250.082 239.501C249.899 239.513 249.722 239.57 249.567 239.668C249.412 239.766 249.284 239.9 249.194 240.06C248.458 241.66 247.846 243.315 247.364 245.01C246.844 246.5 245.864 247.78 246.744 249.26C246.876 249.478 247.082 249.641 247.324 249.72C247.492 249.923 247.683 250.104 247.894 250.26C250.217 251.913 253.055 252.679 255.894 252.42C256.367 252.406 256.823 252.24 257.194 251.946C257.566 251.653 257.832 251.247 257.954 250.79L258.044 250.2C258.443 249.943 258.737 249.553 258.874 249.1L260.494 243.98Z" fill="white"/>
<path d="M316.334 258.34C316.694 256.49 318.874 256.57 319.774 257.74C320.314 257.655 320.867 257.753 321.344 258.02C321.631 257.855 321.952 257.758 322.282 257.735C322.612 257.712 322.943 257.764 323.25 257.887C323.556 258.01 323.832 258.202 324.054 258.446C324.277 258.691 324.441 258.983 324.534 259.3C324.616 259.686 324.669 260.077 324.694 260.47C324.932 260.062 325.236 259.697 325.594 259.39C325.726 259.263 325.898 259.185 326.08 259.171C326.263 259.156 326.444 259.205 326.594 259.31C326.762 259.236 326.946 259.204 327.129 259.218C327.312 259.232 327.489 259.291 327.644 259.39C327.798 259.489 327.926 259.625 328.015 259.786C328.104 259.946 328.152 260.126 328.154 260.31C328.021 262.07 327.757 263.819 327.364 265.54C327.104 267.09 327.365 268.68 325.854 269.54C325.636 269.663 325.381 269.706 325.134 269.66C324.887 269.757 324.628 269.821 324.364 269.85C321.528 270.17 318.671 269.461 316.314 267.85C315.912 267.606 315.597 267.239 315.417 266.804C315.238 266.369 315.202 265.887 315.314 265.43L315.524 264.87C315.299 264.455 315.228 263.973 315.324 263.51C315.645 261.82 316.004 260.08 316.334 258.34Z" fill="white"/>
<path d="M194.454 303.2C193.567 301.628 192.599 300.103 191.554 298.63C190.414 297.143 189.156 295.748 187.794 294.46C185.041 291.855 181.929 289.656 178.554 287.93C171.278 284.168 163.034 282.694 154.904 283.7C150.182 284.315 145.597 285.725 141.344 287.87C139.634 288.74 141.134 291.17 142.834 290.41C149.999 287.217 157.908 286.072 165.684 287.1C172.706 288.115 179.354 290.899 185.004 295.19C186.578 296.369 188.072 297.652 189.474 299.03C191.029 300.419 192.454 301.945 193.734 303.59C194.024 304 194.684 303.59 194.414 303.2H194.454Z" fill="white"/>
<path d="M179.654 301.56C173.828 300.62 167.854 301.362 162.434 303.7C157.164 305.99 151.564 309.7 149.184 315.14C149.102 315.248 149.041 315.371 149.006 315.502C148.971 315.633 148.962 315.77 148.979 315.904C148.997 316.039 149.041 316.169 149.109 316.286C149.176 316.404 149.267 316.507 149.374 316.59C149.482 316.673 149.605 316.733 149.736 316.769C149.867 316.804 150.004 316.813 150.139 316.795C150.273 316.778 150.403 316.734 150.521 316.666C150.639 316.598 150.742 316.508 150.824 316.4C154.904 312.73 158.604 308.92 163.624 306.49C168.557 304.061 173.986 302.811 179.484 302.84C180.194 302.84 180.394 301.68 179.654 301.56Z" fill="white"/>
<path d="M140.004 323.85L139.944 323.57C139.924 323.416 139.876 323.267 139.804 323.13C139.714 322.97 139.604 322.81 139.504 322.65C139.408 322.496 139.259 322.382 139.084 322.33H138.894C138.804 322.32 138.712 322.341 138.634 322.39C138.572 322.4 138.515 322.432 138.474 322.48C138.398 322.525 138.335 322.591 138.294 322.67C138.202 322.834 138.177 323.028 138.224 323.21C138.274 323.39 138.314 323.58 138.374 323.76C138.424 323.905 138.498 324.041 138.594 324.16L138.754 324.39C138.847 324.544 138.993 324.658 139.164 324.71H139.344C139.439 324.721 139.534 324.7 139.614 324.65C139.672 324.64 139.724 324.612 139.764 324.57C139.836 324.518 139.895 324.449 139.934 324.37C139.98 324.292 140.01 324.206 140.022 324.117C140.034 324.028 140.028 323.937 140.004 323.85Z" fill="white"/>
<path d="M128.504 302.27C128.833 302.241 129.14 302.09 129.363 301.847C129.586 301.603 129.71 301.285 129.71 300.955C129.71 300.625 129.586 300.307 129.363 300.063C129.14 299.82 128.833 299.669 128.504 299.64C128.176 299.669 127.869 299.82 127.646 300.063C127.423 300.307 127.299 300.625 127.299 300.955C127.299 301.285 127.423 301.603 127.646 301.847C127.869 302.09 128.176 302.241 128.504 302.27Z" fill="white"/>
<path d="M192.634 314.81C189.204 313.9 185.474 315.03 182.634 316.96C179.47 318.917 177.165 322.001 176.184 325.59C176.092 325.946 176.13 326.323 176.292 326.653C176.453 326.983 176.727 327.244 177.064 327.39C177.402 327.536 177.782 327.553 178.132 327.439C178.482 327.325 178.778 327.087 178.964 326.77C180.171 323.931 182.06 321.433 184.464 319.5C186.943 317.744 189.732 316.475 192.684 315.76C192.79 315.733 192.884 315.672 192.951 315.586C193.018 315.5 193.054 315.394 193.054 315.285C193.054 315.176 193.018 315.07 192.951 314.984C192.884 314.898 192.79 314.837 192.684 314.81H192.634Z" fill="white"/>
<path d="M168.504 344.46C171.074 344.46 171.084 340.46 168.504 340.46C165.924 340.46 165.924 344.46 168.504 344.46Z" fill="white"/>
<path d="M103.264 299L98.5245 298.23L95.8945 302.26L95.1645 297.51L90.5245 296.26L94.8145 294.09L94.5745 289.29L97.9545 292.7L102.444 290.99L100.254 295.26L103.264 299Z" fill="white"/>
<path d="M123.414 328.71L125.484 333.04L130.284 332.91L126.804 336.22L128.414 340.74L124.194 338.45L120.394 341.39L121.264 336.66L117.294 333.95L122.054 333.32L123.414 328.71Z" fill="white"/>
<path d="M153.854 339.77C153.792 339.998 153.768 340.234 153.784 340.47C153.794 340.647 153.865 340.815 153.985 340.945C154.105 341.075 154.266 341.159 154.442 341.183C154.617 341.207 154.795 341.168 154.946 341.075C155.096 340.981 155.209 340.838 155.264 340.67C155.352 340.45 155.399 340.216 155.404 339.98C155.403 339.79 155.333 339.607 155.208 339.464C155.082 339.321 154.909 339.228 154.721 339.203C154.532 339.177 154.341 339.221 154.182 339.325C154.023 339.429 153.906 339.587 153.854 339.77Z" fill="white"/>
<path d="M88.9445 327.96C88.9445 327.711 88.8455 327.472 88.6692 327.295C88.4929 327.119 88.2538 327.02 88.0045 327.02C87.7552 327.02 87.5161 327.119 87.3398 327.295C87.1635 327.472 87.0645 327.711 87.0645 327.96C87.0308 328.159 87.0421 328.362 87.0975 328.556C87.1528 328.75 87.2509 328.929 87.3845 329.08C87.5493 329.244 87.7722 329.335 88.0045 329.335C88.2368 329.335 88.4596 329.244 88.6245 329.08C88.7563 328.928 88.8532 328.749 88.9084 328.555C88.9637 328.362 88.976 328.159 88.9445 327.96Z" fill="white"/>
<path d="M105.664 346.33C105.408 345.626 105.01 344.983 104.494 344.44C103.964 343.87 102.834 344.44 103.134 345.23C103.391 345.931 103.785 346.574 104.294 347.12C104.824 347.69 106.004 347.1 105.664 346.33Z" fill="white"/>
<path d="M105.004 316.71C104.872 316.711 104.742 316.748 104.627 316.815C104.513 316.882 104.418 316.978 104.352 317.094C104.287 317.209 104.252 317.339 104.253 317.472C104.253 317.605 104.288 317.735 104.354 317.85C104.444 317.95 104.474 317.99 104.424 317.96C104.424 318.114 104.486 318.261 104.594 318.37C104.703 318.479 104.851 318.54 105.004 318.54C105.158 318.54 105.306 318.479 105.415 318.37C105.523 318.261 105.584 318.114 105.584 317.96C105.584 317.96 105.584 317.96 105.654 317.85C105.721 317.735 105.756 317.605 105.756 317.472C105.757 317.339 105.722 317.209 105.657 317.094C105.591 316.978 105.496 316.882 105.382 316.815C105.267 316.748 105.137 316.711 105.004 316.71Z" fill="white"/>
<path d="M360.514 321.62C364.125 322.069 367.578 323.368 370.588 325.411C373.599 327.453 376.083 330.181 377.834 333.37C378.984 335.48 379.574 337.79 380.574 339.96C380.995 340.87 382.275 340.33 382.324 339.49C382.484 336.82 381.245 334.24 379.854 332.02C378.473 329.802 376.74 327.823 374.724 326.16C370.724 322.845 365.709 321 360.514 320.93C360.064 320.93 360.085 321.58 360.514 321.62Z" fill="white"/>
<path d="M361.634 309.4C363.844 308.83 365.884 307.7 368.074 307.06C372.472 305.685 377.119 305.296 381.684 305.92C384.034 306.25 386.294 306.92 388.684 307.21C389.914 307.35 390.054 305.68 389.254 305.11C387.12 303.738 384.668 302.939 382.134 302.79C377.173 302.182 372.139 302.832 367.494 304.68C365.284 305.61 362.774 306.79 361.274 308.68C361.21 308.743 361.168 308.826 361.155 308.916C361.142 309.005 361.16 309.096 361.204 309.175C361.249 309.254 361.318 309.316 361.401 309.351C361.484 309.386 361.577 309.393 361.664 309.37L361.634 309.4Z" fill="white"/>
<path d="M358.645 298.14C359.177 297.612 359.671 297.047 360.124 296.45C360.614 295.86 361.124 295.28 361.624 294.73C362.682 293.618 363.807 292.572 364.994 291.6C367.35 289.699 369.997 288.193 372.834 287.14C373.132 287.051 373.384 286.851 373.537 286.58C373.69 286.31 373.732 285.991 373.654 285.69C373.568 285.391 373.368 285.137 373.097 284.984C372.826 284.831 372.505 284.79 372.204 284.87C369.076 286.041 366.191 287.78 363.694 290C362.495 291.072 361.409 292.265 360.454 293.56C359.995 294.2 359.534 294.86 359.134 295.56C358.686 296.268 358.349 297.04 358.134 297.85C358.12 297.914 358.126 297.982 358.152 298.042C358.178 298.103 358.222 298.154 358.279 298.187C358.336 298.221 358.402 298.235 358.468 298.229C358.534 298.222 358.596 298.194 358.645 298.15V298.14Z" fill="white"/>
<path d="M386.004 283.62C388.774 283.62 388.774 279.31 386.004 279.31C383.234 279.31 383.234 283.62 386.004 283.62Z" fill="white"/>
<path d="M397.504 310.15C400.314 310.15 400.324 305.78 397.504 305.78C394.684 305.78 394.684 310.15 397.504 310.15Z" fill="white"/>
<path d="M387.414 351.46V351.21C387.431 350.891 387.362 350.573 387.214 350.29C387.103 350.001 386.933 349.739 386.714 349.52C386.496 349.301 386.233 349.131 385.944 349.02C385.661 348.873 385.343 348.804 385.024 348.82L384.384 348.9C383.988 349.015 383.627 349.228 383.334 349.52L382.954 350C382.745 350.369 382.635 350.786 382.634 351.21V351.46C382.629 351.935 382.768 352.4 383.032 352.795C383.296 353.189 383.673 353.494 384.114 353.67C384.4 353.821 384.722 353.89 385.044 353.87L385.684 353.79C386.085 353.678 386.45 353.464 386.744 353.17L387.124 352.68C387.342 352.311 387.456 351.889 387.454 351.46H387.414Z" fill="white"/>
<path d="M420.624 331.32L420.204 336.1L424.404 338.43L419.724 339.51L418.804 344.22L416.334 340.1L411.574 340.69L414.724 337.07L412.694 332.72L417.114 334.6L420.624 331.32Z" fill="white"/>
<path d="M418.934 278.47L414.964 281.17L415.824 285.89L412.024 282.95L407.794 285.23L409.424 280.71L405.954 277.39L410.754 277.54L412.834 273.21L414.184 277.82L418.934 278.47Z" fill="white"/>
<path d="M416.004 314.81H415.904C415.784 314.741 415.648 314.705 415.51 314.705C415.371 314.705 415.235 314.742 415.115 314.811C414.995 314.881 414.896 314.98 414.827 315.1C414.757 315.22 414.721 315.356 414.721 315.495C414.721 315.634 414.757 315.77 414.827 315.89C414.896 316.01 414.995 316.109 415.115 316.179C415.235 316.248 415.371 316.285 415.51 316.285C415.648 316.285 415.784 316.249 415.904 316.18H416.004C416.186 316.18 416.36 316.108 416.489 315.979C416.617 315.851 416.689 315.677 416.689 315.495C416.689 315.313 416.617 315.139 416.489 315.011C416.36 314.882 416.186 314.81 416.004 314.81Z" fill="white"/>
<path d="M425.004 299.65C424.804 299.672 424.619 299.768 424.484 299.918C424.349 300.068 424.275 300.263 424.275 300.465C424.275 300.667 424.349 300.862 424.484 301.012C424.619 301.162 424.804 301.258 425.004 301.28C425.205 301.258 425.39 301.162 425.525 301.012C425.66 300.862 425.734 300.667 425.734 300.465C425.734 300.263 425.66 300.068 425.525 299.918C425.39 299.768 425.205 299.672 425.004 299.65Z" fill="white"/>
<path d="M438.004 331.43C437.004 331.43 437.004 333.5 438.004 333.5C440.004 333.5 440.004 331.43 438.004 331.43Z" fill="white"/>
<path d="M352.354 347.85C351.82 348.41 351.522 349.156 351.524 349.93C351.524 350.127 351.588 350.319 351.707 350.477C351.827 350.634 351.994 350.747 352.184 350.8C352.373 350.835 352.567 350.814 352.745 350.742C352.922 350.669 353.075 350.547 353.184 350.39C353.613 349.837 353.826 349.148 353.784 348.45C353.78 348.286 353.729 348.127 353.637 347.992C353.544 347.856 353.415 347.751 353.264 347.687C353.113 347.624 352.946 347.606 352.785 347.634C352.624 347.663 352.474 347.738 352.354 347.85Z" fill="white"/>
</g>
</svg>
