<svg width="52" height="50" viewBox="0 0 52 50" fill="none" xmlns="http://www.w3.org/2000/svg">
<g clip-path="url(#clip0_37_10058)">
<path d="M22.2595 49.0944C15.0037 45.784 7.55332 44.8049 0 44.1708V2.29102C0.234998 2.61856 0.396299 2.81823 0.535351 3.04068C1.93422 5.26691 3.3456 7.47913 4.70692 9.73864C4.97112 10.1765 5.16579 10.8053 5.16718 11.3483C5.19499 19.5299 5.19499 27.7114 5.16579 35.8929C5.16162 36.8808 5.27843 37.3064 6.18783 37.4308C10.5332 38.0333 14.8605 38.7988 19.0015 40.7062C19.5285 40.9497 19.8094 41.314 20.0068 41.9603C20.7146 44.2934 21.4683 46.6037 22.2595 49.0944Z" fill="#DD0000"/>
<path d="M52 2.27344V44.1707C44.4717 44.8083 37.0254 45.7664 29.8086 49.0786C29.8837 48.7616 29.931 48.4866 30.013 48.2308C30.6805 46.1237 31.3715 44.0289 32.0167 41.9112C32.2031 41.2982 32.4756 40.9531 32.9693 40.7237C36.3746 39.149 39.9191 38.3783 43.4927 37.767C44.3326 37.6234 45.1739 37.4307 46.0179 37.394C46.6937 37.3659 46.8342 37.0244 46.8328 36.2379C46.8119 28.0546 46.8286 19.8731 46.8077 11.6898C46.805 10.8403 46.969 10.173 47.4001 9.51088C48.7739 7.39149 50.1019 5.22131 51.4507 3.0739C51.5939 2.84445 51.7524 2.63251 52 2.27344Z" fill="#DD0000"/>
<path d="M23.1438 28.1073C23.1327 29.5839 23.7194 30.6138 24.7387 31.3214C24.9848 31.4913 25.2935 31.8942 25.2949 32.192C25.3269 37.9686 25.3186 43.7452 25.3144 49.5219C25.3144 49.6042 25.2754 49.6883 25.1962 50.0001C24.5857 48.0979 24.0323 46.3901 23.49 44.6771C21.5447 38.5484 19.5952 32.4197 17.6748 26.2769C17.5358 25.8285 17.5094 25.2313 17.6123 24.7689C18.2241 22.0417 18.8721 19.3285 19.5493 16.6259C19.7134 15.9743 19.6202 15.6205 19.178 15.2176C15.6739 12.0245 11.7554 9.98919 7.62275 8.51964C7.22645 8.37951 6.81069 8.0327 6.54927 7.6316C5.17126 5.51571 3.83914 3.35254 2.49311 1.20338C2.29983 0.895101 2.11906 0.574566 1.86182 0.138428C8.49878 0.600839 14.4405 3.17913 19.8872 7.60182C21.5335 8.93826 23.1048 10.4218 24.7192 11.8213C25.1447 12.1909 25.3394 12.6148 25.3325 13.3102C25.3019 16.815 25.3088 20.3216 25.3283 23.8283C25.3325 24.4308 25.2282 24.7618 24.7415 25.0281C23.7069 25.5938 23.1549 26.6745 23.1438 28.1073Z" fill="#DD0000"/>
<path d="M50.1062 0.229454C49.8865 0.588524 49.6681 0.949345 49.4457 1.30666C48.1163 3.4313 46.8009 5.56996 45.4423 7.66482C45.1962 8.04316 44.8055 8.37245 44.4314 8.50382C40.3197 9.95236 36.429 11.9859 32.9249 15.1142C32.4062 15.5766 32.2866 15.9847 32.4855 16.7607C33.1696 19.4265 33.7912 22.1169 34.4072 24.8073C34.4948 25.1909 34.524 25.6831 34.4113 26.0422C31.9418 33.8857 29.4485 41.7169 26.9581 49.5499C26.9317 49.6357 26.8789 49.711 26.7676 49.9317C26.7273 49.5954 26.6842 49.3957 26.6842 49.196C26.68 43.6173 26.6884 38.0386 26.6717 32.4616C26.6689 31.8486 26.7954 31.5351 27.271 31.2688C28.2986 30.6908 28.852 29.6154 28.8617 28.1791C28.8701 26.6955 28.3028 25.606 27.2418 25.0123C26.7982 24.7635 26.6689 24.4763 26.6717 23.9C26.6898 20.3268 26.6703 16.7519 26.6981 13.1787C26.7009 12.8039 26.8469 12.2942 27.068 12.077C32.2199 7.03426 37.7402 2.87781 44.2201 1.16479C46.1293 0.658586 48.0774 0.38184 50.0074 0C50.0394 0.0770686 50.0728 0.152386 50.1062 0.229454Z" fill="#DD0000"/>
</g>
<defs>
<clipPath id="clip0_37_10058">
<rect width="52" height="50" fill="white"/>
</clipPath>
</defs>
</svg>
