<svg width="90" height="90" viewBox="0 0 90 90" fill="none" xmlns="http://www.w3.org/2000/svg">
<path d="M0 4C0 1.79086 1.79086 0 4 0H86C88.2091 0 90 1.79086 90 4V86C90 88.2091 88.2091 90 86 90H4C1.79086 90 0 88.2091 0 86V4Z" fill="#00CBB8" fill-opacity="0.3"/>
<path d="M48.75 49.4375V46.625H60V55.0625C60 56.5859 58.6523 57.875 57.1875 57.875H32.8125C31.2891 57.875 30 56.5859 30 55.0625V46.625H41.25V49.4375C41.25 49.9648 41.6602 50.375 42.1875 50.375H47.8125C48.2812 50.375 48.75 49.9648 48.75 49.4375ZM57.1875 37.25C58.6523 37.25 60 38.5977 60 40.0625V44.75H30V40.0625C30 38.5977 31.2891 37.25 32.8125 37.25H37.5V34.4375C37.5 32.9727 38.7891 31.625 40.3125 31.625H49.6875C51.1523 31.625 52.5 32.9727 52.5 34.4375V37.25H57.1875ZM48.75 37.25V35.375H41.25V37.25H48.75Z" fill="#00CBB8"/>
</svg>
