<svg xmlns="http://www.w3.org/2000/svg" width="32" height="33" fill="none" viewBox="0 0 32 33">
  <path fill="#FF782D" d="M14.534 2.726v1.528c0 .713-.22.993-.905 1.172-1.596.416-3.078 1.078-4.348 2.145-.55.461-1.031 1.006-1.504 1.564.645-.448 1.325-.728 2.112-.68.798.05 1.463.373 1.981.98a2.8 2.8 0 0 1 .208 3.362 2.807 2.807 0 0 1-3.145 1.142 2.755 2.755 0 0 1-1.638-1.308c-.365-.64-.444-1.329-.292-2.051l-.11-.024c-.178.577-.393 1.146-.526 1.733a9.885 9.885 0 0 0 .205 5.23c.233.738.104 1.052-.567 1.442-.45.26-.897.522-1.35.776-.612.341-1.183.133-1.43-.524-.993-2.639-1.11-5.324-.412-8.05.026-.098.05-.197.087-.35-.19 0-.35-.002-.51.001-.364.007-.73-.004-1.09.03-.588.055-1.035-.127-1.3-.676V9.67l2.816-5.548c.037-.075.077-.148.117-.22.375-.664 1.145-.728 1.618-.125.41.524.8 1.062 1.2 1.593.062.08.128.157.2.247.899-.95 1.89-1.749 3.007-2.389a12.814 12.814 0 0 1 4.35-1.539c.774-.127 1.224.258 1.226 1.037ZM30.94 10.84c-.518.005-1.038-.018-1.558-.028-.1-.003-.201-.001-.335-.001.099.449.199.86.279 1.274.462 2.404.259 4.756-.581 7.053-.274.75-.838.958-1.527.564-.433-.248-.863-.5-1.296-.748-.652-.376-.789-.702-.564-1.417.6-1.907.615-3.823.09-5.744a7.799 7.799 0 0 0-.465-1.215c.114.794.008 1.534-.43 2.203a2.749 2.749 0 0 1-1.87 1.236c-1.224.225-2.477-.429-3.016-1.563a2.814 2.814 0 0 1 .721-3.342c.856-.73 2.37-1.05 3.719.056l.064-.054c-.293-.33-.57-.674-.882-.982-1.39-1.37-3.079-2.204-4.947-2.7-.73-.193-.938-.451-.939-1.206V2.76c.002-.82.448-1.206 1.255-1.068 2.746.47 5.11 1.68 7.072 3.664.08.08.153.169.253.28l1.064-1.411c.113-.15.221-.302.338-.448.478-.598 1.266-.55 1.615.126a462.52 462.52 0 0 1 2.817 5.554c.344.69-.102 1.377-.876 1.384Zm-4.873 12.985c-1.818 2.182-4.088 3.655-6.844 4.364-.06.015-.121.03-.18.05-.018.006-.031.025-.064.053l.578 1.725c.28.839-.123 1.394-1.014 1.395h-5.145c-.906-.001-1.296-.555-1.007-1.42l.572-1.713c-.538-.174-1.064-.327-1.578-.514-2.21-.807-4.037-2.153-5.53-3.962-.453-.55-.347-1.16.27-1.521.466-.273.933-.542 1.403-.81.576-.33.96-.275 1.409.216 1.263 1.381 2.772 2.374 4.59 2.854.567.15 1.153.225 1.736.302-1.713-.893-2.371-2-2.023-3.45A2.803 2.803 0 0 1 16 19.258c1.3.015 2.424.915 2.703 2.168.327 1.46-.336 2.563-2.088 3.41a8.843 8.843 0 0 0 2.594-.54c1.472-.547 2.71-1.434 3.768-2.583.482-.524.846-.578 1.456-.226.45.259.901.516 1.349.778.653.383.765.984.285 1.56Z"/>
</svg>
