<svg width="77" height="86" viewBox="0 0 77 86" fill="none" xmlns="http://www.w3.org/2000/svg">
<path d="M28.528 58.3988L36.1781 55.3094L42.0204 40.0479L49.8087 44.0606C49.8087 44.0606 49.0579 45.5665 47.4484 49.2988C46.8228 50.7357 44.7646 54.7528 43.9275 56.7074C43.1529 58.5145 41.8769 60.062 40.2505 61.1669C38.6241 62.2718 36.7154 62.8879 34.7499 62.9423L27.5701 63.1278L28.528 58.3988Z" fill="#FFBF9D"/>
<path d="M24.7268 55.4475L23.5877 54.2307C23.3664 54.0856 23.1058 54.0118 22.8412 54.0193L19.1823 54.1315C18.8407 54.1645 18.5109 54.2739 18.2174 54.4517C17.9238 54.6294 17.674 54.871 17.4866 55.1584L16.1533 57.4237C16.1533 57.4237 15.2601 58.9727 15.3723 59.3524C15.4222 59.5101 15.5288 59.6436 15.6715 59.7273C15.8141 59.811 15.9827 59.8388 16.1446 59.8055C16.1446 59.8055 16.2741 60.5218 16.5114 60.6685C16.6488 60.7376 16.7987 60.7782 16.9523 60.7879C17.1058 60.7975 17.2596 60.776 17.4046 60.7246C17.4675 60.8605 17.5699 60.9743 17.6984 61.0512C17.8269 61.1282 17.9756 61.1647 18.1252 61.156C18.1893 61.1501 18.2528 61.1385 18.315 61.1215C18.7465 60.9878 18.945 60.1464 18.945 60.1464L20.8003 59.8055C20.8003 59.8055 23.4669 61.5875 24.4075 62.7525C25.3482 63.9175 27.8076 63.0287 27.8076 63.0287L28.7267 58.6275L24.7268 55.4475Z" fill="#FFBF9D"/>
<path d="M22.03 55.9696C21.7698 56.0502 21.4998 56.0952 21.2275 56.1034C20.7226 56.1594 20.0107 56.181 19.2038 56.2846L19.2901 56.2199C19.1514 56.5178 18.9929 56.8061 18.8155 57.0828C18.3282 57.8558 17.7357 58.5572 17.055 59.1669C16.7876 59.4355 16.477 59.6572 16.136 59.8227C16.136 59.7925 16.4596 59.5336 16.9429 59.0461C17.5774 58.4153 18.1403 57.7164 18.6213 56.962C18.7982 56.6729 18.9579 56.3881 19.0916 56.099L19.1175 56.043H19.1779C20.0021 55.9523 20.714 55.961 21.2188 55.9437C21.4894 55.9242 21.7613 55.9329 22.03 55.9696Z" fill="#FF9A6C"/>
<path d="M22.112 57.717C21.896 57.8224 21.6614 57.8839 21.4216 57.8982C20.8256 57.9806 20.22 57.9602 19.6309 57.8378L19.7647 57.7645C19.6871 57.9904 19.5978 58.2122 19.4972 58.4289C19.1635 59.1174 18.6956 59.7321 18.1207 60.2369C17.8964 60.4593 17.6292 60.634 17.3354 60.7503C17.5484 60.5271 17.7731 60.3154 18.0086 60.116C18.5405 59.5986 18.9785 58.9927 19.303 58.3254C19.4028 58.1192 19.4907 57.9074 19.5662 57.6911L19.6007 57.5962H19.6957C20.492 57.7451 21.3048 57.7858 22.112 57.717Z" fill="#FF9A6C"/>
<path d="M26.7633 58.619L23.497 57.1002C23.0587 56.8562 22.5732 56.7091 22.0731 56.6687C21.5383 56.7156 21.0223 56.8886 20.5673 57.1735L18.8068 58.0797C18.7119 58.1314 18.6083 58.1918 18.5781 58.2911C18.5479 58.3903 18.6299 58.5629 18.7291 58.6622C19.1836 59.0921 19.7783 59.3429 20.4033 59.3683C21.0284 59.3937 21.6414 59.1919 22.1292 58.8002C22.3676 59.5779 22.7399 60.308 23.2295 60.9576C23.4798 61.2833 23.8099 61.5389 24.1878 61.6999C24.5657 61.8609 24.9786 61.9218 25.3869 61.8767" fill="#FFBF9D"/>
<path d="M25.3783 61.9196C25.3512 61.933 25.322 61.9418 25.292 61.9455C25.2044 61.9672 25.1147 61.9788 25.0245 61.9801C24.6817 61.9813 24.3439 61.8983 24.0407 61.7384C23.5711 61.4928 23.1728 61.1302 22.8843 60.6856C22.5262 60.1146 22.2366 59.5035 22.0214 58.8648L22.1853 58.9036C21.9233 59.1237 21.6201 59.2896 21.2935 59.3918C20.9669 59.494 20.6233 59.5305 20.2825 59.499C19.912 59.4737 19.5507 59.3723 19.221 59.2013C19.0523 59.112 18.8944 59.0034 18.7507 58.8777C18.6729 58.8134 18.602 58.7411 18.5393 58.662C18.4986 58.6127 18.4694 58.555 18.4537 58.4931C18.4381 58.4311 18.4363 58.3665 18.4487 58.3038C18.4627 58.2524 18.4872 58.2044 18.5206 58.1628C18.554 58.1212 18.5956 58.087 18.6429 58.0622C18.7205 58.0147 18.7852 57.9845 18.8543 57.9457L19.2599 57.7386L20.0581 57.3071C20.554 57.0167 21.0827 56.7864 21.633 56.621C22.1614 56.5259 22.7064 56.6094 23.182 56.8584C23.6135 57.0568 24.045 57.2553 24.3902 57.4322L26.1161 58.2952C26.333 58.3929 26.5421 58.5068 26.7418 58.6361C26.5135 58.5684 26.2912 58.4818 26.0773 58.3772L24.3082 57.5962L23.0914 57.0525C22.6528 56.8277 22.1515 56.7563 21.6676 56.8497C21.1367 57.0157 20.6269 57.2431 20.1487 57.5272L19.3548 57.9586L18.9492 58.1701C18.8111 58.2391 18.6644 58.3081 18.6558 58.3772C18.6472 58.4462 18.755 58.6145 18.8888 58.7224C19.0205 58.8369 19.1654 58.9353 19.3203 59.0158C19.622 59.1721 19.9522 59.2661 20.2911 59.2919C20.9215 59.3533 21.5508 59.1642 22.0429 58.7655L22.1551 58.6706L22.2026 58.8087C22.4037 59.4366 22.6743 60.0401 23.0095 60.6079C23.2736 61.0386 23.6415 61.3961 24.0795 61.6478C24.4776 61.8605 24.9283 61.9548 25.3783 61.9196Z" fill="#FF9A6C"/>
<path d="M69.2386 15.8676C69.2688 13.4168 69.6701 10.9746 69.5579 8.53245C69.4457 6.09026 68.8201 3.53157 67.1114 1.77544C65.4027 0.0193106 62.4212 -0.645165 60.4364 0.757151L60.0049 2.84552C60.7902 12.295 60.6866 21.8955 61.4719 31.3449C61.5755 32.5876 62.5808 33.7138 63.1461 34.8227C63.7113 35.9316 64.8461 36.8506 66.0888 36.773C67.7155 36.6737 68.7812 35.0255 69.2861 33.4721C71.1414 27.8585 69.1652 21.7919 69.2386 15.8676Z" fill="#263238"/>
<path d="M63.3444 3.16053C63.0171 2.53792 62.5966 1.96899 62.0974 1.47343C61.8456 1.22699 61.5413 1.04074 61.2073 0.928655C60.8732 0.816566 60.5182 0.78154 60.1687 0.826209C60.0041 0.84667 59.8474 0.908965 59.7137 1.00716C59.58 1.10536 59.4737 1.23617 59.405 1.38713C59.2971 1.6978 59.5301 2.11633 59.858 2.08613L59.9271 2.14654C60.6606 2.79664 61.407 3.43092 62.1665 4.04938C62.3477 4.21842 62.5602 4.35034 62.7921 4.43771C62.9087 4.48021 63.0349 4.48898 63.1562 4.46303C63.2776 4.43709 63.3891 4.37747 63.4782 4.29101C63.75 3.98897 63.5515 3.51003 63.3444 3.16053Z" fill="#FF725E"/>
<path d="M64.7295 5.56814C62.2873 2.58228 59.008 0.860668 55.1506 0.821834C52.9932 0.783001 52.0741 1.25332 50.5078 1.65891C48.9395 2.03756 47.5533 2.95355 46.59 4.2478C45.4811 5.82271 44.5491 7.58747 44.3376 9.50757C44.0612 11.4694 43.9673 13.4527 44.0572 15.4318C44.1477 17.4207 44.7869 19.3456 45.9039 20.9936L50.9264 21.8566C53.7008 21.9515 56.514 22.0421 59.2194 21.4251C61.9248 20.8081 64.5482 19.3367 65.9937 16.9679C68.0044 13.6541 67.1673 8.54968 64.7295 5.56814Z" fill="#263238"/>
<path d="M60.2636 5.53359L53.567 2.87134L51.8151 3.07413C47.88 3.07413 45.1617 7.43211 45.1358 10.6164C45.1099 14.1632 45.2135 18.4867 45.7744 21.0971C46.9092 26.3483 51.3837 26.7841 51.3837 26.7841C51.3837 26.7841 51.2931 29.5844 51.2585 31.3448L61.5149 30.607L62.0283 7.33286C62.0128 6.86649 61.8229 6.42292 61.4961 6.08978C61.1694 5.75664 60.7296 5.55817 60.2636 5.53359Z" fill="#FFBF9D"/>
<path d="M53.6489 19.8674C53.6074 19.599 53.4693 19.355 53.2605 19.1814C53.0706 19.0178 52.8321 18.9211 52.5818 18.9063C52.3316 18.8915 52.0834 18.9593 51.8755 19.0994C51.6597 19.2657 51.492 19.4864 51.3896 19.7389C51.2873 19.9914 51.2539 20.2666 51.293 20.5362C51.4083 20.6981 51.5569 20.8334 51.7288 20.9332C51.9007 21.0329 52.0919 21.0947 52.2897 21.1144C52.3515 21.1187 52.4135 21.1187 52.4752 21.1144C52.7953 21.1211 53.1052 21.0018 53.3382 20.7822C53.4554 20.6628 53.5441 20.5186 53.5979 20.3603C53.6517 20.2019 53.6691 20.0335 53.6489 19.8674Z" fill="#FF9A6C"/>
<path d="M46.9093 15.0997C46.9161 15.2771 46.9922 15.4447 47.1213 15.5666C47.2504 15.6884 47.4222 15.7547 47.5997 15.7512C47.6865 15.7529 47.7728 15.7374 47.8536 15.7054C47.9344 15.6735 48.0081 15.6259 48.0703 15.5653C48.1325 15.5046 48.1821 15.4323 48.2161 15.3523C48.2501 15.2724 48.2679 15.1865 48.2685 15.0997C48.2595 14.9222 48.1822 14.7552 48.0526 14.6337C47.923 14.5122 47.7514 14.4457 47.5738 14.4481C47.4871 14.4464 47.401 14.462 47.3205 14.494C47.2399 14.5259 47.1666 14.5736 47.1047 14.6343C47.0428 14.695 46.9937 14.7674 46.9601 14.8473C46.9266 14.9272 46.9093 15.013 46.9093 15.0997Z" fill="#263238"/>
<path d="M46.3354 12.39C46.4217 12.472 46.9179 12.0664 47.6299 12.0276C48.3418 11.9887 48.9243 12.3253 48.9934 12.2304C49.0624 12.1354 48.933 12.0319 48.6913 11.8765C48.3629 11.6748 47.98 11.5798 47.5954 11.6047C47.2154 11.6235 46.8513 11.7625 46.5555 12.0017C46.357 12.1872 46.288 12.3512 46.3354 12.39Z" fill="#263238"/>
<path d="M51.03 18.1242C50.6385 18.0214 50.2352 17.9706 49.8305 17.9732C49.6449 17.9732 49.4637 17.9387 49.4249 17.8093C49.4014 17.6184 49.4344 17.4249 49.5198 17.2527C49.6708 16.791 49.8305 16.3077 49.9944 15.7986C50.6503 13.7361 51.1163 12.0403 51.03 12.0145C50.9437 11.9886 50.3482 13.6411 49.6924 15.7079L49.2609 17.1664C49.1547 17.3977 49.1348 17.6594 49.2048 17.9042C49.2347 17.9685 49.2791 18.0249 49.3345 18.0691C49.3899 18.1133 49.4548 18.144 49.5241 18.1588C49.629 18.1812 49.7363 18.1899 49.8434 18.1847C50.2399 18.2113 50.6382 18.191 51.03 18.1242Z" fill="#263238"/>
<path d="M51.375 26.7799C53.8714 26.6811 56.2914 25.8909 58.365 24.4973C58.365 24.4973 56.6779 28.2728 51.3491 28.07L51.375 26.7799Z" fill="#FF9A6C"/>
<path d="M53.2089 18.5084C53.0924 18.5084 53.1313 19.3023 52.4841 19.9021C51.8368 20.5018 50.9868 20.463 50.9868 20.5752C50.9868 20.6873 51.1853 20.7176 51.5391 20.7089C52.0058 20.6905 52.4507 20.507 52.7947 20.1911C53.124 19.8895 53.3235 19.4719 53.3513 19.0261C53.36 18.6939 53.265 18.5041 53.2089 18.5084Z" fill="#263238"/>
<path d="M46.5812 9.83114C46.7149 9.99942 47.2672 9.85272 47.9231 9.86998C48.5789 9.88724 49.1312 10.0296 49.2693 9.86998C49.3297 9.78799 49.2477 9.61972 49.0104 9.43849C48.6895 9.22994 48.3144 9.12041 47.9317 9.12352C47.549 9.11324 47.1714 9.21361 46.8444 9.41261C46.607 9.57657 46.5251 9.74485 46.5812 9.83114Z" fill="#263238"/>
<path d="M54.8873 14.9183C54.8909 15.0955 54.8253 15.2672 54.7045 15.3968C54.5837 15.5265 54.4171 15.6041 54.24 15.613C54.1537 15.6213 54.0667 15.6122 53.9839 15.5864C53.9011 15.5606 53.8243 15.5186 53.758 15.4627C53.6917 15.4069 53.6372 15.3383 53.5978 15.2612C53.5583 15.184 53.5346 15.0997 53.5281 15.0132C53.5244 14.8363 53.5893 14.6648 53.7091 14.5345C53.8289 14.4042 53.9944 14.3253 54.171 14.3142C54.2579 14.306 54.3455 14.3151 54.4288 14.3411C54.5121 14.3671 54.5894 14.4095 54.6561 14.4658C54.7228 14.522 54.7776 14.591 54.8173 14.6687C54.857 14.7464 54.8808 14.8313 54.8873 14.9183Z" fill="#263238"/>
<path d="M56.2251 12.1051C56.1431 12.1957 55.621 11.8246 54.8875 11.8376C54.1539 11.8505 53.6275 12.2302 53.5456 12.1396C53.4636 12.049 53.5887 11.9412 53.8217 11.7642C54.1335 11.5395 54.5075 11.4173 54.8918 11.4147C55.2724 11.4063 55.6459 11.5197 55.9575 11.7384C56.1862 11.9066 56.2682 12.0663 56.2251 12.1051Z" fill="#263238"/>
<path d="M55.7848 9.76655C55.6467 9.93482 55.0772 9.76655 54.3998 9.76655C53.7223 9.76655 53.1442 9.90031 53.0104 9.72771C52.95 9.64573 53.0406 9.47746 53.2865 9.29623C53.6275 9.09652 54.0177 8.99636 54.4127 9.00713C54.805 9.00265 55.1902 9.11207 55.5216 9.32212C55.7676 9.51197 55.8495 9.68456 55.7848 9.76655Z" fill="#263238"/>
<path d="M61.1266 16.23C61.1266 15.8373 61.5106 14.8838 61.8989 14.8018C62.9302 14.5817 64.8071 14.5602 64.9711 17.2008C65.1955 20.8123 61.5192 20.2902 61.5192 20.1867C61.5192 20.0831 61.1913 17.5935 61.1266 16.23Z" fill="#FFBF9D"/>
<path d="M62.4209 18.8061C62.4209 18.8061 62.4856 18.8492 62.5935 18.888C62.7456 18.9499 62.916 18.9499 63.0681 18.888C63.4392 18.7241 63.724 18.0984 63.7024 17.4469C63.6918 17.137 63.6122 16.8333 63.4694 16.558C63.4289 16.4469 63.3617 16.3474 63.2736 16.2684C63.1856 16.1894 63.0794 16.1333 62.9646 16.105C62.8916 16.0906 62.8159 16.1021 62.7505 16.1375C62.6851 16.173 62.6342 16.2301 62.6064 16.2991C62.5633 16.4027 62.6064 16.4761 62.5719 16.4804C62.5374 16.4847 62.4899 16.4243 62.5115 16.2733C62.5258 16.1827 62.5717 16.1002 62.641 16.0403C62.6871 15.9993 62.7412 15.9683 62.7998 15.949C62.8584 15.9297 62.9204 15.9226 62.9818 15.9281C63.1322 15.9462 63.2752 16.0036 63.3964 16.0945C63.5176 16.1854 63.6127 16.3065 63.6722 16.4458C63.8445 16.7491 63.9408 17.0896 63.9527 17.4383C63.9742 18.1675 63.642 18.8708 63.1328 19.052C63.0377 19.0865 62.936 19.0993 62.8353 19.0896C62.7345 19.0799 62.6372 19.0479 62.5503 18.9959C62.4209 18.8967 62.4209 18.8147 62.4209 18.8061Z" fill="#FF9A6C"/>
<path d="M62.0368 14.8106L61.1264 15.7512C57.1654 11.9585 49.4246 2.4659 49.8604 3.03115C51.6659 2.36009 53.6111 2.15385 55.5172 2.43139C58.4642 2.93191 64.0476 4.40758 63.9613 7.88101C63.875 11.3544 62.0368 14.8106 62.0368 14.8106Z" fill="#263238"/>
<path d="M67.2838 14.0252C67.2721 13.9545 67.2533 13.8851 67.2277 13.8181C67.162 13.6217 67.0797 13.4311 66.9818 13.2486C66.6079 12.5801 66.0925 12.0014 65.4716 11.5528C64.5563 10.8954 63.5346 10.4006 62.4512 10.0901C61.2431 9.69748 59.8839 9.39113 58.5463 8.79568C57.2849 8.27013 56.0889 7.59971 54.9823 6.79792C54.0772 6.14246 53.2338 5.4059 52.4624 4.59736C51.945 4.05046 51.4595 3.4742 51.0083 2.87143L50.6459 2.37091C50.6055 2.31044 50.5592 2.25408 50.5078 2.20264C50.5381 2.26899 50.5742 2.33253 50.6157 2.39249C50.689 2.5133 50.7969 2.6902 50.9479 2.91026C51.3799 3.53461 51.8542 4.12857 52.3675 4.68796C54.0706 6.53973 56.1552 8.00007 58.4773 8.96827C59.7626 9.45541 61.0716 9.87735 62.3995 10.2325C63.478 10.5265 64.4992 11.0006 65.4198 11.6348C66.0341 12.0664 66.5526 12.6202 66.943 13.2615C67.1673 13.7318 67.2623 14.0252 67.2838 14.0252Z" fill="#455A64"/>
<path d="M66.2311 14.5817C66.2428 14.3116 66.1957 14.0422 66.093 13.7921C65.8205 13.102 65.347 12.5097 64.7338 12.0921C63.8162 11.5009 62.789 11.1003 61.7134 10.9141C60.4264 10.6562 59.1718 10.2568 57.9725 9.72322C56.7782 9.17832 55.6564 8.48696 54.6328 7.66506C53.8001 6.99088 53.0343 6.23805 52.346 5.41703C51.8771 4.86016 51.4447 4.27357 51.0515 3.6609L50.7452 3.15606C50.7135 3.09533 50.6744 3.0388 50.6287 2.98779C50.6527 3.05173 50.6816 3.11375 50.715 3.17333L50.9911 3.69974C51.3584 4.32858 51.7708 4.92991 52.2251 5.49901C52.9053 6.34172 53.6701 7.11237 54.5077 7.79881C55.5373 8.63707 56.6697 9.34033 57.8776 9.8915C59.0875 10.4314 60.3559 10.8296 61.6573 11.0781C62.7135 11.254 63.7249 11.6351 64.6346 12.1999C65.2361 12.5959 65.7098 13.158 65.998 13.818C66.099 14.0649 66.177 14.3205 66.2311 14.5817Z" fill="#455A64"/>
<path d="M61.9161 20.9289C61.9161 20.903 62.2225 20.8642 62.7575 20.7218C63.5077 20.5052 64.1984 20.12 64.7769 19.5956C65.6243 18.8025 66.2681 17.8167 66.6538 16.722C67.1466 15.3877 67.4121 13.9802 67.4391 12.5582C67.4554 11.8234 67.3962 11.0889 67.2622 10.3662C66.9002 8.54864 66.0465 6.86519 64.7941 5.4991C64.0577 4.71714 63.2454 4.01036 62.3692 3.38916C62.3692 3.38916 62.4425 3.41504 62.572 3.49271C62.7014 3.57038 62.887 3.67394 63.1157 3.83791C63.7711 4.28753 64.3758 4.80691 64.9192 5.38692C65.7331 6.24639 66.3915 7.24061 66.8652 8.32531C67.1399 8.96871 67.3495 9.63796 67.4909 10.3231C67.6297 11.0612 67.6919 11.8116 67.6764 12.5625C67.6505 14.0113 67.3746 15.4447 66.8609 16.7996C66.4525 17.92 65.7754 18.923 64.889 19.7208C64.284 20.247 63.5621 20.6212 62.7834 20.8124C62.5715 20.8605 62.3568 20.8951 62.1405 20.916C62.0662 20.9261 61.9912 20.9304 61.9161 20.9289Z" fill="#455A64"/>
<path d="M66.5116 65.3328L45.1618 68.4351C37.1406 70.7047 28.6922 71.3692 19.8597 70.5925L51.9922 85.5822L64.8935 85.7807C64.8935 85.7807 68.82 85.7807 69.5061 82.3547C70.1921 78.9288 70.9558 68.4955 70.9558 68.4955C70.9558 68.4955 68.4058 66.2863 66.5116 65.3328Z" fill="#263238"/>
<g opacity="0.3">
<path d="M66.4467 74.3205C66.7997 76.4587 66.927 78.628 66.8264 80.7928C67.4822 80.0729 67.9653 79.213 68.2389 78.2784C68.5125 77.3438 68.5696 76.3592 68.4056 75.3992C68.2201 74.3464 67.78 73.1858 68.3323 72.2667C68.7034 71.6497 69.6828 70.942 69.5404 70.2387C69.5404 70.2387 68.6775 70.2387 67.9051 70.2085C67.2795 70.1826 65.9807 70.1438 65.9807 70.1438C66.5395 71.486 66.6603 72.9704 66.3259 74.3853" fill="black"/>
</g>
<path d="M51.2931 30.4646L61.6659 29.3428L63.5644 31.0687L56.1602 35.4267L52.8939 37.1181L49.6664 36.1386L48.6438 34.2142L51.2931 30.4646Z" fill="#FFBF9D"/>
<path d="M37.3087 43.0943C37.3087 43.0943 40.5621 36.855 41.3646 35.4915C42.7368 33.1659 45.2998 31.8498 45.2998 31.8498L51.293 30.4648C51.293 30.4648 50.6717 33.4852 54.3997 33.675C59.146 33.9382 62.093 29.3904 62.093 29.3904C62.093 29.3904 67.5038 29.947 68.9968 30.5727C70.4897 31.1983 74.7182 32.9717 75.3395 38.5896L76.7893 47.7672L65.355 48.6302L65.5104 60.8497L60.6519 64.8237C60.6519 64.8237 46.7021 69.6261 45.8089 69.9411C45.3774 70.0921 45.4896 64.1635 44.4929 59.0807L42.6116 54.5113C41.8501 52.6862 41.3994 50.7465 41.2783 48.7726C41.205 47.4781 41.2395 46.4857 41.2395 46.4857C41.2395 46.4857 38.3054 45.4804 37.3087 43.0943Z" fill="#455A64"/>
<path d="M46.3182 65.1514L65.489 59.3998L65.3552 48.6386L75.1153 47.8965C75.1153 47.8965 74.3387 53.4712 74.2222 56.3276C74.0582 60.4397 72.0648 66.187 70.7703 67.4038C69.4759 68.6206 45.822 69.9495 45.822 69.9495L46.3182 65.1514Z" fill="#FFBF9D"/>
<path d="M35.4449 68.5343C35.5373 68.6925 35.6842 68.8117 35.858 68.8697C36.0319 68.9276 36.2209 68.9204 36.3898 68.8492C36.8213 68.6767 36.7048 67.8051 36.7048 67.8051L38.7457 67.3045C38.7457 67.3045 41.5633 68.832 42.629 69.8934C43.6948 70.9549 46.0377 69.846 46.0377 69.846L46.5253 65.3715L42.4564 62.226C42.4564 62.226 42.7067 62.4158 42.3917 61.7945C42.0767 61.1732 40.9031 61.5097 40.9031 61.5097C40.696 61.2034 39.9064 61.1516 39.9064 61.1516L36.5969 61.7945C36.2611 61.8599 35.9442 61.9996 35.6694 62.2034C35.3946 62.4072 35.169 62.67 35.0091 62.9725L33.7707 65.3154C33.7707 65.3154 33.1494 66.9809 33.3004 67.3477C33.3655 67.4995 33.4841 67.622 33.6337 67.6921C33.7832 67.7621 33.9533 67.7746 34.1116 67.7274C34.1116 67.7274 34.3575 68.7716 34.638 68.7845C34.9214 68.7494 35.1953 68.6601 35.4449 68.5213V68.5343Z" fill="#FFBF9D"/>
<path d="M42.3009 64.8236C42.3009 64.8582 41.8694 64.8495 41.1445 64.9358C40.2214 65.0535 39.3186 65.2959 38.4607 65.6564C37.9896 65.8577 37.5352 66.0957 37.1015 66.3683C36.7175 66.6229 36.3119 66.843 36.204 67.1493C36.1808 67.2152 36.1749 67.2859 36.187 67.3547C36.1991 67.4235 36.2287 67.488 36.2731 67.542C36.3413 67.6315 36.4343 67.6991 36.5406 67.7361C36.7218 67.7922 36.8297 67.7361 36.8383 67.7361C36.8469 67.7361 36.7391 67.8354 36.519 67.7965C36.3887 67.7674 36.271 67.698 36.1825 67.5981C36.1189 67.5298 36.0744 67.4461 36.0532 67.3552C36.032 67.2644 36.0349 67.1696 36.0616 67.0803C36.1353 66.8792 36.2675 66.7048 36.4413 66.5798C36.6139 66.446 36.7952 66.3122 36.998 66.1785C38.2341 65.3689 39.6542 64.8836 41.1272 64.7675C41.5189 64.7227 41.9153 64.7417 42.3009 64.8236Z" fill="#FF9A6C"/>
<path d="M42.7022 66.9335C42.7022 66.9939 41.3388 67.0457 39.6819 67.2701C38.025 67.4945 36.696 67.8051 36.6615 67.7447C36.9353 67.613 37.2255 67.5187 37.5245 67.4643C38.2237 67.2884 38.9325 67.153 39.6474 67.0587C40.3627 66.9616 41.083 66.9054 41.8048 66.8904C42.1045 66.8637 42.4065 66.8783 42.7022 66.9335Z" fill="#FF9A6C"/>
<path d="M35.4578 68.4481C35.4228 68.3343 35.3997 68.2172 35.3888 68.0986C35.3443 67.7738 35.3184 67.4468 35.3111 67.1191C35.3074 66.8911 35.3218 66.6631 35.3543 66.4374C35.3942 66.1716 35.4866 65.9164 35.6261 65.6866C35.9131 65.1547 36.3033 64.6853 36.7739 64.3059C37.2393 63.9253 37.7565 63.613 38.3099 63.3782C38.7687 63.2079 39.2471 63.0962 39.7338 63.0459C40.1653 62.9985 40.476 62.9855 40.709 62.9726C40.8277 62.9551 40.9484 62.9551 41.0671 62.9726C40.6403 63.0702 40.208 63.1422 39.7727 63.1883C39.3031 63.2572 38.8429 63.3788 38.4005 63.5508C37.8697 63.7877 37.3733 64.0954 36.9249 64.4655C36.4777 64.8252 36.1003 65.2639 35.8117 65.7599C35.5813 66.1689 35.4665 66.6327 35.4794 67.1019C35.4449 67.9346 35.5053 68.4481 35.4578 68.4481Z" fill="#FF9A6C"/>
<path d="M39.8114 62.0234C39.8114 62.0579 39.3152 62.1097 38.5169 62.2607C37.7187 62.4117 36.5321 62.5886 35.928 63.7018C35.3115 64.5461 34.8135 65.4709 34.448 66.4504C34.3341 66.8666 34.2604 67.2929 34.228 67.7233C34.1877 67.6099 34.1715 67.4894 34.1805 67.3694C34.1727 67.0445 34.2134 66.7202 34.3013 66.4072C34.6297 65.3934 35.1193 64.4391 35.7511 63.581C35.919 63.3211 36.1207 63.0846 36.3509 62.8777C36.5729 62.6872 36.8292 62.5408 37.106 62.4462C37.5597 62.2889 38.028 62.1776 38.504 62.114C38.9343 62.0293 39.3735 61.9988 39.8114 62.0234Z" fill="#FF9A6C"/>
<path d="M41.8265 69.2549C41.7518 69.2157 41.681 69.1695 41.6151 69.1169L41.0239 68.7156C40.279 68.2249 39.5069 67.7769 38.7112 67.3737H38.7587L36.7221 67.8871L36.7868 67.7922C36.8062 67.9614 36.8062 68.1322 36.7868 68.3014C36.774 68.4879 36.7065 68.6665 36.5926 68.8148C36.5219 68.8894 36.43 68.9406 36.3294 68.9615C36.2367 68.9939 36.1383 69.0072 36.0403 69.0004C35.8377 68.9858 35.6467 68.9003 35.501 68.7587C35.4656 68.7219 35.4325 68.683 35.4017 68.6422V68.612L35.5225 68.6466L35.4578 68.6768C35.374 68.7208 35.2875 68.7597 35.1989 68.7933C35.1087 68.8286 35.0165 68.8589 34.9228 68.8839C34.8734 68.8984 34.8229 68.9085 34.7718 68.9141C34.7063 68.9248 34.6391 68.9173 34.5776 68.8925C34.4791 68.8301 34.401 68.74 34.3532 68.6336C34.3054 68.5445 34.2636 68.4522 34.2281 68.3575C34.1556 68.1706 34.0964 67.9788 34.0512 67.7836L34.1763 67.857C34.0388 67.8991 33.8923 67.9025 33.753 67.8667C33.6136 67.831 33.4869 67.7574 33.3867 67.6542C33.2825 67.5439 33.2213 67.4 33.2141 67.2486C33.2138 67.1124 33.2268 66.9766 33.253 66.843C33.3684 66.3235 33.5212 65.813 33.7103 65.3155L34.3705 64.0642L34.802 63.2746C34.9299 63.0016 35.0861 62.7427 35.268 62.5023C35.4657 62.271 35.7078 62.0818 35.9799 61.9456C36.2453 61.8237 36.5275 61.7423 36.817 61.704L39.9323 61.1042H39.9582C40.1497 61.1187 40.3392 61.1535 40.5234 61.2078C40.719 61.251 40.8958 61.3553 41.0283 61.5055L40.9074 61.4796C41.0718 61.3887 41.2558 61.3388 41.4436 61.3343C41.6314 61.3298 41.8176 61.3708 41.9861 61.4538C42.2776 61.6379 42.4899 61.924 42.5816 62.2563L42.5514 62.2175L45.356 64.3749L46.1111 64.9703C46.2021 65.0363 46.2872 65.1099 46.3657 65.1904C46.2666 65.1392 46.1726 65.0785 46.0852 65.0092L45.3042 64.4439L42.4565 62.3469H42.4349V62.3167C42.3546 62.0277 42.1681 61.7796 41.9128 61.622C41.7705 61.5537 41.6138 61.5207 41.456 61.526C41.2983 61.5312 41.1441 61.5746 41.0067 61.6522L40.9333 61.6868L40.8859 61.6264C40.7762 61.5127 40.6349 61.4345 40.4803 61.402C40.3082 61.3544 40.1319 61.324 39.9539 61.3114H39.9798L36.8645 61.9241C36.5925 61.9594 36.3276 62.0365 36.0792 62.1528C35.8342 62.2741 35.6169 62.4444 35.4406 62.6533C35.2706 62.883 35.126 63.1304 35.0091 63.3911L34.5776 64.1807C34.3489 64.6122 34.1461 65.0437 33.9174 65.432C33.7395 65.9192 33.5953 66.418 33.486 66.9249C33.4611 67.0427 33.4481 67.1627 33.4471 67.2831C33.4529 67.3867 33.4958 67.4847 33.5679 67.5592C33.6421 67.6335 33.735 67.6864 33.8368 67.7122C33.9386 67.738 34.0455 67.7359 34.1461 67.7059L34.2497 67.68V67.7793C34.2971 67.9648 34.3532 68.1547 34.418 68.3316C34.4653 68.4935 34.5512 68.6416 34.6682 68.7631C34.6964 68.7714 34.7264 68.7714 34.7545 68.7631L34.8796 68.7372C34.9668 68.7177 35.0521 68.6903 35.1342 68.6552C35.2162 68.625 35.2982 68.5861 35.3802 68.5473L35.4406 68.5214L35.5657 68.5559V68.5775C35.5892 68.611 35.6152 68.6428 35.6434 68.6724C35.7238 68.7582 35.827 68.8191 35.9409 68.8482C36.0548 68.8772 36.1746 68.8732 36.2863 68.8364C36.3552 68.8246 36.4186 68.7914 36.4675 68.7415C36.6196 68.4812 36.676 68.176 36.6271 67.8785V67.8009H36.6962L38.7414 67.3176H38.7673C39.5625 67.7316 40.328 68.2001 41.0585 68.7199C41.313 68.9055 41.4899 69.0522 41.6323 69.1514C41.6994 69.1812 41.7643 69.2158 41.8265 69.2549Z" fill="#FF9A6C"/>
<path d="M31.8592 72.0251C31.8592 72.0251 18.3322 67.775 14.0864 66.4159C6.75122 64.0427 1.97903 66.4418 0.46884 69.0565C-1.49009 72.4523 3.20875 79.0755 5.02098 80.5987C10.3843 85.1077 19.5792 85.716 19.5792 85.716L52.6393 85.6556L43.0043 72.5472L31.8592 72.0251Z" fill="#263238"/>
<path d="M33.8871 78.1607C28.3781 78.8019 22.7963 78.042 17.6591 75.9515C16.7826 75.5553 15.8802 75.2194 14.958 74.9461C14.0464 74.7163 13.1013 74.6491 12.1663 74.7477C11.7952 74.7571 11.4299 74.841 11.0919 74.9945C10.7539 75.1479 10.4502 75.3677 10.1988 75.6408C9.53859 76.5038 9.87515 77.7465 10.2419 78.7734C10.6734 79.9815 11.1049 81.2156 11.9678 82.1821C12.9473 83.3083 14.3712 83.9555 15.7994 84.4042C18.5911 85.2672 21.5381 85.539 24.4636 85.6512L34.5085 85.1032L33.8871 78.1607Z" fill="#E0E0E0"/>
<path d="M14.4877 74.9504C14.5537 75.0314 14.6048 75.1234 14.6387 75.2223C14.7554 75.4798 14.845 75.7488 14.9062 76.0248C15.1231 76.943 15.085 77.903 14.796 78.8011C14.5071 79.6991 13.9782 80.5012 13.2666 81.1206C13.0548 81.3062 12.8266 81.4723 12.5849 81.6168C12.4079 81.7161 12.3087 81.7592 12.3001 81.7463C12.2914 81.7333 12.6625 81.496 13.163 81.0084C13.8197 80.3805 14.3093 79.5986 14.5873 78.7336C14.8653 77.8687 14.9231 76.948 14.7552 76.055C14.6344 75.3647 14.4532 74.9634 14.4877 74.9504Z" fill="#263238"/>
<path d="M66.3865 71.1966C65.6012 68.9702 65.4717 65.6996 60.6262 64.129C55.7806 62.5584 52.1217 65.5701 49.632 66.6143C47.1424 67.6585 33.5377 75.1231 33.5377 75.1231C33.5377 75.1231 30.9747 79.6925 31.7039 81.7118C32.4331 83.7312 35.7469 85.7246 35.7469 85.7246H50.9653C54.8918 85.7246 62.1838 85.5909 62.1838 85.5909C63.1601 83.9905 64.0349 82.3303 64.8029 80.6202L64.9324 79.9644C64.9453 79.4423 67.1674 73.4231 66.3865 71.1966Z" fill="#263238"/>
<path d="M57.9554 82.756C57.9356 82.8333 57.8971 82.9044 57.8432 82.9631C57.6956 83.1342 57.5275 83.2864 57.3427 83.4162C56.6632 83.8847 55.9408 84.2878 55.1853 84.62C54.6692 84.8606 54.1389 85.0696 53.5974 85.2457C52.9706 85.4429 52.3283 85.5873 51.6773 85.6772C50.1921 85.825 48.6993 85.8826 47.2072 85.8497C44.0444 85.9015 41.1664 86.0223 39.0953 85.9965C38.0554 85.9965 37.214 85.949 36.6358 85.8886C36.4128 85.869 36.191 85.8373 35.9714 85.7937C35.8936 85.7843 35.8169 85.767 35.7427 85.7419C35.7427 85.7203 36.062 85.7764 36.6402 85.8066C37.2183 85.8368 38.0597 85.8584 39.0953 85.8497C41.1707 85.8497 44.0358 85.6901 47.2072 85.6383C48.6918 85.6704 50.177 85.6186 51.6557 85.483C52.2951 85.4046 52.9271 85.2747 53.5456 85.0947C54.0837 84.9286 54.6111 84.7297 55.1248 84.4992C55.8752 84.1836 56.597 83.8039 57.2823 83.3644C57.4686 83.2397 57.6408 83.095 57.7957 82.9329C57.9165 82.8294 57.9424 82.7517 57.9554 82.756Z" fill="#263238"/>
<path d="M35.7468 85.7246L35.544 85.6168C35.4146 85.5434 35.2247 85.4226 34.9788 85.2629C34.2632 84.7959 33.5929 84.2628 32.9767 83.6708C32.5304 83.2428 32.1494 82.7514 31.8462 82.2124C31.5364 81.5374 31.4575 80.7792 31.6219 80.055C31.9919 78.3203 32.6125 76.6487 33.4643 75.0929V75.0713C35.9583 73.6992 38.819 72.1416 41.9429 70.4631C43.5049 69.626 45.1316 68.7588 46.823 67.8742C47.6859 67.4427 48.5489 67.0112 49.4119 66.5798C50.2748 66.1483 51.1594 65.7168 52.0525 65.2508C53.2865 64.5747 54.6099 64.0765 55.9833 63.7708C56.658 63.6362 57.345 63.574 58.0329 63.5853C58.7059 63.6056 59.3745 63.7011 60.0263 63.8701C61.29 64.1813 62.4765 64.7481 63.5127 65.5356C63.9945 65.9347 64.4211 66.3961 64.7813 66.9077C65.1124 67.412 65.386 67.9518 65.5968 68.5171C65.8125 69.0694 65.9635 69.626 66.1189 70.1697C66.2969 70.6979 66.441 71.2369 66.5503 71.7834C66.6182 72.8275 66.5309 73.8759 66.2914 74.8944C66.0973 75.8653 65.86 76.7714 65.614 77.6128C65.4932 78.0442 65.3724 78.4455 65.2602 78.8382C65.148 79.2308 65.0186 79.6192 64.9582 79.9643C64.9064 80.2103 64.8676 80.3958 64.8244 80.6159C64.4088 81.9492 63.8214 83.2227 63.0769 84.4043C62.8132 84.8268 62.5019 85.2176 62.1492 85.5693L62.2053 85.4916C62.2528 85.4355 62.3132 85.3665 62.3865 85.2716C62.6152 84.984 62.8284 84.6844 63.0251 84.3741C63.7439 83.1854 64.3107 81.9112 64.7122 80.5814C64.9582 80.3743 64.9107 80.1715 64.8374 79.9255C64.9128 79.5319 65.0107 79.1429 65.1308 78.7605L65.4803 77.5394C65.7133 76.6765 65.9463 75.7876 66.1361 74.8254C66.3659 73.823 66.4474 72.7923 66.3777 71.7662C66.2643 71.2305 66.1202 70.7018 65.9463 70.1826C65.7866 69.639 65.6313 69.0867 65.4198 68.5473C65.2139 67.9953 64.9461 67.4684 64.6216 66.9767C64.2715 66.4818 63.8565 66.0363 63.3876 65.6521C61.8358 64.4891 59.9664 63.8268 58.0286 63.7536C57.3564 63.7425 56.6851 63.8047 56.0265 63.9391C54.6693 64.2402 53.3617 64.7327 52.1431 65.4018C51.2802 65.8333 50.4172 66.3511 49.4895 66.7351C48.5618 67.1191 47.7636 67.5765 46.9006 68.0296C45.2135 68.8925 43.5825 69.7555 42.0206 70.6184L33.529 75.1965L33.5592 75.162C32.7099 76.7 32.0865 78.3522 31.7082 80.0679C31.5379 80.7676 31.6063 81.5041 31.9023 82.1606C32.1928 82.6948 32.5623 83.1821 32.9983 83.6061C33.6034 84.2026 34.2604 84.7441 34.9615 85.2241L35.5138 85.5952C35.6692 85.6772 35.7468 85.7246 35.7468 85.7246Z" fill="#263238"/>
<path d="M60.5138 80.0764C60.5138 80.0764 65.0487 80.6201 64.6474 82.8379C64.2461 85.0557 62.7618 85.8022 62.7618 85.8022L50.4387 85.8281C50.4387 85.8281 57.7955 85.3189 60.5138 80.0764Z" fill="#E0E0E0"/>
<path d="M60.9538 79.0022C60.9528 79.2182 60.9058 79.4315 60.8158 79.6279C60.6488 80.124 60.401 80.5891 60.0823 81.0043C59.6525 81.6096 59.0514 82.0724 58.3563 82.3332C58.9286 81.9039 59.4536 81.415 59.9226 80.8748C60.3182 80.2806 60.6632 79.6542 60.9538 79.0022Z" fill="#263238"/>
<path d="M59.4006 79.8695C59.4079 80.4259 59.2583 80.9732 58.9691 81.4487C58.7477 81.9528 58.4089 82.3966 57.981 82.7431C57.9336 82.7043 58.378 82.1304 58.7793 81.3408C59.1806 80.5512 59.3229 79.8608 59.4006 79.8695Z" fill="#263238"/>
<path d="M65.1652 85.1853C65.1307 85.1853 65.4241 84.6071 65.7779 83.6536C66.7069 81.1633 67.0135 78.4838 66.6711 75.848C66.5374 74.8427 66.382 74.2257 66.4165 74.217C66.4848 74.3535 66.5342 74.4987 66.5632 74.6485C66.6699 75.0391 66.7548 75.4352 66.8178 75.8351C67.2496 78.4939 66.939 81.2204 65.9203 83.714C65.7665 84.0816 65.5922 84.4403 65.3982 84.7884C65.3366 84.9294 65.2584 85.0627 65.1652 85.1853Z" fill="#455A64"/>
<g opacity="0.3">
<path d="M62.6022 78.8814C62.5677 78.5836 62.4512 78.2298 62.1707 78.1694C61.8083 78.0961 61.5624 78.5103 61.42 78.8469C59.8321 82.4584 54.7018 85.2759 50.771 85.6513C52.6774 85.6471 54.5805 85.4913 56.4622 85.1853C58.067 84.945 59.5714 84.257 60.803 83.2005C61.4153 82.6678 61.8963 82.0008 62.2084 81.2516C62.5205 80.5024 62.6553 79.6912 62.6022 78.8814Z" fill="black"/>
</g>
<path d="M32.5797 73.9667C31.8283 73.7557 31.0975 73.477 30.3964 73.1339C29.6677 72.8578 28.9657 72.5155 28.2994 72.1113C29.0499 72.3235 29.7804 72.6007 30.4827 72.9398C31.2117 73.2172 31.9136 73.561 32.5797 73.9667Z" fill="#263238"/>
<g opacity="0.2">
<path d="M36.9636 72.0595C31.0955 70.9376 25.2057 69.9409 19.2944 69.0693L14.8933 70.4587C16.1273 72.7542 18.5652 74.2169 21.098 74.821C23.6308 75.4251 26.2758 75.2827 28.8647 75.0454C31.7211 74.7822 34.6552 74.3809 37.1405 72.9484C37.3304 72.8405 37.5461 72.6765 37.5202 72.4565C37.4943 72.2364 37.2182 72.107 36.9636 72.0595Z" fill="black"/>
</g>
<path d="M8.08017 54.5846L15.4758 70.9378C15.6254 71.2711 15.8676 71.5544 16.1735 71.7541C16.4795 71.9537 16.8364 72.0613 17.2017 72.0639L38.7758 72.3444L41.4941 70.8817L37.2354 70.571L30.6078 54.6666C30.5047 54.4191 30.3311 54.2075 30.1086 54.0579C29.8861 53.9083 29.6246 53.8274 29.3565 53.8252L8.69287 53.6699C8.58264 53.6658 8.47322 53.6901 8.37498 53.7402C8.27675 53.7904 8.19296 53.8648 8.13158 53.9565C8.07019 54.0481 8.03325 54.1539 8.02425 54.2639C8.01525 54.3738 8.0345 54.4842 8.08017 54.5846Z" fill="#E0E0E0"/>
<path d="M8.08024 54.5846C8.04495 54.5237 8.0229 54.4561 8.01551 54.3861C8.00186 54.2826 8.01314 54.1772 8.04842 54.0789C8.08369 53.9806 8.14194 53.8921 8.21831 53.8209C8.33625 53.7114 8.48909 53.6473 8.64979 53.6396H10.544L19.1952 53.6699L25.2101 53.7001L28.5713 53.7216H29.4343C29.7539 53.7447 30.0571 53.872 30.2972 54.0841C30.5287 54.3012 30.6997 54.5748 30.7934 54.878L31.1473 55.741C33.0328 60.2586 35.1169 65.2551 37.3261 70.5365L37.2225 70.4631L41.3346 70.7652H41.4813L41.9127 70.7954L41.546 70.9939L38.8276 72.4566H38.7974H38.7672L22.4141 72.2322L18.7637 72.1804C18.1683 72.1804 17.5987 72.1804 17.0076 72.1459C16.7123 72.1111 16.4283 72.0119 16.1756 71.8553C15.9229 71.6987 15.7076 71.4886 15.5449 71.2398C14.5827 69.2162 13.7801 67.3565 12.9991 65.6305L9.38331 57.5446C8.95183 56.5996 8.64116 55.8618 8.41679 55.3483C8.30892 55.1067 8.23125 54.9168 8.17085 54.7788C8.11044 54.6407 8.09318 54.5803 8.09318 54.5803C8.13003 54.6415 8.16317 54.7049 8.19242 54.7701L8.45994 55.3311C8.69294 55.8359 9.0295 56.5694 9.46529 57.4885L13.1501 65.5486C13.9311 67.2443 14.7682 69.1514 15.7088 71.119C15.8553 71.3434 16.0496 71.5326 16.2779 71.6728C16.5062 71.8131 16.7628 71.901 17.0292 71.9302C17.5815 71.9561 18.1812 71.9517 18.7551 71.9604L22.4054 72.0035L38.7586 72.202H38.6982L41.4165 70.735L41.4683 70.9636H41.3216L37.2096 70.6659H37.1362L37.106 70.6012C34.9098 65.3112 32.83 60.3147 30.9488 55.7927L30.5993 54.9514C30.5223 54.677 30.3734 54.4282 30.1678 54.2308C29.9627 54.0457 29.7013 53.9347 29.4256 53.9158H28.5627L25.2014 53.8856L19.1909 53.8252L10.5311 53.7216H9.1762H8.64116C8.55569 53.7248 8.47177 53.7453 8.39449 53.782C8.31722 53.8187 8.24823 53.8707 8.19171 53.9349C8.13519 53.999 8.09233 54.0741 8.06575 54.1554C8.03916 54.2367 8.02941 54.3225 8.03709 54.4077C8.04819 54.4674 8.0626 54.5265 8.08024 54.5846Z" fill="#263238"/>
<path d="M36.5839 72.314C36.5436 72.2578 36.5103 72.197 36.4846 72.1328L36.2387 71.6064C36.0229 71.1145 35.7295 70.45 35.3757 69.6475C34.6551 67.9863 33.6757 65.6908 32.6229 63.1364C31.57 60.582 30.638 58.265 29.9951 56.5779C29.6715 55.7149 29.4169 55.0461 29.253 54.5672C29.1753 54.3471 29.1149 54.1659 29.0631 54.0149C29.039 53.9507 29.0216 53.8842 29.0114 53.8164C29.0508 53.8724 29.0828 53.9333 29.1063 53.9976L29.3306 54.537C29.5334 55.0375 29.8053 55.7063 30.1332 56.5218C30.8322 58.2218 31.7772 60.5173 32.817 63.0588C33.8569 65.6002 34.8148 67.887 35.5138 69.5871L36.3207 71.5719C36.4026 71.7919 36.4717 71.9689 36.5278 72.1156C36.5577 72.178 36.5767 72.2451 36.5839 72.314Z" fill="#263238"/>
<path d="M23.2081 62.5107C23.2089 62.721 23.1473 62.9269 23.031 63.1021C22.9147 63.2773 22.749 63.414 22.5548 63.4949C22.3607 63.5758 22.1469 63.5971 21.9406 63.5563C21.7343 63.5155 21.5448 63.4143 21.3961 63.2656C21.2474 63.1169 21.1462 62.9274 21.1054 62.7211C21.0646 62.5148 21.086 62.301 21.1668 62.1069C21.2477 61.9127 21.3844 61.747 21.5596 61.6307C21.7348 61.5144 21.9407 61.4528 22.151 61.4536C22.4313 61.4536 22.7002 61.565 22.8985 61.7632C23.0967 61.9615 23.2081 62.2304 23.2081 62.5107Z" fill="white"/>
<path d="M44.1995 36.2034C44.234 36.2034 43.9233 36.8031 43.4875 37.7697C42.3469 40.2926 41.6017 42.9763 41.2784 45.7262C41.1489 46.7833 41.1144 47.4521 41.0756 47.4521C41.0525 47.2976 41.0525 47.1406 41.0756 46.9861C41.0756 46.6884 41.0756 46.2569 41.136 45.7219C41.3798 42.9373 42.1377 40.222 43.371 37.7136C43.6084 37.2346 43.8025 36.8506 43.9708 36.6003C44.0307 36.4593 44.1075 36.326 44.1995 36.2034Z" fill="#263238"/>
<path d="M76.7893 47.7672C76.7123 47.7907 76.6324 47.8038 76.5519 47.806L75.8659 47.8707L73.3029 48.0865L64.5395 48.7467H64.4273V48.6345C64.3539 47.4695 64.2763 46.2397 64.1986 44.9798C64.0735 42.7793 63.9656 40.665 63.9311 38.7708C63.8195 37.0644 64.2079 35.3625 65.0486 33.8735C65.6258 32.8692 66.4775 32.0504 67.5038 31.5133C67.7808 31.3744 68.0696 31.2603 68.3667 31.1724C68.47 31.1401 68.5752 31.1141 68.6817 31.0947C68.6817 31.1292 68.2502 31.2199 67.5383 31.5909C66.5488 32.1467 65.732 32.965 65.1781 33.9555C64.3785 35.4296 64.0205 37.1028 64.1468 38.7751C64.19 40.6779 64.3022 42.775 64.4273 44.9755C64.505 46.2354 64.5783 47.4652 64.6517 48.6258L64.5309 48.5223L73.3029 47.9441L75.8918 47.7931L76.5778 47.7672H76.7893Z" fill="#263238"/>
<path d="M55.2887 55.2405C55.1557 55.2146 55.0276 55.168 54.909 55.1024C54.7606 55.0401 54.6164 54.9681 54.4775 54.8867C54.2914 54.7865 54.1113 54.6756 53.9382 54.5544C53.4791 54.2447 53.0552 53.8859 52.6739 53.4843C52.2126 52.9866 51.8075 52.4397 51.4658 51.8533C51.1362 51.2603 50.8742 50.6322 50.6848 49.9807C50.5345 49.4485 50.442 48.9017 50.4087 48.3497C50.396 48.1385 50.396 47.9267 50.4087 47.7154C50.4093 47.5552 50.4208 47.3952 50.4432 47.2365C50.4471 47.0994 50.4734 46.9639 50.5208 46.8352C50.564 46.8352 50.4906 47.4177 50.5813 48.3368C50.6355 48.8734 50.741 49.4037 50.8962 49.9203C51.0946 50.552 51.3563 51.162 51.6772 51.7412C52.0076 52.3122 52.3966 52.8472 52.8379 53.3376C53.2049 53.735 53.6079 54.0976 54.0417 54.4207C54.7753 54.9686 55.3103 55.2016 55.2887 55.2405Z" fill="#263238"/>
</svg>
