<svg width="90" height="90" viewBox="0 0 90 90" fill="none" xmlns="http://www.w3.org/2000/svg">
<path d="M0 4C0 1.79086 1.79086 0 4 0H86C88.2091 0 90 1.79086 90 4V86C90 88.2091 88.2091 90 86 90H4C1.79086 90 0 88.2091 0 86V4Z" fill="#9DCCFF" fill-opacity="0.3"/>
<path d="M56.25 34.0859V36.7227C56.25 39.125 50.332 41 43.125 41C35.8594 41 30 39.125 30 36.7227V34.0859C30 31.6836 35.8594 29.75 43.125 29.75C50.332 29.75 56.25 31.6836 56.25 34.0859ZM56.25 40.0625V46.0977C56.25 48.5 50.332 50.375 43.125 50.375C35.8594 50.375 30 48.5 30 46.0977V40.0625C32.8125 42.0547 37.9688 42.9336 43.125 42.9336C48.2227 42.9336 53.3789 42.0547 56.25 40.0625ZM56.25 49.4375V55.4727C56.25 57.875 50.332 59.75 43.125 59.75C35.8594 59.75 30 57.875 30 55.4727V49.4375C32.8125 51.4297 37.9688 52.3086 43.125 52.3086C48.2227 52.3086 53.3789 51.4297 56.25 49.4375Z" fill="#9DCCFF"/>
</svg>
