<svg width="90" height="90" viewBox="0 0 90 90" fill="none" xmlns="http://www.w3.org/2000/svg">
<path d="M0 4C0 1.79086 1.79086 0 4 0H86C88.2091 0 90 1.79086 90 4V86C90 88.2091 88.2091 90 86 90H4C1.79086 90 0 88.2091 0 86V4Z" fill="#49BBBD" fill-opacity="0.3"/>
<path d="M39.7852 47.9141L44.9414 52.1914C44.9414 52.3672 45 52.543 45 52.7188C45 57.2305 41.8945 59.75 37.5 59.75C32.168 59.75 30 55.5312 29.9414 50.7266C30.5273 51.0781 32.5781 52.7188 33.2227 52.7188C33.5742 52.7188 33.9258 52.4844 34.043 52.1328C35.2734 48.9688 37.3828 48.0312 39.7852 47.9141ZM56.7773 29.75C58.4766 29.75 60 30.9805 60 32.6797C60 33.6172 59.5898 34.5547 59.1797 35.375C52.5586 47.7383 50.4492 50.375 46.7578 50.375C46.3477 50.375 45.8789 50.3164 45.4688 50.1992L41.7188 47.0938C41.4258 46.3906 41.25 45.6289 41.25 44.8672C41.25 41.7031 42.4805 41.4688 54.4336 30.7461C55.0781 30.1602 55.8984 29.75 56.7773 29.75Z" fill="#49BBBD"/>
</svg>
