<svg width="90" height="90" viewBox="0 0 90 90" fill="none" xmlns="http://www.w3.org/2000/svg">
<path d="M0 4C0 1.79086 1.79086 0 4 0H86C88.2091 0 90 1.79086 90 4V86C90 88.2091 88.2091 90 86 90H4C1.79086 90 0 88.2091 0 86V4Z" fill="#5B72EE" fill-opacity="0.3"/>
<path d="M60.9375 29.75C62.4609 29.75 63.75 31.0391 63.75 32.5625V51.3125C63.75 52.8945 62.4609 54.125 60.9375 54.125H49.6875L50.625 56.9375H54.8438C55.6055 56.9375 56.25 57.582 56.25 58.3438C56.25 59.1641 55.6055 59.75 54.8438 59.75H38.9062C38.0859 59.75 37.5 59.1641 37.5 58.3438C37.5 57.582 38.0859 56.9375 38.9062 56.9375H43.125L44.0625 54.125H32.8125C31.2305 54.125 30 52.8945 30 51.3125V32.5625C30 31.0391 31.2305 29.75 32.8125 29.75H60.9375ZM60 50.375V33.5H33.75V50.375H60Z" fill="#5B72EE"/>
</svg>
