<svg width="20" height="20" viewBox="0 0 20 20" fill="none" xmlns="http://www.w3.org/2000/svg">
<path d="M11.8614 5.78728C11.851 6.39054 11.8592 6.99326 11.8592 7.61774C11.9451 7.62154 12.0164 7.62807 12.0882 7.62807C12.7937 7.62862 13.4998 7.62753 14.2059 7.62862C14.6334 7.6297 14.739 7.73469 14.7395 8.15464C14.7406 8.96243 14.7411 9.77022 14.7395 10.578C14.7384 10.9523 14.6454 11.0469 14.269 11.0486C13.5493 11.0518 12.8302 11.0496 12.1105 11.0496H11.8603V17.6763C11.8603 18.2752 11.8015 18.3329 11.1928 18.3329C10.4188 18.3329 9.64523 18.3334 8.8717 18.3323C8.44197 18.3318 8.34242 18.2333 8.34188 17.8068C8.34133 15.6554 8.34188 13.5035 8.34188 11.3515V11.0872C8.25919 11.0823 8.18793 11.0747 8.11667 11.0747C7.52647 11.0736 6.93571 11.0752 6.34551 11.0736C5.9359 11.0719 5.8369 10.9767 5.83581 10.5709C5.83254 9.77675 5.83309 8.98256 5.83526 8.18836C5.83635 7.76624 5.93318 7.67159 6.3504 7.67105C6.93408 7.6705 7.51776 7.67105 8.10144 7.67105H8.34188C8.34188 7.57041 8.34079 7.49099 8.34188 7.41157C8.35602 6.63805 8.32828 5.86126 8.39355 5.09263C8.55892 3.15773 10.0467 1.75701 11.9908 1.68412C12.8041 1.65365 13.6189 1.67106 14.4338 1.67324C14.7031 1.67432 14.8184 1.79073 14.82 2.06163C14.8244 2.86943 14.8244 3.67722 14.82 4.48502C14.8184 4.75972 14.7052 4.86851 14.4104 4.87559C13.861 4.88864 13.311 4.88918 12.7616 4.89734C12.1241 4.90714 11.8728 5.14811 11.8614 5.78728Z" fill="#555555"/>
</svg>
