<svg xmlns="http://www.w3.org/2000/svg" width="32" height="33" fill="none" viewBox="0 0 32 33">
  <g clip-path="url(#a)">
    <path fill="#DD0000" d="M24.097 23.585c-.394-4.547-4.555-7.91-9.105-7.357-4.379.534-7.584 4.451-7.13 8.849.36 3.469 2.281 5.8 5.552 6.992.597.218 1.247.291 1.873.431h1.372c.152-.026.303-.055.456-.078a8.169 8.169 0 0 0 6.982-8.837Zm-6.949 5.905a8.893 8.893 0 0 1-.24.098v1.394h-1.863v-1.38c-1.516-.724-2.28-1.77-2.203-3.036h1.806c.023.079.047.145.061.213.15.707.72 1.126 1.43 1.05.632-.068 1.135-.646 1.123-1.288a1.277 1.277 0 0 0-1.251-1.266c-.943-.027-1.744-.35-2.378-1.052a3.134 3.134 0 0 1 1.114-5.008c.23-.098.311-.208.296-.453-.023-.35-.006-.704-.006-1.08h1.871c0 .388.014.76-.005 1.13-.01.21.062.3.256.385 1.18.51 1.833 1.417 1.961 2.698.006.06 0 .12 0 .202h-1.83c-.02-.078-.043-.155-.06-.235a1.28 1.28 0 0 0-1.423-1.024 1.3 1.3 0 0 0-1.122 1.322c.034.68.557 1.2 1.247 1.236 1.587.081 2.752.986 3.103 2.408.377 1.53-.414 3.077-1.887 3.686ZM8.373 17.495a.88.88 0 0 1-.179.498c-.715.905-1.286 1.886-1.67 2.975-.05.14-.086.257-.287.256-2.079-.01-4.158-.012-6.237-.016v-1.871h3.608V12.98h4.773v.336c0 1.393.006 2.786-.008 4.179Zm23.554 1.852v1.855c-.102.006-.202.017-.301.017-1.933 0-3.867-.004-5.8.007-.235 0-.344-.066-.423-.292-.372-1.08-.945-2.05-1.655-2.944a.823.823 0 0 1-.175-.47c-.01-5.548-.008-11.098-.008-16.647V.57h4.763v18.778h3.599ZM21.667 4.704v11.278c-.751-.356-1.49-.775-2.277-1.062-.784-.286-1.617-.438-2.463-.658V4.704h4.74ZM15.012 8.85v5.413c-.831.217-1.671.373-2.464.66-.78.284-1.514.702-2.274 1.064V8.849h4.739Z"/>
  </g>
  <defs>
    <clipPath id="a">
      <path fill="#fff" d="M0 .5h32v32H0z"/>
    </clipPath>
  </defs>
</svg>
