<svg width="95" height="83" viewBox="0 0 95 83" fill="none" xmlns="http://www.w3.org/2000/svg">
<g opacity="0.4">
<path d="M53.5489 67.446L53.697 66.8879L53.8679 66.2157C53.8679 66.0563 53.8679 65.9879 53.9818 65.7373L54.1299 65.031C54.2438 64.5412 54.3691 63.9602 54.5172 63.4248C54.6653 62.8894 54.8362 62.3426 55.0184 61.7388C55.4058 60.5427 55.8842 59.2213 56.4652 57.8315C57.0969 56.3495 57.8041 54.9009 58.584 53.4913C59.4498 51.9633 60.4045 50.4874 61.4433 49.0713C63.6201 46.0482 66.1734 43.315 69.0415 40.9377C69.2124 40.7441 69.0415 40.8808 69.1441 40.8352H69.201L69.3263 40.7441L69.5656 40.5732L70.0554 40.2086L71.1946 39.3884C71.992 38.7847 72.7438 38.3404 73.4729 37.8506C74.9399 36.9547 76.4618 36.1519 78.0295 35.4469C80.7218 34.2372 83.542 33.3354 86.4366 32.7585C87.6896 32.5193 88.8174 32.3484 89.854 32.2459C90.8907 32.1434 91.7565 31.9839 92.4855 31.9839C93.2146 31.9839 93.7614 31.9839 94.1373 31.9839H94.7183L94.1829 32.2231C93.8411 32.394 93.3399 32.599 92.7247 32.9408C92.1096 33.2825 91.3691 33.6698 90.5489 34.1597C89.7287 34.6495 88.8402 35.2989 87.9061 35.9368C85.8483 37.4819 83.9685 39.2509 82.3014 41.2111C81.3983 42.2936 80.5687 43.4353 79.818 44.6286C79.4458 45.195 79.1036 45.7806 78.7928 46.3829L78.3029 47.3056L78.0181 47.841L77.87 48.1031L77.8017 48.2397V48.3081L77.87 48.2284C76.7768 50.6051 76.0104 53.1189 75.5917 55.7013C75.2439 57.828 75.1445 59.9879 75.2955 62.1375C75.3639 63.0603 75.4778 63.8691 75.5917 64.5867L75.7854 65.5664C75.7854 65.8512 75.9335 66.0335 75.9904 66.2385L76.0702 66.5119C76.0702 66.5119 76.0702 66.7853 76.1499 66.8992C76.2297 67.0132 76.2524 67.3891 76.2866 67.5827C76.3664 67.9473 76.4005 68.1523 76.4005 68.1523C77.0048 71.1917 76.3769 74.3466 74.655 76.9231C72.9331 79.4995 70.2583 81.2864 67.2189 81.8906C64.1795 82.4949 61.0246 81.867 58.4481 80.1451C55.8717 78.4232 54.0848 75.7484 53.4806 72.709C53.1084 70.9717 53.1318 69.173 53.5489 67.446Z" fill="#6DCEAE"/>
<path d="M23.9308 0.4405L26.2091 0.79364L29.1026 1.2607L30.9936 1.57966L32.953 2.02394C34.3086 2.30873 35.7553 2.70744 37.259 3.1631C38.7627 3.61877 40.3461 4.14278 41.9523 4.68958C43.5586 5.23638 45.1762 5.90848 46.7824 6.66033C48.3886 7.41218 49.9835 8.18681 51.5555 8.93866C53.1275 9.69051 54.654 10.6588 56.1122 11.6271C57.5703 12.5954 58.9373 13.5409 60.2473 14.4864C61.5574 15.4319 62.7649 16.4344 63.8585 17.4368C64.9521 18.4393 65.9659 19.3392 66.8431 20.2619L68.1189 21.5492L69.1897 22.7795C69.8732 23.5313 70.4428 24.2034 70.8757 24.7844L72.2769 26.5729L70.2833 25.5021C69.5434 25.0845 68.783 24.7043 68.005 24.3629L66.5811 23.7022L64.9407 23.0985C63.8015 22.6314 62.6623 22.2213 61.3181 21.8112C59.9739 21.4011 58.6411 21.048 57.2399 20.672C55.8388 20.2961 54.3578 20.0341 52.8428 19.8291C51.3277 19.624 49.824 19.4531 48.2861 19.2937C46.7482 19.1342 45.2787 19.1114 43.7978 19.1342C42.3169 19.1569 40.8815 19.2139 39.5145 19.2709C38.1475 19.3278 36.8147 19.4873 35.573 19.6924C34.3313 19.8974 33.1694 20.0341 32.1555 20.2619L30.6518 20.5923L29.4216 20.9227L27.2344 21.5036L25.0472 22.0732C22.2087 22.8255 19.1876 22.4194 16.6486 20.9443C14.1096 19.4691 12.2605 17.0458 11.5082 14.2073C10.7559 11.3688 11.162 8.34777 12.6372 5.80872C14.1123 3.26968 16.5357 1.42062 19.3741 0.668332C20.8613 0.280821 22.4123 0.203271 23.9308 0.4405Z" fill="#6DCEAE"/>
<path d="M2.52574 55.4392L4.18891 53.6279C4.87241 52.8761 5.80653 51.8281 6.82038 50.837C7.83424 49.8459 8.93922 48.8776 10.2379 47.8866C10.8758 47.3739 11.5479 46.8727 12.277 46.3829C13.006 45.893 13.7237 45.3804 14.5553 44.9133C16.148 43.9225 17.799 43.0286 19.4993 42.2363C20.3764 41.8148 21.265 41.4161 22.1763 41.0971C23.0876 40.7782 24.0104 40.3795 24.9331 40.0605C26.7899 39.4112 28.7037 38.9213 30.6289 38.4087C32.5541 37.8961 34.4223 37.5885 36.3247 37.2696C38.2271 36.9506 40.0156 36.7911 41.7699 36.643C44.9299 36.3865 48.1015 36.3028 51.2705 36.3924C54.3229 36.4748 57.3669 36.7526 60.3838 37.224C57.4353 37.7617 54.5245 38.4885 51.6692 39.3998C48.792 40.295 45.9663 41.3484 43.2053 42.5553C41.713 43.2274 40.1979 43.9337 38.7056 44.7425C37.2133 45.5513 35.7551 46.3943 34.3426 47.2828C32.93 48.1714 31.5288 49.151 30.2758 50.2105C29.6492 50.7117 29.0455 51.2015 28.4759 51.7255C27.9063 52.2496 27.3367 52.7508 26.8241 53.2748C25.8358 54.2391 24.9111 55.2665 24.0559 56.3505C23.6507 56.828 23.2705 57.3261 22.9168 57.8428C22.5703 58.296 22.2544 58.7717 21.9713 59.2668C21.3789 60.1667 20.946 61.0439 20.5473 61.7957C20.1486 62.5476 20.0688 63.0146 19.8296 63.5387L18.8727 65.817C18.3195 67.1339 17.4856 68.3143 16.4292 69.2758C15.3728 70.2372 14.1194 70.9567 12.7563 71.3839C11.3933 71.8111 9.95343 71.9357 8.53724 71.7492C7.12105 71.5627 5.7626 71.0694 4.55667 70.3038C3.35073 69.5382 2.32634 68.5188 1.55495 67.3166C0.783567 66.1143 0.283757 64.7583 0.0903903 63.343C-0.102977 61.9277 0.0147547 60.4873 0.435372 59.1222C0.85599 57.7571 1.56937 56.5002 2.52574 55.4392Z" fill="#6DCEAE"/>
</g>
</svg>
