<svg width="18" height="18" viewBox="0 0 18 18" fill="none" xmlns="http://www.w3.org/2000/svg">
<path d="M17.3301 5.30981C17.3186 3.5135 16.5177 2.15046 14.968 1.24314C14.2861 0.843682 13.5324 0.670858 12.7421 0.67045C10.2471 0.668412 7.75215 0.662298 5.2572 0.67208C3.22651 0.679825 1.53006 1.91935 0.88767 3.85507C0.793106 4.14039 0.758459 4.4461 0.696503 4.74243C0.685498 4.79501 0.676531 4.848 0.666748 4.90058V13.1024C0.711585 13.3519 0.736041 13.607 0.804111 13.85C1.32095 15.6948 2.51972 16.8279 4.38859 17.2502C4.55612 17.2881 4.72854 17.306 4.89851 17.3334H13.102C13.3518 17.2885 13.607 17.2641 13.8503 17.196C15.6931 16.68 16.8295 15.4832 17.2453 13.6164C17.3121 13.3176 17.3292 13.003 17.3301 12.6956C17.3366 10.2337 17.3456 7.77175 17.3301 5.30981ZM9.00758 13.5687C6.49836 13.583 4.43098 11.5189 4.43221 9.00068C4.43343 6.48494 6.46697 4.44854 8.9929 4.43428C11.5021 4.42001 13.5695 6.48372 13.5683 9.0019C13.567 11.5176 11.5335 13.554 9.00758 13.5687ZM13.8438 5.54663C13.0897 5.54419 12.4555 4.90914 12.4559 4.1567C12.4559 3.40181 13.0881 2.77247 13.8459 2.77329C14.6077 2.77369 15.2317 3.39855 15.2297 4.15914C15.228 4.91729 14.5971 5.54908 13.8438 5.54663Z" fill="#555555"/>
<path d="M0.666748 13.1027C0.711585 13.3522 0.736041 13.6073 0.804111 13.8503C1.32095 15.6951 2.51972 16.8282 4.38859 17.2505C4.55612 17.2884 4.72853 17.3064 4.89851 17.3337C3.48778 17.3337 2.07706 17.3337 0.666748 17.3337C0.666748 15.9234 0.666748 14.513 0.666748 13.1027Z"/>
<path d="M12.5839 9.00938C12.5773 10.9912 10.96 12.5975 8.9847 12.5845C7.00618 12.5714 5.41 10.9655 5.41652 8.99389C5.42305 7.01252 7.04083 5.40533 9.01609 5.41878C10.9946 5.43183 12.5904 7.03779 12.5839 9.00938Z" fill="#555555"/>
<path d="M14.245 4.15555C14.2458 4.37484 14.0604 4.56152 13.8435 4.5603C13.6287 4.55908 13.4392 4.36587 13.4424 4.15147C13.4461 3.94074 13.6271 3.76058 13.839 3.75772C14.0612 3.75487 14.2442 3.93422 14.245 4.15555Z" fill="#555555"/>
</svg>
