<svg width="50" height="50" viewBox="0 0 50 50" fill="none" xmlns="http://www.w3.org/2000/svg">
<path d="M0 4C0 1.79086 1.79086 0 4 0H46C48.2091 0 50 1.79086 50 4V46C50 48.2091 48.2091 50 46 50H4C1.79086 50 0 48.2091 0 46V4Z" fill="#49BBBD" fill-opacity="0.5"/>
<path d="M20.4531 24.2031L26.8281 17.8281C27.2969 17.4062 28 17.4062 28.4219 17.8281L29.5 18.9062C29.9219 19.3281 29.9219 20.0781 29.5 20.5L24.9531 25L29.5 29.5469C29.9219 29.9688 29.9219 30.6719 29.5 31.1406L28.4219 32.1719C28 32.6406 27.2969 32.6406 26.8281 32.1719L20.4531 25.7969C20.0312 25.375 20.0312 24.6719 20.4531 24.2031Z" fill="white"/>
</svg>
