<svg width="90" height="90" viewBox="0 0 90 90" fill="none" xmlns="http://www.w3.org/2000/svg">
<path d="M0 4C0 1.79086 1.79086 0 4 0H86C88.2091 0 90 1.79086 90 4V86C90 88.2091 88.2091 90 86 90H4C1.79086 90 0 88.2091 0 86V4Z" fill="#F48C06" fill-opacity="0.3"/>
<path d="M40.957 35.7734C42.9492 35.7734 44.5898 37.2969 44.5898 39.1719C44.5898 41.0469 42.9492 42.5703 40.957 42.5703C38.9648 42.5703 37.3828 41.0469 37.3828 39.1719C37.3828 37.2969 38.9648 35.7734 40.957 35.7734ZM49.3945 35.7734C51.3867 35.7734 52.9688 37.2969 52.9688 39.1719C52.9688 41.0469 51.3867 42.5703 49.3945 42.5703C47.4023 42.5703 45.7617 41.0469 45.7617 39.1719C45.7617 37.2969 47.4023 35.7734 49.3945 35.7734ZM58.5352 41.0469C59.4141 40.4609 60 41.2812 59.4727 42.1016C58.418 43.4492 56.3672 45.0312 53.2617 46.3203C56.543 57.5703 45.2344 59.3281 45.4102 53.5859C45.4102 53.5273 45.3516 50.4219 45.3516 48.0781C45.1172 48.0781 44.8828 47.9609 44.5898 47.9023C44.5898 50.2461 44.5312 53.5273 44.5312 53.5859C44.7656 59.3281 33.3984 57.5703 36.6797 46.3203C33.5742 45.0312 31.5234 43.3906 30.4688 42.1016C29.9414 41.2812 30.5273 40.4609 31.4062 41.0469C31.5234 41.1641 31.6406 41.2227 31.7578 41.2812V29.6797C31.7578 28.0977 32.9883 26.75 34.4531 26.75H55.4883C57.0117 26.75 58.1836 28.0977 58.1836 29.6797V41.2812L58.5352 41.0469ZM56.7773 42.1602V31.0273C56.7773 29.0938 56.1328 28.332 54.375 28.332H35.7422C33.9258 28.332 33.3984 28.9766 33.3984 31.0273V42.2773C37.3242 44.3867 40.7227 43.9766 42.5977 43.918C43.3594 43.918 43.8867 44.0352 44.1797 44.3867C44.2969 44.4453 44.7656 44.9141 45.3516 45.3828C45.4688 44.4453 45.9375 43.8594 47.3438 43.918C49.2188 43.9766 52.7344 44.3867 56.7773 42.1602Z" fill="#F48C06"/>
</svg>
