<svg xmlns="http://www.w3.org/2000/svg" width="32" height="33" fill="none" viewBox="0 0 32 33">
  <g clip-path="url(#a)">
    <path fill="#FF782D" d="M31.553 7.344c.336.325.508.693.314 1.147-.186.438-.554.573-1.012.572-1.82-.009-3.64-.004-5.46-.004h-.397v3.333c.084.006.174.019.263.019.624.002 1.248 0 1.871.002.704.001 1.069.37 1.07 1.082v3.837c0 4.636-.006 9.273.009 13.91.001.579-.155 1.008-.694 1.258h-7.8c.002-.852.006-1.705.006-2.558V13.6c0-.857.331-1.187 1.187-1.187.697 0 1.393-.002 2.09-.005.02 0 .038-.011.1-.031v-.347c0-3.431 0-6.862.002-10.293 0-.175.009-.357.056-.523a.925.925 0 0 1 1.806.196c.013.184.002.369.002.587h.372c1.841 0 3.682.004 5.522-.003.446-.001.803.134.997.552.2.435.053.802-.258 1.134-.59.63-1.172 1.268-1.777 1.924.07.078.135.154.205.224.507.507 1.011 1.017 1.526 1.517ZM17.85 20.685c0 3.938-.003 7.877-.005 11.815h-7.362c-.001-3.928-.004-7.856-.002-11.784 0-.588.382-.986.972-.99 1.809-.009 3.618-.009 5.426 0 .58.004.97.394.97.959ZM8.61 32.5H.999c-.539-.227-.72-.633-.711-1.21.024-1.736.007-3.47.009-5.207 0-.77.35-1.12 1.126-1.12H7.47c.785 0 1.137.356 1.137 1.146l.004 6.39Zm8.51-23.477c-.48.226-1.005.021-1.272-.502-.206-.406-.406-.813-.63-1.263-.073.125-.126.206-.172.292-3.063 5.69-7.536 9.863-13.44 12.5-.817.364-1.141.268-1.606-.463v-.5c.162-.39.477-.589.853-.755 5.472-2.434 9.622-6.3 12.484-11.554.058-.106.106-.216.19-.385-.553.11-1.037.214-1.524.3a.922.922 0 0 1-.999-.528.926.926 0 0 1 .639-1.294 163.71 163.71 0 0 1 3.292-.692c.537-.107.877.07 1.122.56.494.983.985 1.968 1.469 2.956.262.536.085 1.096-.406 1.328Z"/>
  </g>
  <defs>
    <clipPath id="a">
      <path fill="#fff" d="M0 .5h32v32H0z"/>
    </clipPath>
  </defs>
</svg>
