<svg width="256" height="312" viewBox="0 0 256 312" fill="none" xmlns="http://www.w3.org/2000/svg">
<g opacity="0.5">
<path d="M155.48 206.891C165.08 193.951 174.33 180.771 183.86 167.781C192.9 155.447 201.843 143.04 210.69 130.561C216.08 122.921 221.33 115.181 226.52 107.401C227.52 105.931 225.14 104.571 224.16 106.021C215.21 119.371 205.97 132.541 196.65 145.631C187.79 158.081 178.95 170.54 170.32 183.15C165.04 190.861 159.91 198.651 155.1 206.661C154.95 206.921 155.32 207.111 155.48 206.891Z" fill="white"/>
<path d="M98.7095 172.061C104.84 164.281 110.71 156.301 116.5 148.281C128.613 131.534 140.566 114.681 152.36 97.7205C158.76 88.5138 165.07 79.2438 171.29 69.9105C172.29 68.4505 169.91 67.0805 168.93 68.5405C157.42 85.7005 145.64 102.681 133.85 119.641C123.81 134.081 113.86 148.581 104 163.141C102.08 166.001 100.24 168.9 98.3795 171.79C98.2395 172.001 98.5695 172.26 98.7195 172.061H98.7095Z" fill="white"/>
<path d="M224.8 105.171C224.34 103.23 222.8 101.451 221.65 99.8905C220.5 98.3305 218.94 96.5705 217.51 94.9905C214.66 91.892 211.592 89.0013 208.33 86.3405C201.777 80.9038 194.58 76.2957 186.9 72.6205C184.7 71.5705 182.47 70.6205 180.21 69.6905C178.005 68.7297 175.732 67.9342 173.41 67.3105C171.02 66.7505 170.26 70.0105 172.41 70.9005C176.22 72.4705 180.13 73.6705 183.87 75.4105C195.013 80.6155 205.165 87.7217 213.87 96.4105C215.48 98.0205 217.09 99.6105 218.62 101.291C220.15 102.971 221.62 105.041 223.62 106.131C223.758 106.208 223.916 106.243 224.075 106.232C224.233 106.22 224.384 106.162 224.51 106.065C224.636 105.968 224.73 105.837 224.782 105.686C224.833 105.536 224.839 105.374 224.8 105.221V105.171Z" fill="white"/>
<path d="M225.25 106.881C226.67 107.48 228.08 106.351 228.95 105.281C230.29 103.611 231.53 101.84 232.79 100.101C235.41 96.4805 237.92 92.7805 240.49 89.1005C241.4 87.8005 239.26 86.5605 238.36 87.8605L231.31 98.0005C230.15 99.6605 229.06 101.371 227.94 103.001C227.1 104.271 226.09 105.371 225.18 106.571C225.167 106.592 225.159 106.616 225.156 106.641C225.152 106.666 225.154 106.691 225.161 106.715C225.167 106.739 225.178 106.762 225.194 106.782C225.209 106.801 225.228 106.818 225.25 106.831V106.881Z" fill="white"/>
<path d="M239.71 88.4205C239.11 86.2589 238.049 84.2529 236.6 82.5405C235.211 80.6171 233.722 78.7679 232.14 77.0005C228.865 73.3362 225.337 69.9077 221.58 66.7405C214.122 60.3399 205.767 55.0672 196.78 51.0905C194.32 50.0305 191.83 49.0905 189.29 48.2305C186.75 47.3705 184.1 46.3305 181.53 46.3305C180.05 46.3305 179.24 48.6105 180.73 49.3305C182.856 50.1123 185.031 50.757 187.24 51.2605C189.446 51.9272 191.626 52.7072 193.78 53.6005C198.168 55.4028 202.419 57.5218 206.5 59.9405C214.775 64.7783 222.346 70.7306 229 77.6305C230.8 79.5005 232.51 81.4605 234.22 83.4205C235.93 85.3805 237.22 87.3505 239.32 88.7505C239.54 88.9005 239.79 88.6505 239.75 88.4205H239.71Z" fill="white"/>
<path d="M171.29 69.0505C169.95 67.7505 170.29 65.7705 171.15 64.3305C172.24 62.5305 173.62 60.8805 174.86 59.1905C177.45 55.6605 179.98 52.0805 182.53 48.5205C183.4 47.2905 181.39 46.1505 180.53 47.3405C177.45 51.6005 174.39 55.8805 171.35 60.1805C170.12 61.9405 168.35 63.9305 168.35 66.1805C168.35 67.8005 169.47 69.5405 171.25 69.2705C171.275 69.2624 171.298 69.248 171.317 69.2286C171.335 69.2092 171.349 69.1855 171.356 69.1596C171.363 69.1337 171.363 69.1065 171.357 69.0805C171.35 69.0544 171.338 69.0304 171.32 69.0105L171.29 69.0505Z" fill="white"/>
<path d="M237.76 86.5705C240.98 82.5105 244.04 78.3205 247.05 74.1005C248.383 72.2072 249.716 70.3138 251.05 68.4205C252.029 67.1991 252.883 65.8825 253.6 64.4905C254.84 61.6605 254.23 58.4305 253.1 55.6605C251.373 51.7199 248.97 48.112 246 45.0005C238.558 36.8473 229.467 30.3706 219.33 26.0005C213.17 23.3705 202.93 20.0805 198.01 26.6905C195.08 30.6105 192.36 34.6905 189.52 38.6905L186.15 43.3905C185.783 43.8745 185.449 44.3823 185.15 44.9105C185.07 45.0405 185 45.1705 184.93 45.3105C184.66 45.8205 184.79 45.5405 184.83 45.4905C183.9 46.8105 186.08 48.0705 187 46.7505C187.2 46.4705 186.33 47.4205 186.76 47.0005L187.09 46.6805C187.415 46.3316 187.715 45.9607 187.99 45.5705C188.81 44.4105 189.59 43.2305 190.39 42.0605C192.71 38.6805 195.043 35.3138 197.39 31.9605C199.26 29.2705 200.69 26.4105 204.11 25.6005C207.72 24.7505 211.69 25.7505 215.11 26.9005C220.042 28.6586 224.743 31.0091 229.11 33.9005C233.632 36.7431 237.859 40.0293 241.73 43.7105C244.918 46.6632 247.675 50.0498 249.92 53.7705C251.4 56.3405 252.86 59.5405 252.25 62.5905C251.837 64.054 251.125 65.4159 250.16 66.5905C248.9 68.4572 247.633 70.3205 246.36 72.1805C243.22 76.7905 240.1 81.4305 237.21 86.1805C237.02 86.5005 237.5 86.9005 237.75 86.5905L237.76 86.5705Z" fill="white"/>
<path d="M154.9 208.09C155.11 206.301 153.52 204.551 152.24 203.461C150.758 202.18 149.067 201.165 147.24 200.461C145.421 199.755 143.498 199.356 141.55 199.281C139.81 199.201 136.91 199.13 135.77 200.65C135.26 201.32 135.85 202.12 136.47 202.37C137.24 202.691 138.34 202.301 139.15 202.191C139.946 202.097 140.748 202.064 141.55 202.09C143.26 202.148 144.949 202.486 146.55 203.09C148.1 203.666 149.559 204.465 150.88 205.461C152.12 206.391 153.27 207.76 154.77 208.23C154.792 208.235 154.815 208.234 154.838 208.229C154.86 208.223 154.881 208.213 154.899 208.199C154.917 208.185 154.932 208.167 154.942 208.146C154.953 208.126 154.959 208.103 154.96 208.081L154.9 208.09Z" fill="white"/>
<path d="M137.37 201.48C137.682 198.529 137.159 195.549 135.86 192.881C134.476 190.164 132.501 187.793 130.08 185.941C127.551 183.999 124.613 182.658 121.49 182.021C119.983 181.706 118.449 181.545 116.91 181.54C115.32 181.54 113.4 181.44 112.36 182.79C112.183 183.099 112.135 183.464 112.225 183.808C112.314 184.152 112.535 184.447 112.84 184.631C113.96 185.361 115.64 184.781 116.91 184.771C118.286 184.75 119.661 184.881 121.01 185.161C123.667 185.742 126.176 186.866 128.38 188.461C130.477 190.009 132.234 191.973 133.54 194.23C134.978 196.508 136.108 198.966 136.9 201.54C136.916 201.595 136.951 201.642 136.999 201.673C137.046 201.705 137.104 201.718 137.16 201.71C137.217 201.703 137.269 201.676 137.307 201.634C137.345 201.592 137.368 201.537 137.37 201.48Z" fill="white"/>
<path d="M112.32 184.531C112.4 184.284 112.47 184.024 112.53 183.751C112.61 183.381 112.67 183.38 112.76 183.01C112.893 182.383 112.927 181.738 112.86 181.101C112.738 179.671 112.369 178.274 111.77 176.971C111.081 175.522 110.106 174.228 108.902 173.168C107.699 172.107 106.293 171.302 104.77 170.801C103.795 170.491 102.789 170.293 101.77 170.211C100.567 170.105 99.3559 170.276 98.2295 170.711C97.9494 170.8 97.7098 170.985 97.5526 171.233C97.3955 171.482 97.331 171.778 97.3704 172.069C97.4098 172.36 97.5506 172.628 97.7681 172.826C97.9855 173.024 98.2658 173.139 98.5595 173.15C99.4595 173.15 100.34 173.261 101.24 173.301C102.62 173.306 103.984 173.606 105.24 174.18C105.861 174.48 106.451 174.842 107 175.26L107.22 175.441L107.61 175.76C107.85 175.98 108.09 176.21 108.32 176.451C108.729 176.868 109.097 177.323 109.42 177.811C110.08 178.802 110.611 179.874 111 181.001C111.463 182.111 111.743 183.29 111.83 184.491C111.831 184.547 111.854 184.602 111.892 184.644C111.93 184.686 111.982 184.713 112.039 184.72C112.096 184.728 112.153 184.715 112.201 184.683C112.248 184.652 112.283 184.605 112.3 184.551L112.32 184.531Z" fill="white"/>
<path d="M154.36 207.54C138.54 214.05 123.58 222.591 108.42 230.461C104.03 232.731 99.6095 234.951 95.1395 237.081C93.5995 237.811 94.9495 240.081 96.4795 239.361C111.96 231.971 126.79 223.361 141.8 215.09C146.06 212.74 150.35 210.46 154.61 208.09C154.92 207.921 154.7 207.361 154.36 207.501V207.54Z" fill="white"/>
<path d="M93.9995 238.73C93.5386 239.068 92.9862 239.259 92.415 239.277C91.8439 239.294 91.2807 239.139 90.7995 238.831C89.1895 237.891 89.5695 235.511 89.8895 233.991C90.4095 231.481 91.1095 228.991 91.6495 226.501C92.8395 220.971 93.8195 215.391 94.7295 209.811C96.4395 199.411 97.8495 188.961 99.1395 178.501C99.4062 176.301 99.6662 174.104 99.9195 171.911C100.12 170.131 97.3295 170.141 97.1395 171.911C96.3495 178.911 95.4395 185.801 94.4795 192.721C92.7895 204.811 91.0695 216.961 88.3195 228.861C87.5395 232.23 85.7495 236.561 88.0795 239.691C89.6095 241.741 94.5795 242.571 94.5495 238.961C94.5466 238.898 94.526 238.838 94.4902 238.787C94.4544 238.736 94.4048 238.696 94.3472 238.672C94.2896 238.648 94.2264 238.64 94.1649 238.651C94.1033 238.661 94.046 238.689 93.9995 238.73Z" fill="white"/>
<path d="M115.76 225.351C115.02 220.661 111.83 216.841 108.17 214.021C106.309 212.586 104.273 211.396 102.11 210.48C99.9062 209.46 97.5328 208.856 95.1095 208.701C94.7893 208.703 94.4809 208.821 94.2407 209.033C94.0006 209.245 93.845 209.536 93.8024 209.854C93.7599 210.171 93.8332 210.493 94.0091 210.761C94.1849 211.028 94.4514 211.224 94.7595 211.311C96.8586 211.654 98.9281 212.159 100.95 212.821C102.986 213.593 104.91 214.636 106.67 215.921C110.21 218.471 112.88 222.001 115.45 225.471C115.465 225.508 115.495 225.537 115.533 225.552C115.57 225.567 115.612 225.566 115.65 225.551C115.687 225.535 115.716 225.505 115.731 225.467C115.746 225.43 115.745 225.388 115.73 225.351H115.76Z" fill="white"/>
<path d="M137.13 199.391C142.9 192.93 147.73 185.601 152.77 178.571C157.59 171.851 162.413 165.127 167.24 158.4C176.74 145.141 186.24 131.88 195.58 118.521C198.306 114.641 201.03 110.757 203.75 106.871C206.66 102.721 209.92 98.6405 212.43 94.2305C213.37 92.5805 211.02 90.5805 209.71 92.1305C206.84 95.5305 204.45 99.3905 201.91 103.041C199.37 106.691 196.98 110.111 194.51 113.651C189.79 120.431 185.03 127.191 180.38 134.021C171.22 147.481 162.063 160.944 152.91 174.411C147.4 182.511 141.41 190.48 136.79 199.12C136.67 199.331 136.96 199.581 137.13 199.391Z" fill="white"/>
<path d="M113.58 182.061C115.314 180.445 116.938 178.714 118.44 176.881C119.99 174.881 121.53 172.881 123.02 170.781C126.17 166.421 129.32 162.061 132.4 157.65C138.8 148.464 145.18 139.247 151.54 130.001C161.78 115.141 171.983 100.264 182.15 85.3705C183.6 83.2305 185.06 81.0905 186.51 78.9405C186.89 78.3805 187.28 77.8205 187.61 77.2205C187.69 77.0805 187.79 76.9305 187.86 76.7805C188.11 76.2205 187.94 76.4605 188.11 75.8805C187.95 76.4505 187.73 76.9705 187.91 76.6805C189.15 74.8305 186.15 73.0905 184.91 74.9405C184.55 75.4705 186.02 73.5905 185.09 74.7005L184.83 75.0305C184.392 75.5522 183.991 76.1035 183.63 76.6805C182.48 78.4005 181.34 80.1305 180.19 81.8605L168.13 100.001C156.403 117.661 144.493 135.197 132.4 152.611C128.95 157.611 125.53 162.611 122.09 167.611C120.46 169.98 118.83 172.361 117.25 174.771C116.479 175.851 115.784 176.984 115.17 178.161C114.57 179.401 113.95 180.641 113.34 181.881C113.27 182.031 113.45 182.201 113.58 182.071V182.061Z" fill="white"/>
<path d="M214.53 92.2005C218.36 86.3405 226.53 74.9805 226.53 74.9805L214.53 92.2005Z" fill="white"/>
<path d="M209.37 87.7805C212.99 82.3105 221.56 70.3905 221.56 70.3905L209.37 87.7805Z" fill="white"/>
<path d="M204.18 82.9205C207.77 77.3905 215.63 66.2405 215.63 66.2405L204.18 82.9205Z" fill="white"/>
<path d="M191 74.9105C194.49 69.4805 203.18 57.5205 203.18 57.5205L191 74.9105Z" fill="white"/>
<path d="M183.93 73.5505C183.93 73.5505 193.93 59.4705 197.93 52.9405L183.93 73.5505Z" fill="white"/>
<path d="M173.28 67.7805C177.66 61.7805 185.38 50.0005 185.38 50.0005L173.28 67.7805Z" fill="white"/>
<path d="M131.56 204.391C128.24 206.391 118.41 213.391 115.1 215.391L131.56 204.391Z" fill="white"/>
<path d="M110.16 189.001L106.16 200.001L110.16 189.001Z" fill="white"/>
<path d="M160.52 129.711L183.58 97.8505L160.52 129.711Z" fill="white"/>
<path d="M173.06 172.241L194.18 141.001L173.06 172.241Z" fill="white"/>
<path d="M110.19 164.531L125.92 141.161L110.19 164.531Z" fill="white"/>
<path d="M239.7 70.3605L245.43 62.1705L239.7 70.3605Z" fill="white"/>
<path d="M246.37 56.6105C245.756 54.0612 244.292 51.7969 242.22 50.1905L246.37 56.6105Z" fill="white"/>
<path d="M256.92 59.4705C259.92 55.1805 265.14 53.5505 270.19 54.2505C276.51 55.1305 282.38 57.8405 288.84 57.7805C294.54 57.7297 300.118 56.1184 304.968 53.1215C309.818 50.1245 313.754 45.8565 316.35 40.7805C319.195 35.0261 320.24 28.5478 319.35 22.1905C319.237 21.7878 318.97 21.446 318.607 21.2398C318.243 21.0336 317.813 20.98 317.41 21.0905C317.027 21.2193 316.707 21.4871 316.512 21.8408C316.318 22.1946 316.263 22.6085 316.36 23.0005C317.092 28.5561 316.158 34.2041 313.676 39.2282C311.195 44.2523 307.277 48.4262 302.42 51.2205C297.519 53.9648 291.922 55.2162 286.32 54.8205C280.11 54.3605 274.32 51.2205 268.03 51.4205C263.28 51.5805 256.97 53.8805 256.5 59.3605C256.5 59.6005 256.8 59.6405 256.92 59.4705Z" fill="white"/>
<path d="M317.72 21.7405C317.032 22.1404 316.394 22.6204 315.82 23.1705C315.068 23.7885 314.276 24.3564 313.45 24.8705C311.891 25.8194 310.23 26.5908 308.5 27.1705C305.062 28.34 301.365 28.5202 297.83 27.6905L298.17 30.2505C302.371 27.7005 305.72 23.9586 307.79 19.5005C308.839 17.2836 309.56 14.9255 309.93 12.5005C310.112 11.3428 310.202 10.1725 310.2 9.00051C310.2 7.79051 310.2 6.24051 308.99 5.60051C308.782 5.48655 308.544 5.44069 308.309 5.4694C308.074 5.49811 307.854 5.59994 307.68 5.76051C306.77 6.54051 306.99 7.76051 307 8.84051C307.015 9.94 306.955 11.0392 306.82 12.1305C306.531 14.2015 305.952 16.2214 305.1 18.1305C303.34 22.1203 300.438 25.4992 296.76 27.8405C296.529 27.9845 296.345 28.1916 296.228 28.4373C296.112 28.6829 296.069 28.9568 296.104 29.2263C296.138 29.4959 296.25 29.7498 296.424 29.9579C296.599 30.1661 296.83 30.3197 297.09 30.4005C301.161 31.3393 305.422 31.022 309.31 29.4905C311.179 28.764 312.916 27.7335 314.45 26.4405C315.74 25.3505 317.64 23.7105 317.99 21.9605C318.002 21.9248 318.004 21.886 317.993 21.8496C317.982 21.8131 317.961 21.781 317.931 21.7577C317.901 21.7344 317.864 21.7212 317.826 21.7199C317.788 21.7186 317.751 21.7293 317.72 21.7505V21.7405Z" fill="white"/>
<path d="M198.86 21.1505C199.149 18.1257 198.585 15.0803 197.23 12.3605C196.522 11.0225 195.667 9.76795 194.68 8.62051C194.193 8.04634 193.668 7.50515 193.11 7.00051C192.839 6.7352 192.552 6.488 192.25 6.26051C191.91 6.02966 191.51 5.90441 191.1 5.90051C190.987 5.9013 190.875 5.92793 190.774 5.97836C190.673 6.02879 190.585 6.10168 190.517 6.19145C190.448 6.28121 190.401 6.38548 190.379 6.49625C190.357 6.60702 190.361 6.72136 190.39 6.83051C190.9 8.07051 192.25 8.83051 193.15 9.83051C194.073 10.8587 194.874 11.9894 195.54 13.2005C196.972 15.6449 197.925 18.3395 198.35 21.1405C198.361 21.1995 198.393 21.2526 198.44 21.2908C198.486 21.3289 198.544 21.3498 198.605 21.3498C198.665 21.3498 198.723 21.3289 198.769 21.2908C198.816 21.2526 198.848 21.1995 198.86 21.1405V21.1505Z" fill="white"/>
<path d="M254 44.9105C259.35 41.9905 262.92 36.1205 264.67 30.4205C266.54 24.4125 266.473 17.9686 264.48 12.0005C264.425 11.8087 264.322 11.6342 264.18 11.4943C264.038 11.3543 263.862 11.2537 263.67 11.2023C263.477 11.1509 263.274 11.1504 263.081 11.2009C262.889 11.2514 262.712 11.3512 262.57 11.4905L258.37 15.4105L260.37 16.2405C260.91 11.2405 261.75 6.24051 261.97 1.18051C262 -0.149493 259.82 -0.499493 259.6 0.870507C258.76 5.93051 258.53 11.1505 258.03 16.2505C257.93 17.3105 259.36 17.7305 260.03 17.0805L264.19 13.0805L262.27 12.5705C264.186 18.0823 264.323 24.057 262.66 29.6505C260.99 35.4205 257.66 40.0105 253.59 44.3605C253.543 44.418 253.516 44.4897 253.515 44.5639C253.514 44.6381 253.538 44.7105 253.583 44.7695C253.628 44.8285 253.692 44.8705 253.764 44.8888C253.836 44.9072 253.912 44.9007 253.98 44.8705L254 44.9105Z" fill="white"/>
<path d="M219.23 25.8205C219.062 18.8039 221.535 11.98 226.16 6.70051L224.49 5.41051C222.69 7.83051 226.24 10.3505 228.49 9.51051C229.876 8.84319 230.974 7.69559 231.58 6.28051C232.36 4.85051 233.17 3.11051 235.01 2.92051C235.229 2.89315 235.434 2.79353 235.591 2.63728C235.748 2.48103 235.849 2.27702 235.878 2.05728C235.906 1.83753 235.861 1.61451 235.749 1.42323C235.637 1.23196 235.465 1.08326 235.26 1.00051C232.89 0.120507 231 2.49051 230 4.35051C229.594 5.44195 228.936 6.42198 228.08 7.21051C227.892 7.36613 227.659 7.45703 227.416 7.46964C227.173 7.48225 226.932 7.41591 226.73 7.28051C226.39 7.08051 226.09 6.84051 226.34 6.49051C227.03 5.49051 225.46 4.27051 224.67 5.19051C222.191 7.96787 220.38 11.2749 219.375 14.8589C218.37 18.443 218.197 22.2094 218.87 25.8705C218.87 26.0805 219.24 26.0305 219.24 25.8205H219.23Z" fill="white"/>
<path d="M279.65 46.6205C282.719 47.903 286.144 48.0508 289.312 47.0375C292.48 46.0242 295.184 43.916 296.94 41.0905" fill="white"/>
<path d="M291 21.8005C294.459 18.5014 297.014 14.3696 298.42 9.80051L291 21.8005Z" fill="white"/>
<path d="M329.28 19.8705C331.268 18.1174 333.589 16.7827 336.104 15.946C338.619 15.1093 341.277 14.7877 343.92 15.0005" fill="white"/>
<path d="M328.06 29.1905C329.794 28.4631 331.688 28.1995 333.555 28.4257C335.423 28.6519 337.199 29.36 338.71 30.4805" fill="white"/>
<path d="M247 35.1405C249.451 32.6294 251.232 29.5418 252.177 26.1621C253.122 22.7824 253.202 19.2192 252.41 15.8005" fill="white"/>
<path d="M227 23.8205C226.938 21.995 227.342 20.1839 228.175 18.5583C229.008 16.9328 230.242 15.5465 231.76 14.5305" fill="white"/>
<path d="M238.85 11.6805C239.97 10.1269 241.393 8.81517 243.032 7.82378C244.671 6.83238 246.493 6.18166 248.39 5.91051" fill="white"/>
<path d="M204.26 17.7905C204.749 15.8688 204.852 13.8692 204.564 11.9073C204.276 9.94535 203.601 8.06008 202.58 6.36051" fill="white"/>
<path d="M343.87 35.6505C345.275 36.6249 346.328 38.0282 346.87 39.6505L343.87 35.6505Z" fill="white"/>
<path d="M277.65 130.15C277.51 131.32 277.33 132.491 277.15 133.661C276.97 134.831 276.86 136.281 276.73 137.59C276.63 138.65 276.52 139.72 276.49 140.79C276.49 141.125 276.51 141.459 276.55 141.79C276.545 141.874 276.545 141.957 276.55 142.04C276.55 142.18 276.55 142.58 276.55 142.15C276.48 143.15 278.08 143.15 278.14 142.15C278.14 142.58 278.14 142.081 278.2 141.961C278.288 141.575 278.351 141.184 278.39 140.79C278.48 139.72 278.49 138.661 278.49 137.59C278.49 136.29 278.49 134.98 278.41 133.68C278.33 132.38 278.21 131.32 278.07 130.15C278.059 130.099 278.03 130.053 277.989 130.02C277.948 129.986 277.897 129.968 277.845 129.968C277.792 129.968 277.741 129.986 277.7 130.02C277.659 130.053 277.63 130.099 277.62 130.15H277.65Z" fill="white"/>
<path d="M277.37 142.001C275.74 142.12 274.1 142.161 272.47 142.281L269.93 142.491C269.497 142.509 269.067 142.552 268.64 142.62C268.25 142.732 267.881 142.908 267.55 143.141C267.442 143.206 267.355 143.301 267.3 143.414C267.245 143.527 267.224 143.654 267.24 143.779C267.256 143.904 267.308 144.022 267.389 144.118C267.471 144.214 267.579 144.285 267.7 144.321C268.065 144.418 268.442 144.462 268.82 144.451C269.25 144.407 269.675 144.323 270.09 144.201L272.66 143.641C274.26 143.29 275.85 142.87 277.43 142.4C277.64 142.33 277.61 141.98 277.37 142.001Z" fill="white"/>
<path d="M267.8 144.781C269.172 145.713 270.457 146.767 271.64 147.931C272.83 149.062 274.133 150.067 275.53 150.931C276.44 151.461 277.26 149.931 276.34 149.561C273.34 148.231 270.98 145.721 267.92 144.451C267.75 144.391 267.66 144.651 267.8 144.731V144.781Z" fill="white"/>
<path d="M275.68 150.29C275.68 151.861 275.6 153.421 275.55 154.98C275.55 156.281 275.55 157.59 275.55 158.891V160.671C275.438 161.271 275.497 161.891 275.72 162.461C275.794 162.58 275.898 162.679 276.021 162.748C276.145 162.816 276.283 162.852 276.425 162.852C276.566 162.852 276.704 162.816 276.828 162.748C276.951 162.679 277.055 162.58 277.13 162.461C277.355 161.891 277.4 161.266 277.26 160.671C277.26 160.081 277.18 159.48 277.14 158.891C277.04 157.59 276.96 156.281 276.81 154.98C276.63 153.421 276.44 151.861 276.24 150.29C276.228 150.232 276.196 150.178 276.149 150.14C276.103 150.102 276.045 150.081 275.985 150.081C275.924 150.081 275.866 150.102 275.82 150.14C275.773 150.178 275.741 150.232 275.73 150.29H275.68Z" fill="white"/>
<path d="M276.9 162.241C277.58 161.461 278.3 160.701 278.9 159.881L280.79 157.301C281.42 156.441 282 155.561 282.59 154.671L283.47 153.351C283.64 153.156 283.766 152.926 283.839 152.677C283.911 152.428 283.929 152.167 283.89 151.911C283.843 151.747 283.734 151.609 283.586 151.524C283.439 151.44 283.264 151.417 283.1 151.461C282.55 151.571 282.26 152.031 281.98 152.461L281.11 153.801C280.55 154.661 279.98 155.511 279.46 156.401L277.9 159.051C277.36 159.961 276.9 160.951 276.48 161.901C276.35 162.161 276.69 162.471 276.9 162.231V162.241Z" fill="white"/>
<path d="M283.26 152.271C283.96 152.861 284.62 153.48 285.34 154.04C286.132 154.615 286.953 155.149 287.8 155.641C289.4 156.641 291.03 157.641 292.66 158.641C293.34 159.051 294.58 159.911 295.31 159.221C296.04 158.531 295.01 157.611 294.4 157.221C292.79 156.221 291.06 155.4 289.4 154.561C288.4 154.07 287.4 153.561 286.4 153.101C285.421 152.705 284.419 152.371 283.4 152.101C283.27 152.101 283.16 152.241 283.26 152.321V152.271Z" fill="white"/>
<path d="M295.7 158.581C294.889 156.516 294.188 154.409 293.6 152.271C293.24 151.161 292.87 150.051 292.48 148.951C292.209 148.011 291.761 147.132 291.16 146.361C290.87 146.04 290.41 146.361 290.48 146.76C290.725 147.72 291.06 148.654 291.48 149.551C291.92 150.651 292.32 151.76 292.77 152.861C293.528 154.868 294.413 156.825 295.42 158.721C295.51 158.881 295.73 158.721 295.66 158.581H295.7Z" fill="white"/>
<path d="M277.76 130.221C278.9 132.141 280.08 134.031 281.26 135.93C281.86 136.93 282.46 137.851 283.049 138.821C283.329 139.281 283.6 139.751 283.9 140.201C284.139 140.664 284.481 141.068 284.9 141.381C284.97 141.421 285.049 141.442 285.13 141.442C285.211 141.442 285.29 141.421 285.36 141.38C285.43 141.34 285.488 141.281 285.529 141.211C285.569 141.141 285.59 141.061 285.59 140.98C285.49 140.031 284.59 139.111 284.04 138.351C283.35 137.411 282.66 136.461 281.96 135.521C280.63 133.721 279.299 131.911 277.96 130.081C277.95 130.065 277.938 130.052 277.924 130.042C277.91 130.031 277.894 130.024 277.876 130.02C277.859 130.016 277.841 130.015 277.824 130.017C277.806 130.02 277.79 130.026 277.775 130.036C277.759 130.045 277.746 130.057 277.736 130.071C277.725 130.085 277.718 130.102 277.714 130.119C277.71 130.136 277.709 130.154 277.711 130.171C277.714 130.189 277.72 130.205 277.73 130.221H277.76Z" fill="white"/>
<path d="M285.16 141.101C287.04 140.801 288.95 140.821 290.83 140.571C291.75 140.441 292.66 140.321 293.57 140.111C294.48 139.901 295.88 139.751 296.32 138.841C296.389 138.726 296.434 138.598 296.453 138.465C296.472 138.332 296.464 138.197 296.429 138.067C296.395 137.937 296.335 137.816 296.252 137.71C296.17 137.604 296.067 137.516 295.95 137.451C294.95 136.981 293.95 137.591 292.95 137.851C291.95 138.111 291.12 138.391 290.2 138.661C288.413 139.209 286.692 139.954 285.07 140.881C284.94 140.951 285.07 141.121 285.16 141.101Z" fill="white"/>
<path d="M296 139.34C295 140.421 294 141.494 293 142.561C292.45 143.141 291.91 143.74 291.38 144.34C290.764 144.863 290.272 145.515 289.94 146.251C289.888 146.45 289.896 146.66 289.962 146.855C290.029 147.05 290.151 147.22 290.314 147.346C290.478 147.472 290.674 147.547 290.879 147.562C291.085 147.577 291.29 147.531 291.47 147.43C292.077 146.898 292.556 146.235 292.87 145.491C293.28 144.791 293.68 144.091 294.06 143.381C294.77 142.081 295.5 140.79 296.22 139.501C296.241 139.473 296.25 139.438 296.245 139.403C296.241 139.368 296.222 139.337 296.195 139.316C296.167 139.294 296.132 139.285 296.097 139.29C296.062 139.294 296.031 139.313 296.01 139.34H296Z" fill="white"/>
<path d="M285.68 131.331C286.27 130.561 286.89 129.811 287.42 129.001C287.68 128.611 287.94 128.23 288.18 127.831C288.439 127.309 288.573 126.733 288.57 126.151C288.568 126.013 288.527 125.88 288.451 125.766C288.374 125.652 288.266 125.563 288.14 125.511C288.011 125.463 287.872 125.452 287.738 125.478C287.604 125.505 287.48 125.568 287.38 125.661C287.197 125.81 287.023 125.97 286.86 126.141C286.619 126.401 286.432 126.707 286.31 127.041C286.13 127.461 285.99 127.901 285.83 128.331C285.51 129.221 285.29 130.15 285.03 131.061C284.91 131.471 285.45 131.631 285.68 131.331Z" fill="white"/>
<path d="M273.34 124.511C273.15 123.431 272.96 122.351 272.76 121.271C272.67 120.741 272.58 120.211 272.48 119.681C272.428 119.407 272.361 119.137 272.28 118.871C272.126 118.534 271.916 118.226 271.66 117.961C271.531 117.832 271.366 117.746 271.188 117.714C271.009 117.682 270.825 117.705 270.66 117.781C270.496 117.847 270.356 117.96 270.256 118.106C270.157 118.252 270.102 118.424 270.1 118.601C270.062 118.935 270.082 119.273 270.16 119.601C270.268 119.911 270.402 120.212 270.56 120.501C270.79 120.981 271.04 121.441 271.28 121.911L272.73 124.781C272.91 125.131 273.38 124.871 273.32 124.531L273.34 124.511Z" fill="white"/>
<path d="M265.66 134.631C265.333 134.384 265.019 134.12 264.72 133.84C264.355 133.566 263.97 133.319 263.57 133.101L262.49 132.461L262.18 132.301C261.968 132.205 261.741 132.148 261.51 132.131C261.242 132.118 260.975 132.152 260.72 132.23C260.6 132.266 260.49 132.327 260.398 132.411C260.306 132.494 260.233 132.598 260.186 132.713C260.139 132.828 260.119 132.952 260.126 133.077C260.134 133.201 260.169 133.322 260.23 133.43C260.336 133.663 260.486 133.873 260.67 134.051C260.795 134.165 260.933 134.265 261.08 134.351C261.251 134.43 261.428 134.497 261.61 134.551C262 134.691 262.4 134.801 262.8 134.921C263.232 135.074 263.677 135.187 264.13 135.26C264.53 135.296 264.927 135.356 265.32 135.441C265.42 135.459 265.524 135.442 265.614 135.393C265.704 135.344 265.775 135.266 265.814 135.172C265.854 135.077 265.86 134.972 265.832 134.874C265.804 134.776 265.743 134.69 265.66 134.631Z" fill="white"/>
<path d="M267.68 153.48C266.52 153.701 265.35 153.881 264.21 154.161L262.52 154.561C262.23 154.631 261.94 154.691 261.65 154.771C261.286 154.888 260.961 155.102 260.71 155.391C260.606 155.5 260.532 155.634 260.495 155.78C260.458 155.926 260.459 156.079 260.498 156.225C260.537 156.37 260.613 156.503 260.718 156.611C260.824 156.719 260.955 156.798 261.1 156.84C261.467 156.935 261.852 156.935 262.22 156.84C262.5 156.74 262.78 156.601 263.06 156.491L264.72 155.79C265.84 155.32 266.92 154.79 268 154.26C268.46 154.04 268.12 153.4 267.68 153.48Z" fill="white"/>
<path d="M287 164.651L286.81 166.121C286.76 166.581 286.76 167.041 286.74 167.491C286.72 167.941 286.68 168.411 286.74 168.871C286.75 169.219 286.839 169.561 287 169.871C287.102 170.041 287.25 170.179 287.426 170.269C287.603 170.359 287.802 170.398 288 170.381C288.195 170.346 288.378 170.257 288.526 170.125C288.675 169.992 288.783 169.821 288.84 169.631C288.904 169.3 288.904 168.961 288.84 168.631C288.75 168.191 288.63 167.751 288.53 167.311C288.43 166.871 288.33 166.421 288.19 165.991L287.72 164.611C287.694 164.537 287.643 164.474 287.576 164.433C287.509 164.392 287.43 164.376 287.353 164.386C287.275 164.397 287.204 164.434 287.15 164.491C287.097 164.548 287.065 164.622 287.06 164.701L287 164.651Z" fill="white"/>
<path d="M301.19 151.831C301.492 152.234 301.826 152.611 302.19 152.961L302.78 153.421C302.901 153.537 303.039 153.635 303.19 153.711L303.48 153.821L303.87 153.961C304.091 154.019 304.327 153.996 304.533 153.895C304.738 153.794 304.901 153.622 304.99 153.411C305.07 153.197 305.075 152.963 305.004 152.747C304.933 152.531 304.79 152.345 304.6 152.221L304.25 151.991C304.076 151.882 303.887 151.801 303.69 151.751L302.95 151.561C302.416 151.452 301.874 151.399 301.33 151.4C301.1 151.4 301.02 151.681 301.15 151.831H301.19Z" fill="white"/>
<path d="M301.37 134.211C301.518 134.211 301.661 134.152 301.766 134.046C301.871 133.941 301.93 133.799 301.93 133.65C301.93 133.502 301.871 133.36 301.766 133.255C301.661 133.149 301.518 133.09 301.37 133.09C301.221 133.09 301.079 133.149 300.974 133.255C300.869 133.36 300.81 133.502 300.81 133.65C300.81 133.799 300.869 133.941 300.974 134.046C301.079 134.152 301.221 134.211 301.37 134.211Z" fill="white"/>
<path d="M285 115.781L284.87 115.901C284.813 115.944 284.765 115.998 284.73 116.061L284.68 116.141L284.51 116.441V116.541C284.494 116.596 284.494 116.655 284.51 116.711C284.5 116.743 284.5 116.778 284.51 116.811C284.52 116.865 284.548 116.914 284.59 116.951L284.68 117.021H284.78C284.835 117.035 284.894 117.035 284.95 117.021C285.002 117.031 285.057 117.031 285.11 117.021L285.41 116.84H285.48L285.59 116.751L285.71 116.611C285.757 116.562 285.795 116.504 285.82 116.441C285.846 116.377 285.86 116.309 285.86 116.241C285.86 116.172 285.846 116.104 285.82 116.041C285.795 115.977 285.757 115.919 285.71 115.871L285.6 115.791C285.519 115.739 285.425 115.711 285.33 115.711H285.2C285.109 115.737 285.027 115.785 284.96 115.851L285 115.781Z" fill="white"/>
<path d="M268.87 170.51H269.37C269.462 170.508 269.551 170.472 269.62 170.411C269.678 170.344 269.71 170.259 269.71 170.171C269.712 170.082 269.68 169.996 269.62 169.93C269.552 169.867 269.462 169.831 269.37 169.831H268.87C268.776 169.839 268.689 169.878 268.62 169.941C268.587 169.971 268.563 170.008 268.55 170.051C268.54 170.097 268.54 170.144 268.55 170.191C268.548 170.237 268.556 170.283 268.573 170.326C268.59 170.369 268.616 170.408 268.65 170.441C268.715 170.509 268.805 170.548 268.9 170.551L268.87 170.51Z" fill="white"/>
<path d="M296.62 165.731L296.31 165.581L296.54 165.821L296.61 165.981V165.891C296.59 165.83 296.555 165.775 296.51 165.731C296.479 165.676 296.434 165.631 296.38 165.601C296.338 165.553 296.281 165.522 296.22 165.511C296.167 165.473 296.104 165.455 296.04 165.461C295.978 165.441 295.911 165.441 295.85 165.461C295.783 165.457 295.716 165.474 295.66 165.511C295.599 165.527 295.544 165.558 295.5 165.601C295.449 165.636 295.405 165.68 295.37 165.731C295.33 165.778 295.3 165.832 295.28 165.891C295.235 165.977 295.214 166.074 295.22 166.171V166.361L295.3 166.541L295.41 166.681L295.56 166.801L295.73 166.871H296.12L296.29 166.801L296.44 166.681L296.55 166.541C296.591 166.488 296.619 166.426 296.63 166.361L296.56 166.521L296.33 166.761L296.64 166.621C296.714 166.576 296.775 166.515 296.82 166.441C296.865 166.365 296.89 166.279 296.89 166.191C296.89 166.102 296.865 166.016 296.82 165.941C296.778 165.867 296.715 165.808 296.64 165.771L296.62 165.731Z" fill="white"/>
<path d="M254.37 145.271C254.667 145.271 254.951 145.152 255.161 144.942C255.372 144.732 255.49 144.448 255.49 144.15C255.49 143.853 255.372 143.569 255.161 143.359C254.951 143.149 254.667 143.031 254.37 143.031C254.072 143.031 253.788 143.149 253.578 143.359C253.368 143.569 253.25 143.853 253.25 144.15C253.25 144.448 253.368 144.732 253.578 144.942C253.788 145.152 254.072 145.271 254.37 145.271Z" fill="white"/>
<path d="M219.67 202.561C208.079 211.675 200.394 224.862 198.18 239.441C196.18 252.671 199.02 266.241 205.35 277.951C211.605 289.656 221.24 299.207 233 305.36C244.698 311.237 257.997 313.127 270.87 310.74C283.643 308.422 295.487 302.495 305 293.66C314.459 284.919 320.816 273.335 323.11 260.66C325.253 247.959 323.694 234.91 318.62 223.071C313.694 211.166 305.192 201.085 294.29 194.221C283.042 187.547 270.009 184.508 256.97 185.521C244.002 186.32 231.573 190.991 221.29 198.93C218.862 200.996 216.602 203.25 214.53 205.671C213.89 206.361 214.92 207.391 215.53 206.671C217.755 204.428 220.178 202.389 222.77 200.581C225.223 198.742 227.814 197.094 230.52 195.65C236.018 192.727 241.903 190.599 248 189.331C260.278 186.688 273.063 187.732 284.75 192.331C296.181 197.059 305.773 205.363 312.09 216.001C318.477 226.591 321.73 238.776 321.47 251.141C321.25 263.49 317.001 275.429 309.37 285.141C301.581 294.812 291.163 302.025 279.37 305.91C267.628 309.959 254.914 310.232 243.01 306.69C230.82 302.9 220.18 294.82 212.57 284.641C204.836 274.47 200.385 262.184 199.81 249.421C199.433 235.219 204 221.328 212.73 210.12C214.839 207.432 217.204 204.954 219.79 202.721C219.89 202.631 219.79 202.491 219.64 202.581L219.67 202.561Z" fill="white"/>
<path d="M205.87 222.43C202.73 229.43 207.99 236.291 212.4 241.321C214.82 244.081 217.4 246.951 218.76 250.411C220.36 254.491 219.19 258.32 218.53 262.41C218.01 265.65 218.04 269.32 220.12 272.05C222.2 274.78 225.53 275.38 228.78 275.05C231.78 274.75 235.39 273.53 238.26 274.9C240.89 276.15 241.6 279.26 241.66 281.9C241.82 288.7 237 297.651 243.36 302.981C244.07 303.571 245.36 302.791 244.75 301.911C242.91 299.291 242.89 295.741 243.3 292.681C243.73 289.451 244.73 286.34 244.84 283.07C244.94 280.23 244.51 277.07 242.84 274.74C241.913 273.522 240.694 272.557 239.296 271.935C237.898 271.313 236.365 271.053 234.84 271.18C231.84 271.29 228.61 272.48 225.57 271.9C222.33 271.28 221.19 268.03 221.16 265.07C221.11 261.07 222.62 257.211 222.02 253.191C221.373 249.859 219.863 246.755 217.64 244.191C212.83 238.111 203.64 231.361 206.16 222.461C206.16 222.331 206 222.24 205.94 222.37L205.87 222.43Z" fill="white"/>
<path d="M271 308.691C273.489 300.019 272.779 290.742 269 282.551C267.018 278.403 264.347 274.623 261.1 271.371C257.51 267.741 253.42 264.561 250.21 260.571C247.31 256.951 244.95 252.24 245.59 247.48C246.15 243.34 248.86 239.891 251.66 236.961C254.66 233.761 258.11 230.961 260.77 227.391C263.43 223.82 265.58 219.51 265.32 215.031C265.171 212.534 264.26 210.143 262.71 208.18C261.13 206.361 259.389 204.688 257.51 203.18C255.849 201.868 254.603 200.104 253.92 198.101C253.37 196.211 253.4 194.321 255.02 193.001C256.15 192.071 254.69 190.271 253.47 191.001C250.01 193.071 250.04 197.541 251.54 200.851C253.34 204.851 257.48 206.851 260.1 210.251C262.89 213.84 262.15 218.37 260.15 222.141C257.96 226.251 254.59 229.311 251.3 232.531C248.25 235.531 245.2 238.76 243.49 242.751C242.591 244.909 242.15 247.23 242.194 249.568C242.239 251.905 242.769 254.208 243.75 256.331C247.84 265.771 257.75 270.531 263.47 278.701C269.535 287.369 272.021 298.044 270.41 308.501C270.398 308.582 270.416 308.666 270.462 308.735C270.507 308.804 270.576 308.854 270.655 308.876C270.735 308.899 270.82 308.891 270.894 308.855C270.969 308.819 271.027 308.757 271.06 308.681L271 308.691Z" fill="white"/>
<path d="M291.73 204.59C286.47 206.52 285.73 212.98 286.22 217.84C286.6 221.4 287.52 225.031 287.06 228.631C286.6 232.231 284.38 234.43 282.3 237.061C280.22 239.691 278.84 242.571 279 245.961C279.056 247.567 279.44 249.145 280.128 250.598C280.816 252.051 281.793 253.348 283 254.411C288 258.651 294.66 257.88 299.56 253.971C302.214 251.684 304.524 249.027 306.42 246.081C307.72 244.23 309 242.361 310.3 240.501C311.692 238.657 312.99 236.745 314.19 234.771C314.84 233.621 313.24 232.26 312.3 233.311C310 236.001 308.05 239.09 306 242.001C304.298 244.473 302.465 246.853 300.51 249.131C296.88 253.131 291.64 256.32 286.32 253.301C285.077 252.59 284.023 251.592 283.247 250.39C282.471 249.187 281.995 247.815 281.86 246.391C281.56 243.301 282.86 240.781 284.78 238.441C286.7 236.101 288.51 233.99 289.27 231.09C290.03 228.191 289.67 224.921 289.17 221.891C288.26 216.48 286.64 208.961 291.98 205.161C292.23 204.981 292.09 204.511 291.76 204.631L291.73 204.59Z" fill="white"/>
<path d="M316.89 263C309.56 259.35 300.44 257.69 293.56 263.16C290.724 265.331 288.85 268.526 288.34 272.06C287.84 276.18 289.75 279.97 291.8 283.4C293.077 285.318 294.152 287.362 295.01 289.5C295.797 291.621 295.832 293.947 295.11 296.09C295.008 296.504 295.057 296.941 295.249 297.322C295.44 297.703 295.761 298.003 296.154 298.168C296.547 298.333 296.986 298.353 297.392 298.223C297.799 298.093 298.145 297.823 298.37 297.46C300.37 294.09 299.25 289.81 297.76 286.46C296.27 283.11 293.76 280.1 292.46 276.56C289.99 269.56 295.86 263.89 302.36 262.56C307.09 261.56 312.02 262.46 316.66 263.5C316.97 263.57 317.19 263.13 316.89 262.98V263Z" fill="white"/>
<path d="M215.55 217.801C213.07 218.301 212.32 221.741 213.41 224.021C214.5 226.301 216.72 227.79 218.52 229.561C220.32 231.331 221.85 233.9 221.02 236.29" fill="white"/>
<path d="M245 226.471C246.204 225.886 247.226 224.984 247.956 223.861C248.685 222.739 249.094 221.438 249.138 220.1C249.182 218.762 248.86 217.438 248.207 216.269C247.553 215.101 246.593 214.133 245.43 213.471" fill="white"/>
<path d="M204.8 253.661C205.594 260.312 208.035 266.66 211.9 272.131L204.8 253.661Z" fill="white"/>
<path d="M218.37 282.151C220.445 285.083 223.187 287.482 226.37 289.151L218.37 282.151Z" fill="white"/>
<path d="M295 209.001C292.679 214.903 292.28 221.388 293.86 227.531L295 209.001Z" fill="white"/>
<path d="M290.84 242.001C289.896 242.235 289.065 242.794 288.491 243.58C287.918 244.365 287.638 245.326 287.701 246.297C287.764 247.267 288.166 248.185 288.837 248.889C289.507 249.593 290.403 250.04 291.37 250.15" fill="white"/>
<path d="M298.94 271.171C298.169 273.521 297.983 276.024 298.396 278.463C298.809 280.902 299.809 283.204 301.31 285.171" fill="white"/>
<path d="M303.37 269.141C305.867 267.927 308.745 267.754 311.37 268.66L303.37 269.141Z" fill="white"/>
<path d="M257.4 280.131C260.242 283.296 262.376 287.031 263.661 291.087C264.945 295.143 265.351 299.426 264.85 303.651" fill="white"/>
<path d="M228.5 260.001C228.035 260.93 227.853 261.976 227.977 263.008C228.101 264.041 228.525 265.014 229.197 265.807C229.869 266.6 230.759 267.179 231.757 267.471C232.754 267.763 233.816 267.756 234.81 267.451" fill="white"/>
<path d="M265.36 195.001C268.439 194.693 271.548 195.037 274.486 196.011C277.423 196.984 280.123 198.565 282.41 200.65" fill="white"/>
<path d="M136.8 247.001C133.552 249.895 131.311 253.749 130.399 258.002C129.488 262.256 129.954 266.689 131.73 270.661C133.557 274.585 136.542 277.855 140.284 280.031C144.026 282.207 148.345 283.184 152.66 282.831C157.015 282.427 161.14 280.694 164.477 277.867C167.815 275.04 170.202 271.256 171.316 267.026C172.431 262.797 172.218 258.327 170.707 254.223C169.196 250.118 166.46 246.578 162.87 244.081C155.16 238.541 142.58 238.9 136.21 246.451C135.63 247.15 136.41 248.451 137.21 247.811C140.235 245.451 143.768 243.828 147.53 243.071C151.334 242.397 155.254 242.932 158.74 244.601C162.207 246.244 165.089 248.908 167 252.235C168.911 255.562 169.761 259.393 169.434 263.216C169.108 267.039 167.622 270.671 165.174 273.626C162.727 276.581 159.435 278.718 155.74 279.751C151.958 280.782 147.948 280.601 144.274 279.234C140.6 277.868 137.447 275.383 135.26 272.131C132.863 268.405 131.795 263.98 132.227 259.572C132.659 255.163 134.566 251.03 137.64 247.84C137.751 247.729 137.814 247.578 137.814 247.421C137.814 247.263 137.751 247.112 137.64 247.001C137.528 246.889 137.377 246.827 137.22 246.827C137.062 246.827 136.911 246.889 136.8 247.001Z" fill="white"/>
<path d="M142.92 253.93C141.778 254.711 140.861 255.778 140.261 257.024C139.661 258.27 139.398 259.651 139.5 261.031C139.546 262.466 140.004 263.859 140.82 265.041C141.635 266.224 142.774 267.147 144.1 267.701C145.405 268.212 146.815 268.4 148.208 268.246C149.601 268.093 150.937 267.604 152.1 266.821C153.267 266.019 154.185 264.907 154.751 263.609C155.317 262.311 155.507 260.881 155.3 259.481C154.88 256.431 152.7 253.15 149.5 252.59C148.71 252.46 148.03 253.59 148.9 254.01C149.945 254.418 150.881 255.065 151.633 255.898C152.384 256.731 152.931 257.729 153.23 258.811C153.541 259.846 153.551 260.949 153.258 261.99C152.966 263.031 152.384 263.968 151.58 264.691C150.753 265.368 149.783 265.847 148.743 266.091C147.703 266.336 146.621 266.339 145.58 266.101C144.532 265.839 143.581 265.286 142.835 264.506C142.09 263.725 141.582 262.749 141.37 261.691C141.069 260.452 141.112 259.154 141.494 257.939C141.877 256.723 142.584 255.634 143.54 254.79C144.02 254.4 143.4 253.59 142.88 253.93H142.92Z" fill="white"/>
<path d="M144.69 257.511C144.2 257.715 143.773 258.045 143.453 258.468C143.133 258.891 142.93 259.391 142.866 259.917C142.802 260.444 142.879 260.978 143.089 261.465C143.298 261.952 143.633 262.375 144.06 262.691C144.13 262.732 144.207 262.759 144.288 262.771C144.369 262.782 144.451 262.777 144.53 262.757C144.609 262.736 144.683 262.701 144.748 262.652C144.813 262.602 144.868 262.541 144.91 262.471C144.991 262.327 145.014 262.157 144.973 261.996C144.932 261.836 144.83 261.698 144.69 261.611L144.61 261.561L144.49 261.461L144.4 261.361L144.25 261.141C144.23 261.092 144.207 261.045 144.18 261.001L144.09 260.721C144.09 260.721 144.09 260.631 144.09 260.591C144.09 260.481 144.09 260.551 144.09 260.591C144.08 260.394 144.08 260.197 144.09 260.001V259.871C144.09 259.771 144.09 259.681 144.16 259.581C144.164 259.531 144.164 259.48 144.16 259.431C144.16 259.351 144.24 259.271 144.29 259.201L144.36 259.091C144.3 259.161 144.42 258.991 144.36 259.091L144.56 258.881L144.67 258.811L144.79 258.741C144.79 258.741 144.99 258.651 144.86 258.741C145 258.696 145.118 258.601 145.191 258.473C145.263 258.344 145.284 258.194 145.25 258.051C145.21 257.907 145.115 257.785 144.986 257.71C144.857 257.635 144.704 257.614 144.56 257.651L144.69 257.511Z" fill="white"/>
<path d="M156.59 267.001C156.259 267.745 156.169 268.573 156.332 269.371C156.495 270.169 156.903 270.896 157.5 271.451C158.128 271.997 158.923 272.315 159.755 272.351C160.586 272.387 161.406 272.14 162.08 271.651C162.474 271.394 162.813 271.061 163.076 270.671C163.339 270.281 163.52 269.842 163.61 269.381C163.644 269.231 163.622 269.074 163.546 268.94C163.47 268.807 163.346 268.707 163.2 268.661C163.05 268.621 162.89 268.641 162.755 268.718C162.621 268.795 162.522 268.921 162.48 269.071C162.399 269.427 162.244 269.762 162.026 270.055C161.807 270.348 161.53 270.591 161.211 270.77C160.893 270.949 160.54 271.059 160.176 271.093C159.813 271.127 159.446 271.084 159.1 270.967C158.753 270.85 158.436 270.662 158.167 270.415C157.898 270.167 157.684 269.866 157.539 269.531C157.394 269.196 157.321 268.834 157.324 268.469C157.328 268.103 157.408 267.743 157.56 267.411C157.79 266.861 156.85 266.461 156.56 267.001H156.59Z" fill="white"/>
<path d="M159.08 265.861C159.29 265.652 159.551 265.503 159.838 265.428C160.124 265.354 160.425 265.357 160.71 265.438C160.995 265.518 161.254 265.673 161.459 265.886C161.665 266.099 161.81 266.363 161.88 266.651" fill="white"/>
<path d="M159.39 268.601L160.39 268.841L159.39 268.601Z" fill="white"/>
<path d="M159.49 253.271C159.278 253.47 159.113 253.712 159.005 253.982C158.897 254.251 158.849 254.541 158.864 254.831C158.879 255.121 158.958 255.404 159.093 255.661C159.229 255.917 159.419 256.142 159.65 256.317C159.881 256.493 160.148 256.617 160.431 256.679C160.715 256.742 161.008 256.742 161.292 256.679C161.575 256.617 161.842 256.493 162.073 256.317C162.304 256.141 162.494 255.917 162.63 255.661" fill="white"/>
<path d="M146.11 273.871C146.878 273.616 147.714 273.657 148.454 273.986C149.194 274.315 149.784 274.909 150.11 275.651" fill="white"/>
<path d="M329.39 230.15C339.87 246.811 341.3 270.791 334.58 289.151L329.39 230.15Z" fill="white"/>
<path d="M339.4 251.59C339.306 251.26 339.133 250.958 338.896 250.711C338.658 250.463 338.364 250.277 338.038 250.169C337.712 250.062 337.365 250.036 337.027 250.093C336.689 250.151 336.37 250.29 336.098 250.5C335.826 250.709 335.61 250.982 335.468 251.294C335.326 251.606 335.262 251.949 335.283 252.291C335.304 252.634 335.408 252.966 335.587 253.259C335.766 253.551 336.014 253.796 336.31 253.971C336.629 254.171 336.998 254.278 337.375 254.278C337.751 254.278 338.121 254.171 338.44 253.971C338.834 253.73 339.141 253.368 339.314 252.939C339.487 252.511 339.517 252.038 339.4 251.59Z" fill="white"/>
<path d="M337.37 272.211C335.37 272.211 335.37 276.091 337.37 276.091C340.37 276.091 340.37 272.211 337.37 272.211Z" fill="white"/>
<path d="M35.2095 112.251C36.0558 112.875 36.9981 113.358 37.9995 113.681C39.1226 113.897 40.2765 113.897 41.3995 113.681C43.8006 113.234 46.1159 112.411 48.2595 111.241C53.3995 108.701 58.4495 105.951 63.5295 103.241L94.1895 87.2405L107.2 80.4305C108.643 79.7822 110.011 78.9774 111.28 78.0305C112.07 77.3605 111.22 76.1105 110.28 76.3505C109.095 76.7721 107.961 77.3256 106.9 78.0005L102.9 80.0805L95.6295 83.9005L80.8995 91.6205C71.0595 96.8005 61.1895 101.921 51.3795 107.151C48.8367 108.625 46.1897 109.912 43.4595 111.001C42.2317 111.478 40.9535 111.813 39.6495 112.001C38.2271 112.253 36.7687 112.219 35.3595 111.901C35.1395 111.831 35.0195 112.151 35.2095 112.271V112.251Z" fill="white"/>
<path d="M106.9 79.5005C109.895 78.7678 112.736 77.5082 115.29 75.7805C116.56 74.9005 118.15 73.8705 118.86 72.4405C119.291 71.3032 119.432 70.0761 119.27 68.8705C119.146 67.1254 118.834 65.3987 118.34 63.7205C116.354 57.053 113.648 50.6218 110.27 44.5405C108.58 41.3905 106.78 38.2905 104.95 35.2205C103.639 32.7924 102.169 30.4539 100.55 28.2205C96.9195 23.6805 90.8895 21.5605 85.6395 24.8605C85.3321 25.077 85.1172 25.4011 85.0374 25.7686C84.9577 26.136 85.0188 26.52 85.2087 26.8445C85.3986 27.1691 85.7035 27.4104 86.063 27.5208C86.4224 27.6312 86.8102 27.6025 87.1495 27.4405C89.3895 26.4405 91.6695 25.8305 94.0395 26.8305C95.6984 27.5956 97.144 28.7563 98.2495 30.2105C99.6675 32.1661 100.954 34.214 102.1 36.3405C103.71 39.0205 105.3 41.7205 106.82 44.4705C110.001 50.0497 112.643 55.9196 114.71 62.0005C115.821 64.8166 116.404 67.8132 116.43 70.8405C116.43 71.3705 116.33 71.3705 115.88 71.8405C115.342 72.3849 114.76 72.8833 114.14 73.3305C111.59 75.2305 109.14 77.1205 106.72 79.2105C106.694 79.2404 106.678 79.2775 106.675 79.3167C106.671 79.3559 106.68 79.3952 106.7 79.4293C106.72 79.4633 106.749 79.4903 106.785 79.5067C106.821 79.523 106.861 79.5278 106.9 79.5205V79.5005Z" fill="white"/>
<path d="M39.8995 112.751C36.5795 112.221 34.7995 109.751 33.3395 106.951C31.5295 103.501 30.0295 99.8505 28.3395 96.3405C26.0795 91.7105 23.7895 87.0905 21.5095 82.4605C20.4095 80.2205 19.2995 77.9905 18.1995 75.7505C17.0975 73.8201 16.3078 71.7276 15.8595 69.5505C15.7059 68.7635 15.7439 67.9511 15.9701 67.1819C16.1964 66.4126 16.6043 65.709 17.1595 65.1305C18.4895 63.7605 20.9995 63.0005 21.8195 61.2705C21.8896 61.1572 21.932 61.0291 21.9435 60.8964C21.9549 60.7638 21.935 60.6302 21.8854 60.5067C21.8358 60.3831 21.7578 60.2729 21.6578 60.185C21.5578 60.097 21.4385 60.0339 21.3095 60.0005C19.3695 59.6105 17.1095 61.1905 15.6895 62.4005C14.4158 63.4257 13.4959 64.8248 13.0595 66.4005C11.8795 71.1705 15.0595 76.0305 17.1395 80.1005L24.8295 95.5005C26.0895 98.0205 27.3995 100.501 28.6395 103.051C29.4595 104.721 30.1795 106.451 31.0695 108.051C31.9083 109.718 33.1362 111.158 34.6495 112.251C35.4215 112.741 36.2892 113.06 37.1946 113.188C38.1 113.315 39.0222 113.248 39.8995 112.991C40.0395 112.991 40.0595 112.72 39.8995 112.701V112.751Z" fill="white"/>
<path d="M18.4095 62.6205C20.8499 61.7981 23.2098 60.7537 25.4595 59.5005C27.7295 58.3905 29.9995 57.2805 32.2395 56.1005L45.3795 49.1605C53.9995 44.5905 62.6495 40.0005 71.3195 35.4605C76.5595 32.7205 81.7862 29.9938 86.9995 27.2805C88.4495 26.5205 87.1595 24.2805 85.7095 25.0805C68.1762 34.5072 50.6229 43.9272 33.0495 53.3405C30.5595 54.6705 28.0495 56.0205 25.6295 57.4305C23.2095 58.8405 20.3095 60.1805 18.0995 62.0805C17.8395 62.2905 18.0995 62.6905 18.4095 62.6205Z" fill="white"/>
<path d="M80.9995 91.4105C80.5795 89.2505 79.1595 87.1505 78.1595 85.2205L75.1595 79.4605C73.0895 75.4605 70.9895 71.4605 68.8995 67.5105C66.8095 63.5605 64.7195 59.5105 62.5995 55.5805C61.5995 53.6805 60.5195 51.7905 59.4795 49.9005C58.4471 47.8231 57.2744 45.8185 55.9695 43.9005C55.2795 42.9805 53.5195 43.4605 53.9695 44.7505C54.7982 46.8611 55.7636 48.9155 56.8595 50.9005C57.8595 52.8405 58.7895 54.7805 59.7795 56.7105C61.8795 60.7805 64.0395 64.8105 66.1695 68.8705C68.2995 72.9305 70.3595 76.8705 72.4795 80.7805L75.6595 86.7805C76.6595 88.7005 77.6595 91.0005 79.1595 92.5705C79.3365 92.7553 79.5719 92.8732 79.8258 92.9044C80.0798 92.9356 80.3367 92.8781 80.5531 92.7417C80.7695 92.6052 80.9322 92.3982 81.0135 92.1556C81.0949 91.9131 81.0899 91.6498 80.9995 91.4105Z" fill="white"/>
<path d="M94.7995 24.7505C94.5295 24.1905 93.8995 24.0105 93.3695 23.7505C92.8395 23.4905 92.3695 23.2505 91.8195 23.0405C90.7495 22.6105 89.6595 22.2105 88.5795 21.8005C87.4995 21.3905 86.4195 20.9705 85.3395 20.5805C84.8241 20.3578 84.2967 20.1641 83.7595 20.0005C83.4068 19.9303 83.0421 19.9509 82.6995 20.0605C82.5314 20.111 82.3773 20.2001 82.2495 20.3205C82.0495 20.5805 82.0295 20.6005 82.1895 20.3905C82.1245 20.4091 82.0646 20.4422 82.0141 20.4872C81.9636 20.5322 81.9239 20.588 81.898 20.6505C81.872 20.7129 81.8605 20.7804 81.8642 20.8479C81.868 20.9155 81.8869 20.9813 81.9195 21.0405C81.9974 21.2732 82.091 21.5004 82.1995 21.7205C82.4168 22.0465 82.7319 22.2951 83.0995 22.4305C83.6095 22.6305 84.1495 22.7905 84.6695 22.9805C85.7595 23.3605 86.8595 23.7105 87.9495 24.0805C89.0395 24.4505 90.1295 24.8405 91.2395 25.1705C91.7695 25.3305 92.3195 25.4405 92.8495 25.5805C93.3952 25.8012 94.0019 25.819 94.5595 25.6305C94.7078 25.5428 94.8158 25.4006 94.8607 25.2343C94.9055 25.0681 94.8836 24.8908 94.7995 24.7405V24.7505Z" fill="white"/>
<path d="M84.2895 20.4205C81.4895 19.0105 78.1995 19.6905 75.3695 20.7505C72.3852 21.9804 69.4826 23.4 66.6795 25.0005C60.5195 28.2272 54.3662 31.4705 48.2195 34.7305C45.1295 36.3605 42.1195 38.1505 39.0195 39.7305L30.1495 44.4005C23.9995 47.6505 17.8295 50.7805 11.6395 53.9105C8.58954 55.4505 4.99954 56.7705 2.45954 59.1105C0.16954 61.2105 -1.04046 64.9305 1.15954 67.5105C2.01954 68.5105 3.98954 67.4405 3.45954 66.1705C2.33954 63.4805 3.87954 61.4205 6.12954 59.9805C8.72954 58.3305 11.5695 56.9805 14.2795 55.5205C19.9395 52.4605 25.5995 49.3805 31.2795 46.3805C42.4995 40.4905 53.7795 34.7705 64.9995 28.9305C68.0995 27.3205 71.1695 25.6005 74.3495 24.1605C77.4879 22.8856 80.7789 22.0251 84.1395 21.6005C84.2604 21.5646 84.3682 21.4943 84.4498 21.3983C84.5314 21.3022 84.5833 21.1845 84.5992 21.0594C84.6151 20.9344 84.5943 20.8074 84.5393 20.6939C84.4843 20.5805 84.3976 20.4855 84.2895 20.4205Z" fill="white"/>
<path d="M1.59954 66.6805C2.76954 71.1205 4.87954 75.3705 6.76954 79.5405C7.96954 82.1905 9.18954 84.8205 10.4595 87.4405C12.0595 90.7505 13.7095 94.0405 15.3595 97.3205C17.3595 101.251 19.2195 106.321 22.9595 108.901C25.1551 110.325 27.503 111.499 29.9595 112.401C32.4296 113.51 35.0931 114.125 37.7995 114.211C38.1268 114.201 38.44 114.075 38.6832 113.856C38.9264 113.637 39.0836 113.338 39.1269 113.013C39.1702 112.689 39.0966 112.36 38.9194 112.084C38.7422 111.809 38.4729 111.606 38.1595 111.511C35.9995 110.831 33.6895 110.661 31.5195 109.931C29.3971 109.189 27.3372 108.28 25.3595 107.211C23.526 106.09 22.0379 104.484 21.0595 102.571C19.8495 100.571 18.8195 98.4705 17.7495 96.4005C14.8495 90.7405 11.9595 85.0805 9.26954 79.3205C7.21954 74.9305 5.36954 70.3205 2.66954 66.2505C2.59416 66.15 2.4872 66.0778 2.36584 66.0455C2.24448 66.0131 2.11578 66.0225 2.0004 66.0722C1.88501 66.1218 1.78966 66.2087 1.72966 66.3191C1.66965 66.4294 1.64848 66.5567 1.66954 66.6805H1.59954Z" fill="white"/>
<path d="M54.9995 43.2005C54.0691 42.4703 52.9908 41.9516 51.8395 41.6805C50.6695 41.3005 49.4995 40.9605 48.2995 40.6805C45.9295 40.0605 43.5595 39.3405 41.1595 38.8305C40.8087 38.7633 40.4454 38.8309 40.1422 39.0197C39.8389 39.2084 39.6179 39.5046 39.5233 39.849C39.4287 40.1935 39.4673 40.5609 39.6316 40.8781C39.7958 41.1954 40.0736 41.439 40.4095 41.5605C42.7595 42.2605 45.1895 42.7605 47.5695 43.3605C48.7595 43.6505 49.9595 43.9205 51.1695 44.1505C52.3221 44.4677 53.5296 44.5325 54.7095 44.3405C54.8261 44.3107 54.9326 44.25 55.0176 44.1649C55.1027 44.0797 55.1632 43.9732 55.1929 43.8566C55.2225 43.7399 55.2202 43.6175 55.1862 43.502C55.1522 43.3866 55.0877 43.2824 54.9995 43.2005Z" fill="white"/>
<path d="M22.9995 66.5005C22.3998 66.8801 21.8877 67.3831 21.4974 67.976C21.1071 68.5688 20.8475 69.238 20.7359 69.939C20.6243 70.64 20.6632 71.3567 20.85 72.0414C21.0369 72.7262 21.3674 73.3634 21.8195 73.9105" fill="white"/>
<path d="M23.8395 77.9205L29.8395 90.1705L23.8395 77.9205Z" fill="white"/>
<path d="M104.55 74.6505C106.535 73.9328 108.379 72.8735 110 71.5205C110.809 70.836 111.429 69.9551 111.8 68.9623C112.171 67.9695 112.281 66.898 112.12 65.8505" fill="white"/>
<path d="M110.87 62.6505L108.87 59.4005L110.87 62.6505Z" fill="white"/>
<path d="M58.9195 30.2605L66.5595 32.8405L58.9195 30.2605Z" fill="white"/>
<path d="M72.1095 27.4605L79.5995 30.0005L72.1095 27.4605Z" fill="white"/>
<path d="M7.60954 58.4605L15.1095 60.4605L7.60954 58.4605Z" fill="white"/>
<path d="M18.3995 57.3105L23.8395 59.1605L18.3995 57.3105Z" fill="white"/>
<path d="M20.1495 53.0805L25.3795 54.9005L20.1495 53.0805Z" fill="white"/>
<path d="M117.05 35.3905C120.14 35.9505 123.53 33.6305 125.76 31.7705C128.385 29.3824 130.643 26.6192 132.46 23.5705C134.268 20.495 136.272 17.539 138.46 14.7205C140.748 12.0688 143.583 9.94348 146.77 8.49051C147.62 8.08051 147.24 6.49051 146.27 6.65051C139.27 7.49051 134.85 14.7605 131.57 20.2905C129.875 23.3868 127.865 26.299 125.57 28.9805C124.434 30.2956 123.133 31.4585 121.7 32.4405C120.19 33.4405 118.49 33.8705 116.94 34.7105C116.875 34.7469 116.824 34.8016 116.791 34.8675C116.758 34.9335 116.746 35.0078 116.755 35.0808C116.765 35.1539 116.796 35.2224 116.845 35.2776C116.894 35.3327 116.958 35.3721 117.03 35.3905H117.05Z" fill="white"/>
<path d="M117 45.2605C125.65 43.2605 131.91 36.4405 138.82 31.3605C142.702 28.4908 146.771 25.8818 151 23.5505C155.4 21.1305 160 19.0505 164.28 16.4705C165.07 16.0005 164.56 14.6105 163.64 14.9405C154.41 18.2518 145.735 22.9417 137.91 28.8505C130.91 34.1505 124.72 40.7005 116.8 44.7305C116.5 44.8805 116.71 45.3305 117.02 45.2605H117Z" fill="white"/>
<path d="M125.15 47.6205C129.21 45.5556 133.741 44.5935 138.29 44.8305C142.77 45.1429 147.118 46.4806 151 48.7405C151.72 49.1305 152.62 48.1105 151.91 47.5605C144.25 41.6205 132.73 41.9605 124.69 46.8805C124.603 46.9429 124.543 47.0353 124.52 47.1397C124.498 47.2441 124.516 47.3531 124.569 47.4454C124.623 47.5377 124.709 47.6067 124.811 47.6391C124.912 47.6715 125.022 47.6648 125.12 47.6205H125.15Z" fill="white"/>
<path d="M128.3 53.8105C130.969 54.4427 133.4 55.8316 135.3 57.8105C137.117 59.8094 138.343 62.2747 138.84 64.9305C139.05 66.0005 140.74 65.7505 140.72 64.6805C140.7 63.0887 140.299 61.5249 139.55 60.1205C138.809 58.7367 137.842 57.4862 136.69 56.4205C134.456 54.2671 131.462 53.0844 128.36 53.1305C127.97 53.1305 127.86 53.7405 128.27 53.8305L128.3 53.8105Z" fill="white"/>
<path d="M107.77 26.5305C109.595 24.8114 111.037 22.7258 112 20.4105C112.476 19.2722 112.812 18.08 113 16.8605C113.11 16.1987 113.18 15.5308 113.21 14.8605C113.19 14.173 113.119 13.4878 113 12.8105C112.919 12.5415 112.745 12.31 112.509 12.1578C112.273 12.0055 111.991 11.9423 111.712 11.9797C111.434 12.017 111.178 12.1524 110.991 12.3615C110.803 12.5706 110.696 12.8398 110.69 13.1205C110.49 17.6205 109.69 22.1205 107.18 26.0005C106.92 26.4005 107.49 26.8205 107.82 26.5005L107.77 26.5305Z" fill="white"/>
<path d="M161.87 39.1105C162.133 39.1305 162.397 39.075 162.63 38.9505C162.873 38.8734 163.09 38.7317 163.26 38.5405C163.45 38.3705 163.591 38.1531 163.67 37.9105C163.79 37.6759 163.849 37.4142 163.84 37.1505L163.77 36.6305C163.68 36.3004 163.504 36.0002 163.26 35.7605L162.87 35.4505C162.565 35.2777 162.22 35.1881 161.87 35.1905C161.608 35.175 161.348 35.2339 161.12 35.3605C160.875 35.4299 160.656 35.5689 160.49 35.7605C160.3 35.9305 160.158 36.1479 160.08 36.3905C159.959 36.6251 159.9 36.8868 159.91 37.1505L159.98 37.6705C160.067 38.0015 160.243 38.3024 160.49 38.5405L160.88 38.8505C161.184 39.0233 161.529 39.1129 161.88 39.1105H161.87Z" fill="white"/>
<path d="M153.39 58.7705L153.2 58.6505L153.73 59.3405C153.716 59.2071 153.668 59.0795 153.59 58.9705C153.562 58.9175 153.524 58.8701 153.48 58.8305C153.384 58.6862 153.253 58.5691 153.1 58.4905C152.95 58.3936 152.777 58.3384 152.6 58.3305C152.426 58.2856 152.243 58.2856 152.07 58.3305C151.843 58.3949 151.637 58.5153 151.47 58.6805L151.26 58.9505C151.141 59.1575 151.079 59.392 151.08 59.6305C151.069 59.8106 151.107 59.9903 151.19 60.1505C151.244 60.3158 151.34 60.464 151.47 60.5805C151.634 60.749 151.842 60.87 152.07 60.9305H152.42C152.66 60.9338 152.896 60.8679 153.1 60.7405L153.38 60.5305C153.558 60.3575 153.68 60.1343 153.73 59.8905L153.2 60.5805L153.39 60.4705C153.547 60.382 153.678 60.2526 153.767 60.0959C153.857 59.9392 153.903 59.7611 153.9 59.5805C153.901 59.4016 153.854 59.2256 153.765 59.0708C153.675 58.916 153.545 58.7882 153.39 58.7005V58.7705Z" fill="white"/>
<path d="M92.8695 10.9305C93.209 10.9305 93.5346 10.7957 93.7746 10.5556C94.0147 10.3156 94.1495 9.98998 94.1495 9.65051C94.1495 9.31103 94.0147 8.98546 93.7746 8.74541C93.5346 8.50536 93.209 8.37051 92.8695 8.37051C92.5301 8.37051 92.2045 8.50536 91.9644 8.74541C91.7244 8.98546 91.5895 9.31103 91.5895 9.65051C91.5895 9.98998 91.7244 10.3156 91.9644 10.5556C92.2045 10.7957 92.5301 10.9305 92.8695 10.9305Z" fill="white"/>
</g>
</svg>
