<svg width="20" height="20" viewBox="0 0 20 20" fill="none" xmlns="http://www.w3.org/2000/svg">
<path d="M16.4367 7.27961C16.4414 8.55325 16.2119 9.78302 15.6497 10.9338C15.0389 12.1832 14.1338 13.1429 12.8081 13.6282C11.7984 13.9988 10.7664 14.0899 9.75667 13.6066C9.49074 13.4797 9.24978 13.3016 8.9852 13.1389C8.89948 13.4683 8.80566 13.8098 8.72264 14.154C8.49721 15.0929 8.22587 16.0162 7.8074 16.891C7.60087 17.3223 7.37881 17.7448 7.02243 18.0762C6.95561 18.1383 6.87934 18.1923 6.80037 18.2395C6.49732 18.4197 6.19629 18.336 6.03227 18.0256C5.86556 17.7097 5.83316 17.3641 5.82371 17.0158C5.79266 15.8239 6.00932 14.6656 6.29213 13.5142C6.61138 12.2156 6.91241 10.9115 7.21547 9.60888C7.23572 9.52114 7.22559 9.41652 7.19792 9.32945C6.86854 8.28934 6.84289 7.26949 7.41053 6.29755C7.72303 5.76299 8.17255 5.40121 8.80364 5.30199C9.6939 5.1616 10.4795 5.80349 10.545 6.70252C10.5929 7.35251 10.4094 7.95794 10.2386 8.5681C10.08 9.13101 9.90786 9.68987 9.74992 10.2528C9.66218 10.5653 9.67028 10.8771 9.83699 11.1667C10.1211 11.658 10.5761 11.818 11.1086 11.7701C11.7336 11.7147 12.1906 11.357 12.5584 10.8758C13.0289 10.2602 13.2894 9.55151 13.446 8.80163C13.6039 8.04366 13.6869 7.27894 13.5749 6.50746C13.3947 5.26217 12.6995 4.4178 11.5102 4.03173C10.3101 3.64228 9.11074 3.69763 7.96872 4.26526C6.78485 4.85315 6.08492 5.83318 5.79671 7.10952C5.65092 7.75815 5.62392 8.41421 5.89121 9.04327C5.98502 9.26398 6.12272 9.47186 6.26918 9.66423C6.44399 9.89304 6.51486 10.1272 6.43724 10.4074C6.37177 10.6422 6.3198 10.8805 6.25231 11.1147C6.12002 11.5777 5.78929 11.7296 5.35192 11.5345C4.48393 11.1478 3.94396 10.4627 3.64496 9.58728C3.15764 8.16245 3.24268 6.75247 3.89334 5.39784C4.84975 3.40807 6.47032 2.26875 8.6079 1.83003C8.94065 1.76186 9.28353 1.73891 9.62168 1.69369C9.65813 1.68896 9.6939 1.67614 9.72967 1.66669H10.6415C10.8238 1.68829 11.006 1.70786 11.1883 1.73216C12.7413 1.93464 14.0744 2.57585 15.107 3.76782C15.975 4.77013 16.4326 5.9459 16.4367 7.27961Z" fill="#DD0000"/>
</svg>
