<svg width="24" height="23" viewBox="0 0 24 23" fill="none" xmlns="http://www.w3.org/2000/svg">
<path d="M22.5259 13.5838L23.9097 5.97291C23.9485 5.75964 23.9399 5.54046 23.8846 5.33087C23.8294 5.12127 23.7287 4.92637 23.5898 4.75995C23.4509 4.59354 23.2772 4.45966 23.0809 4.36779C22.8845 4.27591 22.6704 4.22829 22.4537 4.22828H4.54623L3.99839 1.21517C3.93652 0.874114 3.75685 0.565619 3.49073 0.343527C3.22462 0.121434 2.88895 -0.00014848 2.54234 1.36084e-07H0.634242C0.466031 1.36084e-07 0.304709 0.0668218 0.185765 0.185765C0.0668217 0.304709 0 0.466031 0 0.634242C0 0.802454 0.0668217 0.963776 0.185765 1.08272C0.304709 1.20166 0.466031 1.26848 0.634242 1.26848H2.54234C2.59185 1.26845 2.63981 1.28581 2.67783 1.31754C2.71585 1.34926 2.74152 1.39334 2.75034 1.44206L5.57295 16.9664C5.60449 17.1403 5.66697 17.3071 5.75742 17.4589C5.32774 17.7786 5.00079 18.2169 4.81674 18.7198C4.63269 19.2228 4.59955 19.7685 4.72139 20.2901C4.84323 20.8116 5.11474 21.2862 5.50258 21.6555C5.89042 22.0249 6.37769 22.2729 6.90454 22.3692C7.4314 22.4654 7.97489 22.4057 8.46826 22.1973C8.96164 21.9889 9.3834 21.641 9.68176 21.1962C9.98012 20.7514 10.1421 20.2292 10.1477 19.6937C10.1534 19.1581 10.0025 18.6326 9.71359 18.1816H17.7702C17.4419 18.6958 17.294 19.3046 17.3499 19.9121C17.4058 20.5196 17.6623 21.0912 18.079 21.5368C18.4957 21.9824 19.0489 22.2766 19.6513 22.373C20.2537 22.4694 20.8711 22.3626 21.406 22.0693C21.941 21.7761 22.3631 21.3131 22.6059 20.7534C22.8486 20.1937 22.8982 19.5691 22.7467 18.9782C22.5952 18.3872 22.2513 17.8635 21.7693 17.4896C21.2872 17.1157 20.6944 16.9129 20.0843 16.9131H7.029C6.97948 16.9132 6.93152 16.8958 6.8935 16.8641C6.85548 16.8323 6.82982 16.7883 6.82099 16.7395L6.46815 14.799H21.0699C21.4165 14.7991 21.7521 14.6775 22.0183 14.4555C22.2844 14.2334 22.4641 13.9249 22.5259 13.5838ZM8.87939 19.6615C8.87939 19.9542 8.79259 20.2403 8.62998 20.4837C8.46737 20.7271 8.23624 20.9167 7.96582 21.0287C7.69541 21.1408 7.39785 21.1701 7.11078 21.113C6.82371 21.0559 6.56001 20.9149 6.35304 20.7079C6.14608 20.501 6.00513 20.2373 5.94803 19.9502C5.89093 19.6631 5.92023 19.3656 6.03224 19.0952C6.14425 18.8248 6.33394 18.5936 6.5773 18.431C6.82067 18.2684 7.10679 18.1816 7.39949 18.1816C7.79185 18.182 8.16801 18.3381 8.44545 18.6155C8.72289 18.893 8.87895 19.2691 8.87939 19.6615ZM21.5642 19.6615C21.5642 19.9542 21.4774 20.2403 21.3148 20.4837C21.1522 20.7271 20.9211 20.9167 20.6507 21.0287C20.3802 21.1408 20.0827 21.1701 19.7956 21.113C19.5085 21.0559 19.2449 20.9149 19.0379 20.7079C18.8309 20.501 18.69 20.2373 18.6329 19.9502C18.5758 19.6631 18.6051 19.3656 18.7171 19.0952C18.8291 18.8248 19.0188 18.5936 19.2621 18.431C19.5055 18.2684 19.7916 18.1816 20.0843 18.1816C20.4767 18.182 20.8529 18.3381 21.1303 18.6155C21.4077 18.893 21.5638 19.2691 21.5642 19.6615ZM4.77684 5.49676H22.4537C22.4846 5.49677 22.5152 5.50357 22.5433 5.5167C22.5713 5.52983 22.5961 5.54895 22.616 5.57273C22.6358 5.5965 22.6502 5.62435 22.6581 5.65429C22.666 5.68423 22.6672 5.71554 22.6617 5.74601L21.2779 13.3569C21.269 13.4056 21.2434 13.4497 21.2054 13.4814C21.1673 13.5132 21.1194 13.5305 21.0699 13.5305H6.23754L4.77684 5.49676Z" fill="#f1f5f9"/>
</svg>
