<svg width="17" height="18" viewBox="0 0 17 18" fill="none" xmlns="http://www.w3.org/2000/svg">
<path d="M15.9861 15.9615C14.1307 13.254 12.2736 10.5475 10.4172 7.84062C10.3929 7.80536 10.3707 7.76865 10.3405 7.72181C10.6657 7.34276 10.9892 6.96533 11.3131 6.58809C12.9964 4.62755 14.6799 2.66683 16.3632 0.706111C16.3737 0.693814 16.382 0.679889 16.3914 0.666687H14.9618C13.2147 2.70119 11.4673 4.73588 9.69236 6.80276C9.67102 6.76424 9.65583 6.73114 9.63557 6.70166C8.27254 4.71345 6.90915 2.72561 5.54612 0.737397C5.53111 0.715334 5.52044 0.690378 5.5076 0.666687H0.666748C0.708704 0.735408 0.747405 0.806299 0.792797 0.872489C2.8387 3.85679 4.88514 6.84073 6.93158 9.82485C6.95292 9.85596 6.97335 9.88779 7.00319 9.93282C6.837 10.1278 6.66989 10.3247 6.50153 10.5207C4.59904 12.7363 2.69637 14.9516 0.794063 17.1673C0.748852 17.2201 0.709066 17.2778 0.666748 17.3334H2.09633C2.74375 16.5758 3.38991 15.8172 4.0386 15.0607C5.19185 13.7157 6.34673 12.3719 7.50088 11.0278C7.54301 10.9786 7.58642 10.9307 7.63669 10.8734C7.66924 10.9128 7.69818 10.9432 7.72169 10.9774C9.15253 13.0634 10.583 15.1497 12.0133 17.2362C12.0345 17.2672 12.0515 17.301 12.0705 17.3334H16.9111C16.603 16.876 16.2979 16.4165 15.9861 15.9615ZM14.7678 16.2973C14.1507 16.2978 13.5337 16.2946 12.9166 16.3004C12.8018 16.3013 12.7311 16.2685 12.664 16.1725C9.34983 11.4177 6.03296 6.66459 2.71663 1.91126C2.68606 1.8675 2.65821 1.82174 2.60938 1.74687C3.21467 1.74687 3.78831 1.76966 4.35906 1.73819C4.6967 1.71957 4.88279 1.83838 5.07394 2.11363C8.31233 6.77599 11.5636 11.4295 14.8119 16.085C14.854 16.1454 14.8947 16.2067 14.9501 16.2877C14.8707 16.2921 14.8193 16.2971 14.7678 16.2973Z" fill="#555555"/>
</svg>
