<svg xmlns="http://www.w3.org/2000/svg" width="32" height="33" fill="none" viewBox="0 0 32 33">
  <path fill="#DD0000" d="M27.938 6.466a3.035 3.035 0 0 0-.096-.708c-.383-1.546-1.66-2.529-3.313-2.536-1.986-.009-3.97-.002-5.956-.002-4.377 0-8.753-.004-13.13.002-2.006.002-3.45 1.421-3.451 3.393-.005 5.948-.004 11.895.002 17.843 0 .277.03.562.096.831.37 1.522 1.642 2.538 3.243 2.544 3.815.015 7.63.005 11.446.005.061 0 .123-.01.233-.018 0-.105.006-.187-.001-.267-.083-1.034.217-1.954.743-2.841 1.249-2.11 2.452-4.245 3.69-6.361.317-.544.631-1.073.517-1.738-.003-.017.014-.037.036-.09.497.162.633-.234.818-.561l.14-.244.688-1.198H21.98v-3.968h3.958l.021.438c.331-.122.632-.272.95-.338.329-.069.673-.054 1.027-.078.003-.046.01-.096.01-.146 0-1.321.003-2.642-.007-3.962ZM7.955 25.82c-.97 0-1.934.032-2.894-.013-.542-.025-1.023-.554-1.055-1.115-.04-.711-.01-1.428-.01-2.17h3.96v3.298Zm.002-5.32H4.004v-3.958h3.953V20.5Zm.006-5.995H4.008V10.55h3.955v3.955Zm0-5.983H3.987V7.86c0-.447-.008-.893.002-1.34.014-.633.47-1.238 1.07-1.27.96-.052 1.925-.014 2.904-.014v3.286Zm10.554 8.562c-1.333.764-2.661 1.534-3.992 2.303-.36.207-.718.416-1.078.622-1.093.624-2.144.022-2.149-1.232-.003-.976 0-1.953 0-2.93 0-.966-.002-1.933 0-2.9.004-1.259 1.055-1.863 2.145-1.235 1.7.98 3.398 1.963 5.098 2.941.456.263.736.634.747 1.175.01.581-.282.975-.771 1.256Zm7.431-8.57h-3.981V5.238c.09-.007.178-.021.266-.021.759-.002 1.517-.005 2.275 0 .901.005 1.436.539 1.44 1.433.002.613 0 1.226 0 1.863Z"/>
  <path fill="#DD0000" d="M25.083 14.695c-2.035 3.528-4.06 7.036-6.097 10.564l3.46 1.997 6.097-10.564-3.46-1.997Zm.152 5.035c-.192.31-.574.37-.88.186-.288-.175-.418-.533-.252-.84.335-.62.686-1.234 1.064-1.83.097-.153.317-.23.481-.342.528.05.874.551.645.994a28.182 28.182 0 0 1-1.058 1.832Zm2.709 4.682c-.006 1.973-1.414 3.396-3.384 3.425-.28.004-.558 0-.915 0 .394-.682.753-1.31 1.122-1.932.035-.058.133-.088.207-.115.644-.227.988-.677.966-1.36a1.937 1.937 0 0 1 .304-1.108c.56-.931 1.093-1.88 1.678-2.893.01.166.022.252.022.338.001 1.215.004 2.43 0 3.645Zm1.852-9.902c-.172.341-.377.665-.586 1.029l-3.463-1.998c.224-.38.413-.75.647-1.088a1.29 1.29 0 0 1 1.665-.391c.431.225.854.469 1.264.73a1.3 1.3 0 0 1 .473 1.718Zm-8.099 13.853c-.196.144-.344.275-.511.37-.594.34-1.19.676-1.794 1-.453.243-.971.03-1-.45-.049-.848-.029-1.7-.034-2.552 0-.07.035-.14.065-.258l3.274 1.89Z"/>
</svg>
