<svg width="30" height="29" viewBox="0 0 30 29" fill="none" xmlns="http://www.w3.org/2000/svg">
<path d="M0.664196 8.88599V9.21432C0.664196 14.2777 0.663363 19.341 0.665863 24.4043C0.665863 24.6535 0.667529 24.906 0.709196 25.1502C1.0792 27.3527 2.81753 28.826 5.06503 28.8302C9.0667 28.8368 13.0692 28.8318 17.0717 28.8318H17.4084C17.35 28.5977 17.2925 28.4193 17.2642 28.2368C17.0342 26.7693 16.8267 25.2985 16.5784 23.8343C16.4567 23.121 16.5334 22.4685 16.845 21.8085C18.2909 18.7493 19.7125 15.6777 21.1442 12.6118C22.0984 10.5685 24.18 9.80682 26.2242 10.7577C27.2367 11.2277 28.2425 11.7118 29.2409 12.1852V8.88599H0.664196ZM12.2367 24.8368C11.1459 24.8427 10.0559 24.8385 8.96503 24.8385C7.8642 24.8377 6.76336 24.8385 5.66253 24.8377C5.2617 24.8377 4.9592 24.6568 4.77253 24.3102C4.5917 23.9743 4.61003 23.6268 4.81503 23.3035C5.01503 22.9885 5.32003 22.8443 5.68586 22.8443C7.8767 22.841 10.0684 22.8377 12.26 22.8452C12.8734 22.8477 13.3 23.2835 13.295 23.856C13.29 24.4302 12.8625 24.8335 12.2367 24.8368ZM15.1759 19.4935C15.0559 19.5202 14.9284 19.5185 14.805 19.5185C13.2984 19.5202 11.7925 19.5193 10.2867 19.5193C8.76003 19.5193 7.23336 19.5227 5.7067 19.5177C4.9892 19.5152 4.50503 18.9002 4.69003 18.2435C4.81253 17.8085 5.20253 17.5252 5.70253 17.5235C6.93836 17.5202 8.17503 17.5227 9.41086 17.5227C11.2492 17.5227 13.0875 17.5202 14.9259 17.5243C15.4759 17.5252 15.9017 17.8993 15.9592 18.4102C16.015 18.911 15.6784 19.3835 15.1759 19.4935ZM15.9384 13.4068C15.8417 13.8143 15.5825 14.081 15.1634 14.166C15.0325 14.1927 14.8959 14.1985 14.7617 14.1985C13.2759 14.201 11.7909 14.2002 10.3059 14.2002C8.79003 14.2002 7.27336 14.2027 5.75753 14.1985C5.08253 14.196 4.64086 13.7685 4.66003 13.1552C4.67586 12.651 5.05586 12.251 5.5592 12.2102C5.6417 12.2035 5.72503 12.2035 5.80836 12.2035C8.8092 12.2035 11.8109 12.1977 14.8125 12.2135C15.0742 12.2143 15.3717 12.301 15.59 12.4435C15.9167 12.6568 16.03 13.0185 15.9384 13.4068Z" fill="#DD0000"/>
<path d="M29.2609 4.56587C29.2425 4.14337 29.1992 3.71087 29.0817 3.30754C28.5325 1.41421 26.8725 0.224208 24.8142 0.223374C18.2542 0.221708 11.6942 0.222541 5.13338 0.223374C5.00921 0.223374 4.88421 0.224208 4.75921 0.229208C2.79421 0.305041 1.03338 1.79754 0.755878 3.74671C0.620044 4.69587 0.687544 5.67504 0.665878 6.64004C0.664211 6.70837 0.682544 6.77754 0.692544 6.85587H29.2542C29.2592 6.75837 29.2675 6.66004 29.2684 6.56171C29.2692 5.89587 29.2892 5.23004 29.2609 4.56587ZM6.30838 4.86921C5.76421 4.86671 5.31588 4.42004 5.31421 3.87921C5.31338 3.32921 5.79004 2.86171 6.33588 2.87754C6.88088 2.89254 7.31171 3.34171 7.30588 3.89087C7.30004 4.44254 6.86338 4.87171 6.30838 4.86921ZM9.65254 4.86921C9.09838 4.87337 8.65921 4.44504 8.65254 3.89421C8.64504 3.33171 9.09421 2.87254 9.64838 2.87671C10.1825 2.88087 10.6417 3.34171 10.6434 3.87587C10.645 4.41671 10.1984 4.86504 9.65254 4.86921ZM12.98 4.86837C12.4317 4.87254 11.9809 4.43754 11.9725 3.89504C11.9642 3.33921 12.4217 2.87421 12.9742 2.87754C13.5125 2.88087 13.9659 3.33587 13.9675 3.87421C13.9692 4.41837 13.5259 4.86421 12.98 4.86837Z" fill="#DD0000"/>
<path d="M27.5076 19.4308C27.321 19.8308 27.1435 20.2142 26.9651 20.5967C26.1893 22.2617 25.4101 23.9258 24.6401 25.5933C24.5001 25.8983 24.3001 26.1258 24.0118 26.2992C22.7393 27.0642 21.4735 27.8408 20.2035 28.61C19.4076 29.0925 18.6785 28.7517 18.536 27.8308C18.3043 26.3325 18.071 24.8342 17.8568 23.3333C17.826 23.1183 17.846 22.8625 17.9351 22.6675C18.891 20.5825 19.866 18.5067 20.836 16.4283C20.8443 16.4108 20.8618 16.3967 20.9018 16.3508C23.1018 17.3767 25.291 18.3975 27.5076 19.4308Z" fill="#DD0000"/>
<path d="M29.1609 15.8093C28.9493 16.4226 28.6401 17.0026 28.3626 17.626C26.1368 16.5885 23.9434 15.5651 21.7151 14.526C21.9893 13.9485 22.2218 13.4043 22.5001 12.8835C23.0501 11.856 24.2793 11.3935 25.3559 11.841C26.2843 12.2268 27.1976 12.6526 28.0901 13.1135C29.0476 13.6085 29.5143 14.7851 29.1609 15.8093Z" fill="#DD0000"/>
<path d="M29.2667 24.4633C29.2542 26.6867 27.7817 28.4433 25.5842 28.7742C24.8308 28.8875 24.05 28.8192 23.2808 28.8308C23.0325 28.835 22.7842 28.8317 22.535 28.8317C22.5283 28.8092 22.5208 28.7867 22.5142 28.7642C23.2208 28.3342 23.9192 27.89 24.6358 27.4775C25.2092 27.1483 25.6042 26.69 25.88 26.0908C26.9333 23.7992 28.0058 21.5158 29.0717 19.23C29.1133 19.1392 29.1617 19.0508 29.2433 18.8892C29.2558 19.0408 29.2675 19.1167 29.2675 19.1917C29.2692 20.9492 29.2767 22.7058 29.2667 24.4633Z" fill="#DD0000"/>
</svg>
