<svg width="20" height="14" viewBox="0 0 20 14" fill="none" xmlns="http://www.w3.org/2000/svg">
<path d="M18.8683 2.72932C18.6679 1.62185 17.991 0.910933 16.9328 0.717384C16.4962 0.637216 16.0515 0.578807 15.608 0.558765C13.7272 0.47373 11.8456 0.407018 9.96419 0.333435C9.96362 0.352905 9.96305 0.372374 9.96247 0.391843C9.52985 0.391843 9.09694 0.385545 8.6646 0.392989C6.87084 0.423052 5.07679 0.442808 3.29247 0.665561C2.18271 0.803851 1.41395 1.46381 1.1829 2.56097C1.05377 3.17368 0.983334 3.80186 0.932369 4.42689C0.823283 5.76369 0.79637 7.1048 0.891426 8.44361C0.950407 9.27163 1.02599 10.1022 1.16371 10.9202C1.34438 11.9916 2.08278 12.7 3.1224 12.8543C3.73797 12.9456 4.35957 13.0235 4.98087 13.0438C6.88802 13.1057 8.79631 13.1629 10.7043 13.1724C12.6063 13.1821 14.5092 13.1369 16.4037 12.9379C16.8922 12.8864 17.3735 12.8085 17.8004 12.5351C18.5064 12.083 18.8277 11.4035 18.9047 10.6056C19.0086 9.52588 19.114 8.44361 19.1495 7.36048C19.2007 5.81065 19.1452 4.2614 18.8683 2.72932ZM8.18703 9.51843V4.04552C9.77551 4.95858 11.3474 5.86219 12.947 6.78183C11.3497 7.70033 9.77809 8.60366 8.18703 9.51843Z" fill="#555555"/>
</svg>
